<ttFont>
        <CharString name=".notdef">
          -13 endchar
        </CharString>
        <CharString name=".null">
          -423 endchar
        </CharString>
        <CharString name="A">
          86 25 63 rmoveto
          -24 -3 -39 37 19 8 7 15 11 vhcurveto
          -3 49 2 50 9 48 60 27 58 39 51 39 rrcurveto
          9 hlineto
          67 -143 rlineto
          -16 8 18 -1 15 hhcurveto
          24 12 12 24 hvcurveto
          3 vlineto
          -51 109 rlineto
          -7 13 -15 28 11 vvcurveto
          2 1 3 3 3 vhcurveto
          99 50 rlineto
          11 20 31 9 30 vvcurveto
          9 -7 13 -13 vhcurveto
          -2 hlineto
          -3 -1 -8 -2 -1 -3 -20 -8 -96 -44 -19 -11 -4 4 rcurveline
          -51 160 -25 56 -13 38 -21 39 -13 66 -68 -8 rrcurveto
          -31 -10 -24 -27 3 hvcurveto
          -42 -312 rlineto
          -4 vlineto
          -8 -8 -56 -8 vvcurveto
          -8 -79 -14 -78 -80 vvcurveto
          89 220 rmoveto
          19 176 16 141 8 16 4 -4 rcurveline
          92 -262 rlineto
          -8 vlineto
          -10 -7 -5 -4 -7 -2 -4 -3 rlinecurve
          -35 -23 -38 -30 -40 -16 rrcurveto
          endchar
        </CharString>
        <CharString name="AE">
          287 360 77 rmoveto
          -17 13 5 -6 20 hhcurveto
          82 65 124 59 38 hvcurveto
          24 32 78 80 32 vvcurveto
          11 -14 14 -7 3 vhcurveto
          -5 3 -17 1 -4 -4 rrcurveto
          -3 -13 -15 -5 -5 hvcurveto
          -125 -155 -30 -41 -5 -7 rrcurveto
          -7 -5 -15 -14 -1 hhcurveto
          -4 hlineto
          48 -10 47 48 vvcurveto
          10 vlineto
          9 1 8 7 vvcurveto
          5 vlineto
          20 18 23 20 14 9 11 13 rlinecurve
          88 79 rlineto
          15 11 6 23 16 vvcurveto
          16 -14 18 -15 -2 -117 -97 -21 -29 vhcurveto
          -1 -1 rlineto
          -1 hlineto
          -3 -11 110 20 7 0 13 8 3 hvcurveto
          110 47 4 4 131 63 rlineto
          15 7 2 15 13 vvcurveto
          15 -5 6 -16 3 vhcurveto
          -16 8 -10 -5 -223 -96 rrcurveto
          -3 -10 -3 -1 -4 hvcurveto
          -4 hlineto
          -8 -5 12 -9 hhcurveto
          -44 -15 -15 -43 -23 16 -14 1 -23 hvcurveto
          3 -24 9 -119 -26 vvcurveto
          -19 vlineto
          -4 -2 -4 4 -51 160 -25 56 -13 38 rlinecurve
          -21 39 -13 66 -68 -8 rrcurveto
          -31 -10 -24 -27 3 hvcurveto
          -42 -312 rlineto
          -4 vlineto
          -8 -8 -56 -8 vvcurveto
          -8 -79 -14 -78 -80 vvcurveto
          -20 vlineto
          -21 7 -22 27 19 8 7 15 11 vhcurveto
          -3 49 2 50 9 48 60 27 58 39 51 39 rrcurveto
          9 hlineto
          64 -138 3 -19 5 -20 5 -20 rlinecurve
          -246 206 rmoveto
          19 176 16 141 8 16 4 -4 rcurveline
          92 -262 rlineto
          -8 vlineto
          -10 -7 -5 -4 -7 -2 -4 -3 rlinecurve
          -35 -23 -38 -30 -40 -16 rrcurveto
          endchar
        </CharString>
        <CharString name="AEacute">
          287 360 77 rmoveto
          -17 13 5 -6 20 hhcurveto
          82 65 124 59 38 hvcurveto
          24 32 78 80 32 vvcurveto
          11 -14 14 -7 3 vhcurveto
          -5 3 -17 1 -4 -4 rrcurveto
          -3 -13 -15 -5 -5 hvcurveto
          -125 -155 -30 -41 -5 -7 rrcurveto
          -7 -5 -15 -14 -1 hhcurveto
          -4 hlineto
          48 -10 47 48 vvcurveto
          10 vlineto
          9 1 8 7 vvcurveto
          5 vlineto
          20 18 23 20 14 9 11 13 rlinecurve
          88 79 rlineto
          15 11 6 23 16 vvcurveto
          16 -14 18 -15 -2 -117 -97 -21 -29 vhcurveto
          -1 -1 rlineto
          -1 hlineto
          -3 -11 110 20 7 0 13 8 3 hvcurveto
          110 47 4 4 131 63 rlineto
          15 7 2 15 13 vvcurveto
          15 -5 6 -16 3 vhcurveto
          -16 8 -10 -5 -223 -96 rrcurveto
          -3 -10 -3 -1 -4 hvcurveto
          -4 hlineto
          -8 -5 12 -9 hhcurveto
          -44 -15 -15 -43 -23 16 -14 1 -23 hvcurveto
          3 -24 9 -119 -26 vvcurveto
          -19 vlineto
          -4 -2 -4 4 -51 160 -25 56 -13 38 rlinecurve
          -21 39 -13 66 -68 -8 rrcurveto
          -31 -10 -24 -27 3 hvcurveto
          -42 -312 rlineto
          -4 vlineto
          -8 -8 -56 -8 vvcurveto
          -8 -79 -14 -78 -80 vvcurveto
          -20 vlineto
          -21 7 -22 27 19 8 7 15 11 vhcurveto
          -3 49 2 50 9 48 60 27 58 39 51 39 rrcurveto
          9 hlineto
          64 -138 3 -19 5 -20 5 -20 rlinecurve
          -246 206 rmoveto
          19 176 16 141 8 16 4 -4 rcurveline
          92 -262 rlineto
          -8 vlineto
          -10 -7 -5 -4 -7 -2 -4 -3 rlinecurve
          -35 -23 -38 -30 -40 -16 rrcurveto
          150 542 rmoveto
          27 -51 67 84 21 26 11 16 23 17 -16 24 -15 23 -17 6 -20 -16 -36 -59 -53 -1 8 -69 rrcurveto
          endchar
        </CharString>
        <CharString name="Aacute">
          86 25 63 rmoveto
          -24 -3 -39 37 19 8 7 15 11 vhcurveto
          -3 49 2 50 9 48 60 27 58 39 51 39 rrcurveto
          9 hlineto
          67 -143 rlineto
          -16 8 18 -1 15 hhcurveto
          24 12 12 24 hvcurveto
          3 vlineto
          -51 109 rlineto
          -7 13 -15 28 11 vvcurveto
          2 1 3 3 3 vhcurveto
          99 50 rlineto
          11 20 31 9 30 vvcurveto
          9 -7 13 -13 vhcurveto
          -2 hlineto
          -3 -1 -8 -2 -1 -3 -20 -8 -96 -44 -19 -11 -4 4 rcurveline
          -51 160 -25 56 -13 38 -21 39 -13 66 -68 -8 rrcurveto
          -31 -10 -24 -27 3 hvcurveto
          -42 -312 rlineto
          -4 vlineto
          -8 -8 -56 -8 vvcurveto
          -8 -79 -14 -78 -80 vvcurveto
          89 220 rmoveto
          19 176 16 141 8 16 4 -4 rcurveline
          92 -262 rlineto
          -8 vlineto
          -10 -7 -5 -4 -7 -2 -4 -3 rlinecurve
          -35 -23 -38 -30 -40 -16 rrcurveto
          -70 519 rmoveto
          27 -51 67 84 21 26 11 16 23 17 -16 24 -15 23 -17 6 -20 -16 -36 -59 -53 -1 8 -69 rrcurveto
          endchar
        </CharString>
        <CharString name="Abreve">
          86 25 63 rmoveto
          -24 -3 -39 37 19 8 7 15 11 vhcurveto
          -3 49 2 50 9 48 60 27 58 39 51 39 rrcurveto
          9 hlineto
          67 -143 rlineto
          -16 8 18 -1 15 hhcurveto
          24 12 12 24 hvcurveto
          3 vlineto
          -51 109 rlineto
          -7 13 -15 28 11 vvcurveto
          2 1 3 3 3 vhcurveto
          99 50 rlineto
          11 20 31 9 30 vvcurveto
          9 -7 13 -13 vhcurveto
          -2 hlineto
          -3 -1 -8 -2 -1 -3 -20 -8 -96 -44 -19 -11 -4 4 rcurveline
          -51 160 -25 56 -13 38 -21 39 -13 66 -68 -8 rrcurveto
          -31 -10 -24 -27 3 hvcurveto
          -42 -312 rlineto
          -4 vlineto
          -8 -8 -56 -8 vvcurveto
          -8 -79 -14 -78 -80 vvcurveto
          89 220 rmoveto
          19 176 16 141 8 16 4 -4 rcurveline
          92 -262 rlineto
          -8 vlineto
          -10 -7 -5 -4 -7 -2 -4 -3 rlinecurve
          -35 -23 -38 -30 -40 -16 rrcurveto
          22 543 rmoveto
          97 -8 18 80 -11 60 -16 -85 -138 -29 -27 105 -15 -15 -39 -97 131 -11 rrcurveto
          endchar
        </CharString>
        <CharString name="Acircumflex">
          86 25 63 rmoveto
          -24 -3 -39 37 19 8 7 15 11 vhcurveto
          -3 49 2 50 9 48 60 27 58 39 51 39 rrcurveto
          9 hlineto
          67 -143 rlineto
          -16 8 18 -1 15 hhcurveto
          24 12 12 24 hvcurveto
          3 vlineto
          -51 109 rlineto
          -7 13 -15 28 11 vvcurveto
          2 1 3 3 3 vhcurveto
          99 50 rlineto
          11 20 31 9 30 vvcurveto
          9 -7 13 -13 vhcurveto
          -2 hlineto
          -3 -1 -8 -2 -1 -3 -20 -8 -96 -44 -19 -11 -4 4 rcurveline
          -51 160 -25 56 -13 38 -21 39 -13 66 -68 -8 rrcurveto
          -31 -10 -24 -27 3 hvcurveto
          -42 -312 rlineto
          -4 vlineto
          -8 -8 -56 -8 vvcurveto
          -8 -79 -14 -78 -80 vvcurveto
          89 220 rmoveto
          19 176 16 141 8 16 4 -4 rcurveline
          92 -262 rlineto
          -8 vlineto
          -10 -7 -5 -4 -7 -2 -4 -3 rlinecurve
          -35 -23 -38 -30 -40 -16 rrcurveto
          -126 536 rmoveto
          -18 -10 40 -13 16 hhcurveto
          4 15 5 3 3 hvcurveto
          61 95 4 22 8 10 4 3 rcurveline
          67 -99 rlineto
          -11 7 15 -8 17 hhcurveto
          20 13 4 15 7 0 1 -4 7 hvcurveto
          -8 11 -34 54 -8 10 rrcurveto
          1 -6 7 -1 1 vhcurveto
          -8 11 -44 62 -8 13 rrcurveto
          8 -8 -7 1 -11 hhcurveto
          -13 -17 0 -11 -5 hvcurveto
          -19 -45 rlineto
          endchar
        </CharString>
        <CharString name="Adieresis">
          86 25 63 rmoveto
          -24 -3 -39 37 19 8 7 15 11 vhcurveto
          -3 49 2 50 9 48 60 27 58 39 51 39 rrcurveto
          9 hlineto
          67 -143 rlineto
          -16 8 18 -1 15 hhcurveto
          24 12 12 24 hvcurveto
          3 vlineto
          -51 109 rlineto
          -7 13 -15 28 11 vvcurveto
          2 1 3 3 3 vhcurveto
          99 50 rlineto
          11 20 31 9 30 vvcurveto
          9 -7 13 -13 vhcurveto
          -2 hlineto
          -3 -1 -8 -2 -1 -3 -20 -8 -96 -44 -19 -11 -4 4 rcurveline
          -51 160 -25 56 -13 38 -21 39 -13 66 -68 -8 rrcurveto
          -31 -10 -24 -27 3 hvcurveto
          -42 -312 rlineto
          -4 vlineto
          -8 -8 -56 -8 vvcurveto
          -8 -79 -14 -78 -80 vvcurveto
          89 220 rmoveto
          19 176 16 141 8 16 4 -4 rcurveline
          92 -262 rlineto
          -8 vlineto
          -10 -7 -5 -4 -7 -2 -4 -3 rlinecurve
          -35 -23 -38 -30 -40 -16 rrcurveto
          -80 582 rmoveto
          -19 24 -19 17 25 17 21 23 vhcurveto
          3 vlineto
          15 -13 -12 14 -23 hhcurveto
          -19 -16 -19 -19 hvcurveto
          129 hmoveto
          -19 24 -19 17 25 17 21 23 vhcurveto
          3 vlineto
          15 -13 -12 14 -23 hhcurveto
          -19 -16 -19 -19 hvcurveto
          endchar
        </CharString>
        <CharString name="Agrave">
          86 25 63 rmoveto
          -24 -3 -39 37 19 8 7 15 11 vhcurveto
          -3 49 2 50 9 48 60 27 58 39 51 39 rrcurveto
          9 hlineto
          67 -143 rlineto
          -16 8 18 -1 15 hhcurveto
          24 12 12 24 hvcurveto
          3 vlineto
          -51 109 rlineto
          -7 13 -15 28 11 vvcurveto
          2 1 3 3 3 vhcurveto
          99 50 rlineto
          11 20 31 9 30 vvcurveto
          9 -7 13 -13 vhcurveto
          -2 hlineto
          -3 -1 -8 -2 -1 -3 -20 -8 -96 -44 -19 -11 -4 4 rcurveline
          -51 160 -25 56 -13 38 -21 39 -13 66 -68 -8 rrcurveto
          -31 -10 -24 -27 3 hvcurveto
          -42 -312 rlineto
          -4 vlineto
          -8 -8 -56 -8 vvcurveto
          -8 -79 -14 -78 -80 vvcurveto
          89 220 rmoveto
          19 176 16 141 8 16 4 -4 rcurveline
          92 -262 rlineto
          -8 vlineto
          -10 -7 -5 -4 -7 -2 -4 -3 rlinecurve
          -35 -23 -38 -30 -40 -16 rrcurveto
          132 561 rmoveto
          8 63 -56 3 -39 54 -21 15 -19 -7 -15 -20 -15 -21 20 -18 14 -14 22 -25 72 -77 29 47 rrcurveto
          endchar
        </CharString>
        <CharString name="Amacron">
          86 25 63 rmoveto
          -24 -3 -39 37 19 8 7 15 11 vhcurveto
          -3 49 2 50 9 48 60 27 58 39 51 39 rrcurveto
          9 hlineto
          67 -143 rlineto
          -16 8 18 -1 15 hhcurveto
          24 12 12 24 hvcurveto
          3 vlineto
          -51 109 rlineto
          -7 13 -15 28 11 vvcurveto
          2 1 3 3 3 vhcurveto
          99 50 rlineto
          11 20 31 9 30 vvcurveto
          9 -7 13 -13 vhcurveto
          -2 hlineto
          -3 -1 -8 -2 -1 -3 -20 -8 -96 -44 -19 -11 -4 4 rcurveline
          -51 160 -25 56 -13 38 -21 39 -13 66 -68 -8 rrcurveto
          -31 -10 -24 -27 3 hvcurveto
          -42 -312 rlineto
          -4 vlineto
          -8 -8 -56 -8 vvcurveto
          -8 -79 -14 -78 -80 vvcurveto
          89 220 rmoveto
          19 176 16 141 8 16 4 -4 rcurveline
          92 -262 rlineto
          -8 vlineto
          -10 -7 -5 -4 -7 -2 -4 -3 rlinecurve
          -35 -23 -38 -30 -40 -16 rrcurveto
          -54 523 rmoveto
          -19 21 -12 17 vhcurveto
          247 27 rlineto
          11 -6 40 27 11 vvcurveto
          27 -24 5 -23 vhcurveto
          -251 -25 rlineto
          -19 -4 -19 -8 -23 vvcurveto
          endchar
        </CharString>
        <CharString name="Aogonek">
          86 303 -16 rmoveto
          -68 37 -45 65 vhcurveto
          119 12 -21 183 -64 -89 -11 -29 -29 -15 -19 19 -7 25 0 27 7 30 6 25 11 28 16 32 7 5 5 7 1 10 rrcurveto
          1 1 1 1 1 hhcurveto
          -2 1 rlineto
          9 vlineto
          -51 109 -14 27 rlineto
          -5 11 -3 9 5 vvcurveto
          2 1 3 3 3 vhcurveto
          99 50 rlineto
          11 20 31 9 30 vvcurveto
          9 -7 13 -13 vhcurveto
          -2 hlineto
          -3 -1 -8 -2 -1 -3 -20 -8 -96 -44 -19 -11 -4 4 rcurveline
          -51 160 -25 56 -13 38 -21 39 -13 66 -68 -8 rrcurveto
          -31 -10 -24 -27 3 hvcurveto
          -42 -312 rlineto
          -4 vlineto
          -8 -8 -56 -8 vvcurveto
          -8 -79 -14 -78 -80 vvcurveto
          -20 vlineto
          -21 7 -22 27 19 8 7 15 11 vhcurveto
          -3 49 2 50 9 48 60 27 58 39 51 39 rrcurveto
          9 hlineto
          61 -131 -1 -1 rlineto
          -24 -19 -16 -46 -93 vvcurveto
          -189 299 rmoveto
          19 176 16 141 8 16 4 -4 rcurveline
          92 -262 rlineto
          -8 vlineto
          -10 -7 -5 -4 -7 -2 -4 -3 rlinecurve
          -35 -23 -38 -30 -40 -16 rrcurveto
          endchar
        </CharString>
        <CharString name="Aring">
          86 126 865 rmoveto
          -115 -84 16 -55 43 -22 9 -4 8 -3 9 -3 rrcurveto
          -2 0 -2 1 -2 vhcurveto
          -42 -312 rlineto
          -4 vlineto
          -8 -8 -56 -8 vvcurveto
          -8 -79 -14 -78 -80 vvcurveto
          -20 vlineto
          -21 7 -22 27 19 8 7 15 11 vhcurveto
          -3 49 2 50 9 48 60 27 58 39 51 39 rrcurveto
          9 hlineto
          67 -143 rlineto
          -16 8 18 -1 15 hhcurveto
          24 12 12 24 hvcurveto
          3 vlineto
          -51 109 -14 27 rlineto
          -5 11 -3 9 5 vvcurveto
          2 1 3 3 3 vhcurveto
          99 50 rlineto
          11 20 31 9 30 vvcurveto
          9 -7 13 -13 vhcurveto
          -2 hlineto
          -3 -1 -8 -2 -1 -3 -20 -8 -96 -44 -19 -11 -4 4 rcurveline
          -51 160 -25 56 -13 38 -11 20 -7 26 -15 20 -12 13 rcurveline
          2 1 2 2 1 2 rrcurveto
          23 19 15 24 17 vvcurveto
          29 -21 54 -57 vhcurveto
          -12 -7 -4 -11 hhcurveto
          -13 -582 rmoveto
          19 176 16 141 8 16 4 -4 rcurveline
          92 -262 rlineto
          -8 vlineto
          -10 -7 -5 -4 -7 -2 -4 -3 rlinecurve
          -35 -23 -38 -30 -40 -16 rrcurveto
          63 531 rmoveto
          3 -33 -71 -27 -13 40 3 45 75 42 3 -67 rrcurveto
          endchar
        </CharString>
        <CharString name="Atilde">
          86 25 63 rmoveto
          -24 -3 -39 37 19 8 7 15 11 vhcurveto
          -3 49 2 50 9 48 60 27 58 39 51 39 rrcurveto
          9 hlineto
          67 -143 rlineto
          -16 8 18 -1 15 hhcurveto
          24 12 12 24 hvcurveto
          3 vlineto
          -51 109 rlineto
          -7 13 -15 28 11 vvcurveto
          2 1 3 3 3 vhcurveto
          99 50 rlineto
          11 20 31 9 30 vvcurveto
          9 -7 13 -13 vhcurveto
          -2 hlineto
          -3 -1 -8 -2 -1 -3 -20 -8 -96 -44 -19 -11 -4 4 rcurveline
          -51 160 -25 56 -13 38 -21 39 -13 66 -68 -8 rrcurveto
          -31 -10 -24 -27 3 hvcurveto
          -42 -312 rlineto
          -4 vlineto
          -8 -8 -56 -8 vvcurveto
          -8 -79 -14 -78 -80 vvcurveto
          89 220 rmoveto
          19 176 16 141 8 16 4 -4 rcurveline
          92 -262 rlineto
          -8 vlineto
          -10 -7 -5 -4 -7 -2 -4 -3 rlinecurve
          -35 -23 -38 -30 -40 -16 rrcurveto
          -76 527 rmoveto
          -16 17 -10 9 vhcurveto
          20 17 88 27 hhcurveto
          35 -30 38 -58 47 3 rrcurveto
          39 41 74 57 19 -3 13 -15 -26 -7 -40 -24 -16 hvcurveto
          -7 -4 -9 -20 -9 hhcurveto
          -13 -5 12 7 -11 hvcurveto
          -57 72 rlineto
          11 -8 -8 0 -9 hhcurveto
          -49 -16 -21 -63 -18 -55 rrcurveto
          -1 -7 -1 -3 -7 vvcurveto
          endchar
        </CharString>
        <CharString name="B">
          92 88 195 rmoveto
          22 -169 rlineto
          -20 3 63 -7 18 hhcurveto
          13 8 2 11 13 hvcurveto
          191 165 3 3 36 49 11 16 rlinecurve
          16 24 13 32 31 vvcurveto
          57 -78 30 -44 8 vhcurveto
          -11 -54 8 -11 hhcurveto
          21 48 37 40 58 vvcurveto
          31 -36 9 -24 -51 -33 -31 -24 -49 vhcurveto
          11 -29 47 82 -74 hhcurveto
          -15 -22 -9 -17 hvcurveto
          -152 vlineto
          -16 -16 -34 -32 -30 vvcurveto
          -19 43 -4 11 vhcurveto
          7 -57 2 -64 3 -56 rrcurveto
          77 59 rmoveto
          -3 13 25 9 8 8 rrcurveto
          34 40 36 42 57 hhcurveto
          29 62 -6 -39 -61 -89 -71 -46 -38 hvcurveto
          -12 -7 -46 -41 -11 -8 rrcurveto
          -4 -4 -17 -5 -7 hhcurveto
          -1 hlineto
          80 453 rmoveto
          -10 vlineto
          -1 -21 -37 -8 -16 vhcurveto
          -3 -4 -15 -19 -4 -7 rrcurveto
          -12 -16 -38 -43 0 vvcurveto
          -4 77 hlineto
          2 67 52 0 vhcurveto
          6 3 22 16 6 3 rrcurveto
          endchar
        </CharString>
        <CharString name="C">
          8 23 129 rmoveto
          -60 16 -46 60 -23 vhcurveto
          5 hlineto
          64 52 32 48 40 hvcurveto
          64 80 55 78 33 96 rrcurveto
          2 vlineto
          21 -21 19 -19 -50 8 -45 -35 -16 vhcurveto
          -5 -11 -21 -38 -3 -6 -41 -64 -43 -58 -64 -43 rrcurveto
          -3 -3 -4 -1 -4 hhcurveto
          -27 3 46 18 hvcurveto
          5 1 13 3 vvcurveto
          47 320 rlineto
          38 5 19 51 44 40 6 -43 37 hhcurveto
          23 12 20 17 13 0 -2 -13 12 hvcurveto
          32 -37 -27 14 -48 hhcurveto
          -109 -22 -125 -82 -24 hvcurveto
          -3 -1 -12 -3 -20 vhcurveto
          -29 -234 rlineto
          endchar
        </CharString>
        <CharString name="CR">
          -13 endchar
        </CharString>
        <CharString name="Cacute">
          8 23 129 rmoveto
          -60 16 -46 60 -23 vhcurveto
          5 hlineto
          64 52 32 48 40 hvcurveto
          64 80 55 78 33 96 rrcurveto
          2 vlineto
          21 -21 19 -19 -50 8 -45 -35 -16 vhcurveto
          -5 -11 -21 -38 -3 -6 -41 -64 -43 -58 -64 -43 rrcurveto
          -3 -3 -4 -1 -4 hhcurveto
          -27 3 46 18 hvcurveto
          5 1 13 3 vvcurveto
          47 320 rlineto
          38 5 19 51 44 40 6 -43 37 hhcurveto
          23 12 20 17 13 0 -2 -13 12 hvcurveto
          32 -37 -27 14 -48 hhcurveto
          -109 -22 -125 -82 -24 hvcurveto
          -3 -1 -12 -3 -20 vhcurveto
          -29 -234 rlineto
          110 577 rmoveto
          27 -51 67 84 21 26 11 16 23 17 -16 24 -15 23 -17 6 -20 -16 -36 -59 -53 -1 8 -69 rrcurveto
          endchar
        </CharString>
        <CharString name="Ccaron">
          8 23 129 rmoveto
          -60 16 -46 60 -23 vhcurveto
          5 hlineto
          64 52 32 48 40 hvcurveto
          64 80 55 78 33 96 rrcurveto
          2 vlineto
          21 -21 19 -19 -50 8 -45 -35 -16 vhcurveto
          -5 -11 -21 -38 -3 -6 -41 -64 -43 -58 -64 -43 rrcurveto
          -3 -3 -4 -1 -4 hhcurveto
          -27 3 46 18 hvcurveto
          5 1 13 3 vvcurveto
          47 320 rlineto
          38 5 19 51 44 40 6 -43 37 hhcurveto
          23 12 20 17 13 0 -2 -13 12 hvcurveto
          32 -37 -27 14 -48 hhcurveto
          -109 -22 -125 -82 -24 hvcurveto
          -3 -1 -12 -3 -20 vhcurveto
          -29 -234 rlineto
          120 586 rmoveto
          3 -4 11 -20 3 -5 rrcurveto
          -7 5 16 0 12 hhcurveto
          11 5 1 5 7 hvcurveto
          56 55 rlineto
          1 5 5 1 hvcurveto
          7 5 35 36 4 6 rrcurveto
          4 5 0 1 4 vvcurveto
          11 -11 1 -19 -17 -12 -4 -8 -7 vhcurveto
          -62 -63 -4 2 -7 7 -4 13 -56 61 rlinecurve
          3 -3 -14 2 -3 hhcurveto
          -15 -37 -8 -12 9 hvcurveto
          endchar
        </CharString>
        <CharString name="Ccedilla">
          8 99 -270 rmoveto
          -20 24 -19 19 7 12 1 4 3 vhcurveto
          143 51 83 -11 -24 114 -42 98 -108 -39 -70 14 rrcurveto
          1 vlineto
          3 16 22 8 9 vhcurveto
          6 24 2 19 -2 13 15 8 rcurveline
          26 15 23 19 20 24 64 80 55 78 33 96 rrcurveto
          2 vlineto
          21 -21 19 -19 -50 8 -45 -35 -16 vhcurveto
          -5 -11 -21 -38 -3 -6 -41 -64 -43 -58 -64 -43 rrcurveto
          -3 -3 -4 -1 -4 hhcurveto
          -20 -4 27 19 hvcurveto
          18 vlineto
          5 1 13 3 vvcurveto
          47 320 rlineto
          38 5 19 51 44 40 6 -43 37 hhcurveto
          23 12 20 17 13 0 -2 -13 12 hvcurveto
          32 -37 -27 14 -48 hhcurveto
          -109 -22 -125 -82 -24 hvcurveto
          -3 -1 -12 -3 -20 vhcurveto
          -29 -234 rlineto
          -24 vlineto
          -30 5 -26 10 -23 vhcurveto
          9 -19 16 -15 23 -11 -8 -10 -8 -12 -7 -14 -9 -18 -7 -20 -4 -22 rrcurveto
          -53 84 -8 37 vhcurveto
          18 3 95 11 -21 -48 -21 -55 -98 29 -33 -41 rrcurveto
          -5 -5 0 -5 -7 vvcurveto
          endchar
        </CharString>
        <CharString name="Ccircumflex">
          8 23 129 rmoveto
          -60 16 -46 60 -23 vhcurveto
          5 hlineto
          64 52 32 48 40 hvcurveto
          64 80 55 78 33 96 rrcurveto
          2 vlineto
          21 -21 19 -19 -50 8 -45 -35 -16 vhcurveto
          -5 -11 -21 -38 -3 -6 -41 -64 -43 -58 -64 -43 rrcurveto
          -3 -3 -4 -1 -4 hhcurveto
          -27 3 46 18 hvcurveto
          5 1 13 3 vvcurveto
          47 320 rlineto
          38 5 19 51 44 40 6 -43 37 hhcurveto
          23 12 20 17 13 0 -2 -13 12 hvcurveto
          32 -37 -27 14 -48 hhcurveto
          -109 -22 -125 -82 -24 hvcurveto
          -3 -1 -12 -3 -20 vhcurveto
          -29 -234 rlineto
          55 522 rmoveto
          -18 -10 40 -13 16 hhcurveto
          4 15 5 3 3 hvcurveto
          61 95 4 22 8 10 4 3 rcurveline
          67 -99 rlineto
          -11 7 15 -8 17 hhcurveto
          20 13 4 15 7 0 1 -4 7 hvcurveto
          -8 11 -34 54 -8 10 rrcurveto
          1 -6 7 -1 1 vhcurveto
          -8 11 -44 62 -8 13 rrcurveto
          8 -8 -7 1 -11 hhcurveto
          -13 -17 0 -11 -5 hvcurveto
          -19 -45 rlineto
          endchar
        </CharString>
        <CharString name="Cdotaccent">
          8 23 129 rmoveto
          -60 16 -46 60 -23 vhcurveto
          5 hlineto
          64 52 32 48 40 hvcurveto
          64 80 55 78 33 96 rrcurveto
          2 vlineto
          21 -21 19 -19 -50 8 -45 -35 -16 vhcurveto
          -5 -11 -21 -38 -3 -6 -41 -64 -43 -58 -64 -43 rrcurveto
          -3 -3 -4 -1 -4 hhcurveto
          -27 3 46 18 hvcurveto
          5 1 13 3 vvcurveto
          47 320 rlineto
          38 5 19 51 44 40 6 -43 37 hhcurveto
          23 12 20 17 13 0 -2 -13 12 hvcurveto
          32 -37 -27 14 -48 hhcurveto
          -109 -22 -125 -82 -24 hvcurveto
          -3 -1 -12 -3 -20 vhcurveto
          -29 -234 rlineto
          113 585 rmoveto
          -29 35 -35 27 39 24 37 37 vhcurveto
          5 vlineto
          25 -19 -20 24 -33 hhcurveto
          -27 -26 -35 -29 hvcurveto
          endchar
        </CharString>
        <CharString name="D">
          100 141 32 rmoveto
          -20 14 -12 20 24 8 7 19 19 vhcurveto
          190 189 rlineto
          55 55 30 81 76 vvcurveto
          168 -143 12 -132 5 vhcurveto
          27 5 -35 15 -21 hhcurveto
          -40 -1 -25 -37 3 hvcurveto
          -4 -5 -101 -50 -3 -5 -4 -9 -7 -4 rlinecurve
          -30 vlineto
          -5 15 -3 3 -4 vhcurveto
          16 hlineto
          35 22 29 26 hhcurveto
          -123 -2 -118 -123 vvcurveto
          -23 -1 -27 13 -20 vhcurveto
          1 -1 8 -5 -3 -11 -13 -8 -12 vvcurveto
          85 505 rmoveto
          7 8 26 1 4 hhcurveto
          87 73 -36 -93 -99 -81 -79 -62 -65 hvcurveto
          -13 -13 -35 -30 -3 -3 -3 -5 rcurveline
          -1 hlineto
          endchar
        </CharString>
        <CharString name="Dcaron">
          100 141 32 rmoveto
          -20 14 -12 20 24 8 7 19 19 vhcurveto
          190 189 rlineto
          55 55 30 81 76 vvcurveto
          168 -143 12 -132 5 vhcurveto
          27 5 -35 15 -21 hhcurveto
          -40 -1 -25 -37 3 hvcurveto
          -4 -5 -101 -50 -3 -5 -4 -9 -7 -4 rlinecurve
          -30 vlineto
          -5 15 -3 3 -4 vhcurveto
          16 hlineto
          35 22 29 26 hhcurveto
          -123 -2 -118 -123 vvcurveto
          -23 -1 -27 13 -20 vhcurveto
          1 -1 8 -5 -3 -11 -13 -8 -12 vvcurveto
          85 505 rmoveto
          7 8 26 1 4 hhcurveto
          87 73 -36 -93 -99 -81 -79 -62 -65 hvcurveto
          -13 -13 -35 -30 -3 -3 -3 -5 rcurveline
          -1 hlineto
          18 631 rmoveto
          3 -4 11 -20 3 -5 rrcurveto
          -7 5 16 0 12 hhcurveto
          11 5 1 5 7 hvcurveto
          56 55 rlineto
          1 5 5 1 hvcurveto
          7 5 35 36 4 6 rrcurveto
          4 5 0 1 4 vvcurveto
          11 -11 1 -19 -17 -12 -4 -8 -7 vhcurveto
          -62 -63 -4 2 -7 7 -4 13 -56 61 rlinecurve
          3 -3 -14 2 -3 hhcurveto
          -15 -37 -8 -12 9 hvcurveto
          endchar
        </CharString>
        <CharString name="E">
          78 22 rmoveto
          -17 13 5 -6 20 hhcurveto
          82 65 124 59 38 hvcurveto
          24 32 78 80 32 vvcurveto
          11 -14 14 -7 3 vhcurveto
          -5 3 -17 1 -4 -4 rrcurveto
          -3 -13 -15 -5 -5 hvcurveto
          -125 -155 -30 -41 -5 -7 rrcurveto
          -7 -5 -15 -14 -1 hhcurveto
          -4 hlineto
          48 -10 47 48 vvcurveto
          -1 11 3 27 -1 1 156 139 rcurveline
          15 11 6 23 16 vvcurveto
          16 -14 18 -15 -2 -117 -97 -21 -29 vhcurveto
          -1 -1 0 0 0 vvcurveto
          -1 hlineto
          -3 -11 110 20 7 0 13 8 3 hvcurveto
          110 47 4 4 131 63 rlineto
          15 7 2 15 13 vvcurveto
          15 -5 6 -16 3 vhcurveto
          -16 8 -10 -5 -223 -96 rrcurveto
          -3 -10 -3 -1 -4 hvcurveto
          -4 hlineto
          -8 -5 12 -9 hhcurveto
          -44 -15 -15 -43 -23 16 -14 1 -23 hvcurveto
          3 -24 9 -119 -26 vvcurveto
          -15 vlineto
          -24 -21 -7 -22 vvcurveto
          -26 18 4 3 -11 vhcurveto
          7 -27 -4 -18 1 -31 3 -53 6 -45 13 -53 rrcurveto
          endchar
        </CharString>
        <CharString name="Eacute">
          78 22 rmoveto
          -17 13 5 -6 20 hhcurveto
          82 65 124 59 38 hvcurveto
          24 32 78 80 32 vvcurveto
          11 -14 14 -7 3 vhcurveto
          -5 3 -17 1 -4 -4 rrcurveto
          -3 -13 -15 -5 -5 hvcurveto
          -125 -155 -30 -41 -5 -7 rrcurveto
          -7 -5 -15 -14 -1 hhcurveto
          -4 hlineto
          48 -10 47 48 vvcurveto
          -1 11 3 27 -1 1 156 139 rcurveline
          15 11 6 23 16 vvcurveto
          16 -14 18 -15 -2 -117 -97 -21 -29 vhcurveto
          -1 -1 0 0 0 vvcurveto
          -1 hlineto
          -3 -11 110 20 7 0 13 8 3 hvcurveto
          110 47 4 4 131 63 rlineto
          15 7 2 15 13 vvcurveto
          15 -5 6 -16 3 vhcurveto
          -16 8 -10 -5 -223 -96 rrcurveto
          -3 -10 -3 -1 -4 hvcurveto
          -4 hlineto
          -8 -5 12 -9 hhcurveto
          -44 -15 -15 -43 -23 16 -14 1 -23 hvcurveto
          3 -24 9 -119 -26 vvcurveto
          -15 vlineto
          -24 -21 -7 -22 vvcurveto
          -26 18 4 3 -11 vhcurveto
          7 -27 -4 -18 1 -31 3 -53 6 -45 13 -53 rrcurveto
          36 699 rmoveto
          27 -51 67 84 21 26 11 16 23 17 -16 24 -15 23 -17 6 -20 -16 -36 -59 -53 -1 8 -69 rrcurveto
          endchar
        </CharString>
        <CharString name="Ebreve">
          78 22 rmoveto
          -17 13 5 -6 20 hhcurveto
          82 65 124 59 38 hvcurveto
          24 32 78 80 32 vvcurveto
          11 -14 14 -7 3 vhcurveto
          -5 3 -17 1 -4 -4 rrcurveto
          -3 -13 -15 -5 -5 hvcurveto
          -125 -155 -30 -41 -5 -7 rrcurveto
          -7 -5 -15 -14 -1 hhcurveto
          -4 hlineto
          48 -10 47 48 vvcurveto
          -1 11 3 27 -1 1 156 139 rcurveline
          15 11 6 23 16 vvcurveto
          16 -14 18 -15 -2 -117 -97 -21 -29 vhcurveto
          -1 -1 0 0 0 vvcurveto
          -1 hlineto
          -3 -11 110 20 7 0 13 8 3 hvcurveto
          110 47 4 4 131 63 rlineto
          15 7 2 15 13 vvcurveto
          15 -5 6 -16 3 vhcurveto
          -16 8 -10 -5 -223 -96 rrcurveto
          -3 -10 -3 -1 -4 hvcurveto
          -4 hlineto
          -8 -5 12 -9 hhcurveto
          -44 -15 -15 -43 -23 16 -14 1 -23 hvcurveto
          3 -24 9 -119 -26 vvcurveto
          -15 vlineto
          -24 -21 -7 -22 vvcurveto
          -26 18 4 3 -11 vhcurveto
          7 -27 -4 -18 1 -31 3 -53 6 -45 13 -53 rrcurveto
          129 718 rmoveto
          97 -8 18 80 -11 60 -16 -85 -138 -29 -27 105 -15 -15 -39 -97 131 -11 rrcurveto
          endchar
        </CharString>
        <CharString name="Ecaron">
          78 22 rmoveto
          -17 13 5 -6 20 hhcurveto
          82 65 124 59 38 hvcurveto
          24 32 78 80 32 vvcurveto
          11 -14 14 -7 3 vhcurveto
          -5 3 -17 1 -4 -4 rrcurveto
          -3 -13 -15 -5 -5 hvcurveto
          -125 -155 -30 -41 -5 -7 rrcurveto
          -7 -5 -15 -14 -1 hhcurveto
          -4 hlineto
          48 -10 47 48 vvcurveto
          -1 11 3 27 -1 1 156 139 rcurveline
          15 11 6 23 16 vvcurveto
          16 -14 18 -15 -2 -117 -97 -21 -29 vhcurveto
          -1 -1 0 0 0 vvcurveto
          -1 hlineto
          -3 -11 110 20 7 0 13 8 3 hvcurveto
          110 47 4 4 131 63 rlineto
          15 7 2 15 13 vvcurveto
          15 -5 6 -16 3 vhcurveto
          -16 8 -10 -5 -223 -96 rrcurveto
          -3 -10 -3 -1 -4 hvcurveto
          -4 hlineto
          -8 -5 12 -9 hhcurveto
          -44 -15 -15 -43 -23 16 -14 1 -23 hvcurveto
          3 -24 9 -119 -26 vvcurveto
          -15 vlineto
          -24 -21 -7 -22 vvcurveto
          -26 18 4 3 -11 vhcurveto
          7 -27 -4 -18 1 -31 3 -53 6 -45 13 -53 rrcurveto
          35 754 rmoveto
          3 -4 11 -20 3 -5 rrcurveto
          -7 5 16 0 12 hhcurveto
          11 5 1 5 7 hvcurveto
          56 55 rlineto
          1 5 5 1 hvcurveto
          7 5 35 36 4 6 rrcurveto
          4 5 0 1 4 vvcurveto
          11 -11 1 -19 -17 -12 -4 -8 -7 vhcurveto
          -62 -63 -4 2 -7 7 -4 13 -56 61 rlinecurve
          3 -3 -14 2 -3 hhcurveto
          -15 -37 -8 -12 9 hvcurveto
          endchar
        </CharString>
        <CharString name="Ecircumflex">
          78 22 rmoveto
          -17 13 5 -6 20 hhcurveto
          82 65 124 59 38 hvcurveto
          24 32 78 80 32 vvcurveto
          11 -14 14 -7 3 vhcurveto
          -5 3 -17 1 -4 -4 rrcurveto
          -3 -13 -15 -5 -5 hvcurveto
          -125 -155 -30 -41 -5 -7 rrcurveto
          -7 -5 -15 -14 -1 hhcurveto
          -4 hlineto
          48 -10 47 48 vvcurveto
          -1 11 3 27 -1 1 156 139 rcurveline
          15 11 6 23 16 vvcurveto
          16 -14 18 -15 -2 -117 -97 -21 -29 vhcurveto
          -1 -1 0 0 0 vvcurveto
          -1 hlineto
          -3 -11 110 20 7 0 13 8 3 hvcurveto
          110 47 4 4 131 63 rlineto
          15 7 2 15 13 vvcurveto
          15 -5 6 -16 3 vhcurveto
          -16 8 -10 -5 -223 -96 rrcurveto
          -3 -10 -3 -1 -4 hvcurveto
          -4 hlineto
          -8 -5 12 -9 hhcurveto
          -44 -15 -15 -43 -23 16 -14 1 -23 hvcurveto
          3 -24 9 -119 -26 vvcurveto
          -15 vlineto
          -24 -21 -7 -22 vvcurveto
          -26 18 4 3 -11 vhcurveto
          7 -27 -4 -18 1 -31 3 -53 6 -45 13 -53 rrcurveto
          -15 745 rmoveto
          -18 -10 40 -13 16 hhcurveto
          4 15 5 3 3 hvcurveto
          61 95 4 22 8 10 4 3 rcurveline
          67 -99 rlineto
          -11 7 15 -8 17 hhcurveto
          20 13 4 15 7 0 1 -4 7 hvcurveto
          -8 11 -34 54 -8 10 rrcurveto
          1 -6 7 -1 1 vhcurveto
          -8 11 -44 62 -8 13 rrcurveto
          8 -8 -7 1 -11 hhcurveto
          -13 -17 0 -11 -5 hvcurveto
          -19 -45 rlineto
          endchar
        </CharString>
        <CharString name="Edieresis">
          78 22 rmoveto
          -17 13 5 -6 20 hhcurveto
          82 65 124 59 38 hvcurveto
          24 32 78 80 32 vvcurveto
          11 -14 14 -7 3 vhcurveto
          -5 3 -17 1 -4 -4 rrcurveto
          -3 -13 -15 -5 -5 hvcurveto
          -125 -155 -30 -41 -5 -7 rrcurveto
          -7 -5 -15 -14 -1 hhcurveto
          -4 hlineto
          48 -10 47 48 vvcurveto
          -1 11 3 27 -1 1 156 139 rcurveline
          15 11 6 23 16 vvcurveto
          16 -14 18 -15 -2 -117 -97 -21 -29 vhcurveto
          -1 -1 0 0 0 vvcurveto
          -1 hlineto
          -3 -11 110 20 7 0 13 8 3 hvcurveto
          110 47 4 4 131 63 rlineto
          15 7 2 15 13 vvcurveto
          15 -5 6 -16 3 vhcurveto
          -16 8 -10 -5 -223 -96 rrcurveto
          -3 -10 -3 -1 -4 hvcurveto
          -4 hlineto
          -8 -5 12 -9 hhcurveto
          -44 -15 -15 -43 -23 16 -14 1 -23 hvcurveto
          3 -24 9 -119 -26 vvcurveto
          -15 vlineto
          -24 -21 -7 -22 vvcurveto
          -26 18 4 3 -11 vhcurveto
          7 -27 -4 -18 1 -31 3 -53 6 -45 13 -53 rrcurveto
          4 754 rmoveto
          -19 24 -19 17 25 17 21 23 vhcurveto
          3 vlineto
          15 -13 -12 14 -23 hhcurveto
          -19 -16 -19 -19 hvcurveto
          129 hmoveto
          -19 24 -19 17 25 17 21 23 vhcurveto
          3 vlineto
          15 -13 -12 14 -23 hhcurveto
          -19 -16 -19 -19 hvcurveto
          endchar
        </CharString>
        <CharString name="Edotaccent">
          78 22 rmoveto
          -17 13 5 -6 20 hhcurveto
          82 65 124 59 38 hvcurveto
          24 32 78 80 32 vvcurveto
          11 -14 14 -7 3 vhcurveto
          -5 3 -17 1 -4 -4 rrcurveto
          -3 -13 -15 -5 -5 hvcurveto
          -125 -155 -30 -41 -5 -7 rrcurveto
          -7 -5 -15 -14 -1 hhcurveto
          -4 hlineto
          48 -10 47 48 vvcurveto
          -1 11 3 27 -1 1 156 139 rcurveline
          15 11 6 23 16 vvcurveto
          16 -14 18 -15 -2 -117 -97 -21 -29 vhcurveto
          -1 -1 0 0 0 vvcurveto
          -1 hlineto
          -3 -11 110 20 7 0 13 8 3 hvcurveto
          110 47 4 4 131 63 rlineto
          15 7 2 15 13 vvcurveto
          15 -5 6 -16 3 vhcurveto
          -16 8 -10 -5 -223 -96 rrcurveto
          -3 -10 -3 -1 -4 hvcurveto
          -4 hlineto
          -8 -5 12 -9 hhcurveto
          -44 -15 -15 -43 -23 16 -14 1 -23 hvcurveto
          3 -24 9 -119 -26 vvcurveto
          -15 vlineto
          -24 -21 -7 -22 vvcurveto
          -26 18 4 3 -11 vhcurveto
          7 -27 -4 -18 1 -31 3 -53 6 -45 13 -53 rrcurveto
          44 762 rmoveto
          -29 35 -35 27 39 24 37 37 vhcurveto
          5 vlineto
          25 -19 -20 24 -33 hhcurveto
          -27 -26 -35 -29 hvcurveto
          endchar
        </CharString>
        <CharString name="Egrave">
          78 22 rmoveto
          -17 13 5 -6 20 hhcurveto
          82 65 124 59 38 hvcurveto
          24 32 78 80 32 vvcurveto
          11 -14 14 -7 3 vhcurveto
          -5 3 -17 1 -4 -4 rrcurveto
          -3 -13 -15 -5 -5 hvcurveto
          -125 -155 -30 -41 -5 -7 rrcurveto
          -7 -5 -15 -14 -1 hhcurveto
          -4 hlineto
          48 -10 47 48 vvcurveto
          -1 11 3 27 -1 1 156 139 rcurveline
          15 11 6 23 16 vvcurveto
          16 -14 18 -15 -2 -117 -97 -21 -29 vhcurveto
          -1 -1 0 0 0 vvcurveto
          -1 hlineto
          -3 -11 110 20 7 0 13 8 3 hvcurveto
          110 47 4 4 131 63 rlineto
          15 7 2 15 13 vvcurveto
          15 -5 6 -16 3 vhcurveto
          -16 8 -10 -5 -223 -96 rrcurveto
          -3 -10 -3 -1 -4 hvcurveto
          -4 hlineto
          -8 -5 12 -9 hhcurveto
          -44 -15 -15 -43 -23 16 -14 1 -23 hvcurveto
          3 -24 9 -119 -26 vvcurveto
          -15 vlineto
          -24 -21 -7 -22 vvcurveto
          -26 18 4 3 -11 vhcurveto
          7 -27 -4 -18 1 -31 3 -53 6 -45 13 -53 rrcurveto
          146 747 rmoveto
          8 63 -56 3 -39 54 -21 15 -19 -7 -15 -20 -15 -21 20 -18 14 -14 22 -25 72 -77 29 47 rrcurveto
          endchar
        </CharString>
        <CharString name="Emacron">
          78 22 rmoveto
          -17 13 5 -6 20 hhcurveto
          82 65 124 59 38 hvcurveto
          24 32 78 80 32 vvcurveto
          11 -14 14 -7 3 vhcurveto
          -5 3 -17 1 -4 -4 rrcurveto
          -3 -13 -15 -5 -5 hvcurveto
          -125 -155 -30 -41 -5 -7 rrcurveto
          -7 -5 -15 -14 -1 hhcurveto
          -4 hlineto
          48 -10 47 48 vvcurveto
          -1 11 3 27 -1 1 156 139 rcurveline
          15 11 6 23 16 vvcurveto
          16 -14 18 -15 -2 -117 -97 -21 -29 vhcurveto
          -1 -1 0 0 0 vvcurveto
          -1 hlineto
          -3 -11 110 20 7 0 13 8 3 hvcurveto
          110 47 4 4 131 63 rlineto
          15 7 2 15 13 vvcurveto
          15 -5 6 -16 3 vhcurveto
          -16 8 -10 -5 -223 -96 rrcurveto
          -3 -10 -3 -1 -4 hvcurveto
          -4 hlineto
          -8 -5 12 -9 hhcurveto
          -44 -15 -15 -43 -23 16 -14 1 -23 hvcurveto
          3 -24 9 -119 -26 vvcurveto
          -15 vlineto
          -24 -21 -7 -22 vvcurveto
          -26 18 4 3 -11 vhcurveto
          7 -27 -4 -18 1 -31 3 -53 6 -45 13 -53 rrcurveto
          -38 752 rmoveto
          -19 21 -12 17 vhcurveto
          247 27 rlineto
          11 -6 40 27 11 vvcurveto
          27 -24 5 -23 vhcurveto
          -251 -25 rlineto
          -19 -4 -19 -8 -23 vvcurveto
          endchar
        </CharString>
        <CharString name="Eogonek">
          78 22 rmoveto
          -17 13 5 -6 20 hhcurveto
          41 37 32 37 31 hvcurveto
          2 3 2 3 3 3 2 -28 9 -23 15 -18 rrcurveto
          -21 18 25 -10 33 hhcurveto
          119 12 -21 183 -64 -89 -11 -29 -29 -15 -19 19 -7 25 0 27 7 30 7 29 14 34 21 39 6 7 rcurveline
          4 5 rlineto
          23 28 19 28 16 vvcurveto
          11 -14 14 -7 3 vhcurveto
          -5 3 -17 1 -4 -4 rrcurveto
          -3 -13 -15 -5 -5 hvcurveto
          -125 -155 -30 -41 -5 -7 rrcurveto
          -7 -5 -15 -14 -1 hhcurveto
          -4 hlineto
          48 -10 47 48 vvcurveto
          10 vlineto
          9 1 8 7 vvcurveto
          5 vlineto
          156 139 rlineto
          15 11 6 23 16 vvcurveto
          16 -14 18 -15 -2 -117 -97 -21 -29 vhcurveto
          -1 -1 rlineto
          -1 hlineto
          -3 -11 110 20 7 0 13 8 3 hvcurveto
          110 47 4 4 131 63 rlineto
          15 7 2 15 13 vvcurveto
          15 -5 6 -16 3 vhcurveto
          -16 8 -10 -5 -223 -96 rrcurveto
          -3 -10 -3 -1 -4 hvcurveto
          -4 hlineto
          -8 -5 12 -9 hhcurveto
          -44 -15 -15 -43 -23 16 -14 1 -23 hvcurveto
          3 -24 9 -119 -26 vvcurveto
          -15 vlineto
          -24 -21 -7 -22 vvcurveto
          -26 18 4 3 -11 vhcurveto
          7 -27 -4 -18 1 -31 3 -53 6 -45 13 -53 rrcurveto
          endchar
        </CharString>
        <CharString name="Eth">
          100 52 259 rmoveto
          -19 62 -18 17 vhcurveto
          2 -80 hlineto
          -23 -1 -27 13 -20 vhcurveto
          1 -1 8 -5 -3 -11 -13 -8 -12 vvcurveto
          -20 14 -12 20 24 8 7 19 19 vhcurveto
          190 189 rlineto
          55 55 30 81 76 vvcurveto
          168 -143 12 -132 5 vhcurveto
          27 5 -35 15 -21 hhcurveto
          -40 -1 -25 -37 3 hvcurveto
          -4 -5 -101 -50 -3 -5 -4 -9 -7 -4 rlinecurve
          -30 vlineto
          -5 15 -3 3 -4 vhcurveto
          16 hlineto
          35 22 29 26 hhcurveto
          -73 -1 -72 -1 -73 vhcurveto
          -2 hlineto
          -18 -5 -61 1 -25 vvcurveto
          174 278 rmoveto
          7 8 26 1 4 hhcurveto
          87 73 -36 -93 -99 -81 -79 -62 -65 hvcurveto
          -13 -13 -35 -30 -3 -3 -4 -3 rcurveline
          114 vlineto
          36 6 rlineto
          11 -6 40 27 11 vvcurveto
          27 -24 5 -23 vhcurveto
          -40 -6 rlineto
          endchar
        </CharString>
        <CharString name="Euro">
          112 7 336 rmoveto
          -24 3 39 -10 20 hhcurveto
          27 9 25 7 27 7 -3 -16 -1 -18 -3 -23 -35 -12 -29 -16 -24 -24 rrcurveto
          -25 29 -15 23 vhcurveto
          8 1 9 0 8 3 -3 -27 rcurveline
          -24 vlineto
          -60 16 -46 60 -23 vhcurveto
          5 hlineto
          188 142 172 13 -3 hvcurveto
          2 vlineto
          21 -21 19 -19 -23 -64 -105 -46 -167 vhcurveto
          -1 -5 -2 -3 -4 hhcurveto
          -27 3 46 18 hvcurveto
          5 1 13 3 vvcurveto
          7 51 48 21 47 23 49 8 rlinecurve
          5 3 13 8 3 3 3 3 8 21 1 5 rrcurveto
          20 -3 -27 5 -17 hhcurveto
          -23 -10 -3 -9 -29 hvcurveto
          -19 -9 -18 -7 -18 -5 8 52 rcurveline
          39 11 40 10 40 15 rrcurveto
          15 7 10 17 17 vvcurveto
          11 -24 12 -10 vhcurveto
          -5 hlineto
          -36 -8 -31 -6 -27 -7 8 51 rcurveline
          38 5 19 51 44 40 6 -43 37 hhcurveto
          23 12 20 17 13 0 -2 -13 12 hvcurveto
          32 -37 -27 14 -48 hhcurveto
          -109 -22 -125 -82 -24 hvcurveto
          -2 vlineto
          -3 -1 -3 -1 -7 vhcurveto
          -53 -12 -32 -9 -32 -12 -19 -5 -18 -8 3 -25 rrcurveto
          endchar
        </CharString>
        <CharString name="F">
          4 34 249 rmoveto
          -16 25 -3 -11 vvcurveto
          25 -197 rlineto
          -16 3 24 -7 11 hhcurveto
          28 23 20 32 -4 hvcurveto
          -21 164 rlineto
          1 -1 5 3 vvcurveto
          7 -1 2 7 4 vhcurveto
          105 55 3 5 8 0 5 3 rlinecurve
          47 23 94 36 61 vvcurveto
          7 -17 4 -5 -9 -3 0 -4 -9 vhcurveto
          -233 -110 rlineto
          -15 37 2 41 40 3 1 15 4 vvcurveto
          13 16 30 9 79 55 34 21 48 10 11 53 rrcurveto
          2 vlineto
          17 -7 2 -13 -25 -20 -9 -12 -23 vhcurveto
          -21 -13 -95 -52 -19 -11 rrcurveto
          -5 hlineto
          17 -15 -13 13 -23 hhcurveto
          -29 -8 -9 -28 hvcurveto
          -79 25 -80 -79 -21 -17 -6 -24 vvcurveto
          endchar
        </CharString>
        <CharString name="G">
          78 374 -87 rmoveto
          -19 4 21 -15 20 hhcurveto
          19 16 22 19 hvcurveto
          2 vlineto
          4 -11 46 -3 5 vhcurveto
          -11 63 -1 68 64 vvcurveto
          53 12 54 -4 53 vhcurveto
          25 16 18 6 29 vvcurveto
          8 -26 12 -8 vhcurveto
          -38 -5 -54 -26 -30 -11 -34 -13 -53 8 -23 -20 rrcurveto
          -4 -5 -1 -11 -7 vvcurveto
          -31 39 -6 23 20 18 4 5 19 vhcurveto
          -4 vlineto
          -4 -22 -38 -8 -17 vhcurveto
          -8 -16 -48 -75 -11 -14 rrcurveto
          -17 -11 -22 -14 -19 hhcurveto
          -37 -29 32 32 -13 hvcurveto
          4 -1 19 4 vvcurveto
          51 20 39 15 47 vhcurveto
          45 77 57 74 71 57 rrcurveto
          22 14 59 -1 32 vvcurveto
          20 -15 9 -20 -3 vhcurveto
          -39 -3 -50 -12 -29 -31 -109 -115 rcurveline
          -8 -8 -40 -61 -11 -19 rrcurveto
          -27 -51 -21 -62 -57 vvcurveto
          -82 85 -74 80 49 34 34 35 31 vhcurveto
          19 21 4 45 24 14 3 -79 7 -95 20 -80 rrcurveto
          endchar
        </CharString>
        <CharString name="Gbreve">
          78 374 -87 rmoveto
          -19 4 21 -15 20 hhcurveto
          19 16 22 19 hvcurveto
          2 vlineto
          4 -11 46 -3 5 vhcurveto
          -11 63 -1 68 64 vvcurveto
          53 12 54 -4 53 vhcurveto
          25 16 18 6 29 vvcurveto
          8 -26 12 -8 vhcurveto
          -38 -5 -54 -26 -30 -11 -34 -13 -53 8 -23 -20 rrcurveto
          -4 -5 -1 -11 -7 vvcurveto
          -31 39 -6 23 20 18 4 5 19 vhcurveto
          -4 vlineto
          -4 -22 -38 -8 -17 vhcurveto
          -8 -16 -48 -75 -11 -14 rrcurveto
          -17 -11 -22 -14 -19 hhcurveto
          -37 -29 32 32 -13 hvcurveto
          4 -1 19 4 vvcurveto
          51 20 39 15 47 vhcurveto
          45 77 57 74 71 57 rrcurveto
          22 14 59 -1 32 vvcurveto
          20 -15 9 -20 -3 vhcurveto
          -39 -3 -50 -12 -29 -31 -109 -115 rcurveline
          -8 -8 -40 -61 -11 -19 rrcurveto
          -27 -51 -21 -62 -57 vvcurveto
          -82 85 -74 80 49 34 34 35 31 vhcurveto
          19 21 4 45 24 14 3 -79 7 -95 20 -80 rrcurveto
          -116 697 rmoveto
          97 -8 18 80 -11 60 -16 -85 -138 -29 -27 105 -15 -15 -39 -97 131 -11 rrcurveto
          endchar
        </CharString>
        <CharString name="Gcircumflex">
          78 374 -87 rmoveto
          -19 4 21 -15 20 hhcurveto
          19 16 22 19 hvcurveto
          2 vlineto
          4 -11 46 -3 5 vhcurveto
          -11 63 -1 68 64 vvcurveto
          53 12 54 -4 53 vhcurveto
          25 16 18 6 29 vvcurveto
          8 -26 12 -8 vhcurveto
          -38 -5 -54 -26 -30 -11 -34 -13 -53 8 -23 -20 rrcurveto
          -4 -5 -1 -11 -7 vvcurveto
          -31 39 -6 23 20 18 4 5 19 vhcurveto
          -4 vlineto
          -4 -22 -38 -8 -17 vhcurveto
          -8 -16 -48 -75 -11 -14 rrcurveto
          -17 -11 -22 -14 -19 hhcurveto
          -37 -29 32 32 -13 hvcurveto
          4 -1 19 4 vvcurveto
          51 20 39 15 47 vhcurveto
          45 77 57 74 71 57 rrcurveto
          22 14 59 -1 32 vvcurveto
          20 -15 9 -20 -3 vhcurveto
          -39 -3 -50 -12 -29 -31 -109 -115 rcurveline
          -8 -8 -40 -61 -11 -19 rrcurveto
          -27 -51 -21 -62 -57 vvcurveto
          -82 85 -74 80 49 34 34 35 31 vhcurveto
          19 21 4 45 24 14 3 -79 7 -95 20 -80 rrcurveto
          -261 762 rmoveto
          -18 -10 40 -13 16 hhcurveto
          4 15 5 3 3 hvcurveto
          61 95 4 22 8 10 4 3 rcurveline
          67 -99 rlineto
          -11 7 15 -8 17 hhcurveto
          20 13 4 15 7 0 1 -4 7 hvcurveto
          -8 11 -34 54 -8 10 rrcurveto
          1 -6 7 -1 1 vhcurveto
          -8 11 -44 62 -8 13 rrcurveto
          8 -8 -7 1 -11 hhcurveto
          -13 -17 0 -11 -5 hvcurveto
          -19 -45 rlineto
          endchar
        </CharString>
        <CharString name="Gcommaaccent">
          78 374 -87 rmoveto
          -19 4 21 -15 20 hhcurveto
          19 16 22 19 hvcurveto
          2 vlineto
          4 -11 46 -3 5 vhcurveto
          -11 63 -1 68 64 vvcurveto
          53 12 54 -4 53 vhcurveto
          25 16 18 6 29 vvcurveto
          8 -26 12 -8 vhcurveto
          -38 -5 -54 -26 -30 -11 -34 -13 -53 8 -23 -20 rrcurveto
          -4 -5 -1 -11 -7 vvcurveto
          -31 39 -6 23 20 18 4 5 19 vhcurveto
          -4 vlineto
          -4 -22 -38 -8 -17 vhcurveto
          -8 -16 -48 -75 -11 -14 rrcurveto
          -17 -11 -22 -14 -19 hhcurveto
          -37 -29 32 32 -13 hvcurveto
          4 -1 19 4 vvcurveto
          51 20 39 15 47 vhcurveto
          45 77 57 74 71 57 rrcurveto
          22 14 59 -1 32 vvcurveto
          20 -15 9 -20 -3 vhcurveto
          -39 -3 -50 -12 -29 -31 -109 -115 rcurveline
          -8 -8 -40 -61 -11 -19 rrcurveto
          -27 -51 -21 -62 -57 vvcurveto
          -82 85 -74 80 49 34 34 35 31 vhcurveto
          19 21 4 45 24 14 3 -79 7 -95 20 -80 rrcurveto
          -121 -94 rmoveto
          50 -8 -4 50 5 66 rrcurveto
          1 1 0 9 4 vvcurveto
          27 -17 10 -25 -33 -36 -25 -22 38 vhcurveto
          57 -22 -74 -61 38 -29 rrcurveto
          endchar
        </CharString>
        <CharString name="Gdotaccent">
          78 374 -87 rmoveto
          -19 4 21 -15 20 hhcurveto
          19 16 22 19 hvcurveto
          2 vlineto
          4 -11 46 -3 5 vhcurveto
          -11 63 -1 68 64 vvcurveto
          53 12 54 -4 53 vhcurveto
          25 16 18 6 29 vvcurveto
          8 -26 12 -8 vhcurveto
          -38 -5 -54 -26 -30 -11 -34 -13 -53 8 -23 -20 rrcurveto
          -4 -5 -1 -11 -7 vvcurveto
          -31 39 -6 23 20 18 4 5 19 vhcurveto
          -4 vlineto
          -4 -22 -38 -8 -17 vhcurveto
          -8 -16 -48 -75 -11 -14 rrcurveto
          -17 -11 -22 -14 -19 hhcurveto
          -37 -29 32 32 -13 hvcurveto
          4 -1 19 4 vvcurveto
          51 20 39 15 47 vhcurveto
          45 77 57 74 71 57 rrcurveto
          22 14 59 -1 32 vvcurveto
          20 -15 9 -20 -3 vhcurveto
          -39 -3 -50 -12 -29 -31 -109 -115 rcurveline
          -8 -8 -40 -61 -11 -19 rrcurveto
          -27 -51 -21 -62 -57 vvcurveto
          -82 85 -74 80 49 34 34 35 31 vhcurveto
          19 21 4 45 24 14 3 -79 7 -95 20 -80 rrcurveto
          -174 796 rmoveto
          -29 35 -35 27 39 24 37 37 vhcurveto
          5 vlineto
          25 -19 -20 24 -33 hhcurveto
          -27 -26 -35 -29 hvcurveto
          endchar
        </CharString>
        <CharString name="H">
          -56 245 282 rmoveto
          -206 vlineto
          -36 28 -41 36 21 8 23 16 20 -1 11 -7 23 vhcurveto
          410 vlineto
          -1 7 -3 25 7 vvcurveto
          16 vlineto
          -3 27 -12 132 -2 27 rrcurveto
          29 -7 -13 23 -32 hhcurveto
          -15 -15 -8 -17 -3 0 -10 1 -1 hvcurveto
          -18 17 -146 -18 vvcurveto
          4 -56 1 -54 -56 -9 -1 -32 -9 vvcurveto
          -12 -7 -99 -20 -18 hhcurveto
          -7 -3 12 4 -1 hvcurveto
          -9 266 rlineto
          33 -1 -6 27 -39 hhcurveto
          -16 -8 -1 -13 -9 hvcurveto
          -17 vlineto
          -103 9 -101 -104 -15 -13 -5 -12 vvcurveto
          -16 18 -17 3 -19 vhcurveto
          7 -64 -2 -59 7 -63 rrcurveto
          -19 7 13 -10 19 hhcurveto
          39 -2 33 32 hvcurveto
          56 -3 51 55 vvcurveto
          3 hlineto
          endchar
        </CharString>
        <CharString name="Hcircumflex">
          -56 245 282 rmoveto
          -206 vlineto
          -36 28 -41 36 21 8 23 16 20 -1 11 -7 23 vhcurveto
          410 vlineto
          -1 7 -3 25 7 vvcurveto
          16 vlineto
          -3 27 -12 132 -2 27 rrcurveto
          29 -7 -13 23 -32 hhcurveto
          -15 -15 -8 -17 -3 0 -10 1 -1 hvcurveto
          -18 17 -146 -18 vvcurveto
          4 -56 1 -54 -56 -9 -1 -32 -9 vvcurveto
          -12 -7 -99 -20 -18 hhcurveto
          -7 -3 12 4 -1 hvcurveto
          -9 266 rlineto
          33 -1 -6 27 -39 hhcurveto
          -16 -8 -1 -13 -9 hvcurveto
          -17 vlineto
          -103 9 -101 -104 -15 -13 -5 -12 vvcurveto
          -16 18 -17 3 -19 vhcurveto
          7 -64 -2 -59 7 -63 rrcurveto
          -19 7 13 -10 19 hhcurveto
          39 -2 33 32 hvcurveto
          56 -3 51 55 vvcurveto
          3 hlineto
          -97 562 rmoveto
          -18 -10 40 -13 16 hhcurveto
          4 15 5 3 3 hvcurveto
          61 95 4 22 8 10 4 3 rcurveline
          67 -99 rlineto
          -11 7 15 -8 17 hhcurveto
          20 13 4 15 7 0 1 -4 7 hvcurveto
          -8 11 -34 54 -8 10 rrcurveto
          1 -6 7 -1 1 vhcurveto
          -8 11 -44 62 -8 13 rrcurveto
          8 -8 -7 1 -11 hhcurveto
          -13 -17 0 -11 -5 hvcurveto
          -19 -45 rlineto
          endchar
        </CharString>
        <CharString name="I">
          -269 23 505 rmoveto
          -62 vlineto
          -32 17 -269 -32 vvcurveto
          -29 0 -81 50 31 8 13 27 91 -16 100 -5 91 vhcurveto
          -5 75 11 77 -11 75 rrcurveto
          23 -3 -23 12 -21 hhcurveto
          -16 -6 -3 -15 -11 hvcurveto
          endchar
        </CharString>
        <CharString name="Iacute">
          -269 23 505 rmoveto
          -62 vlineto
          -32 17 -269 -32 vvcurveto
          -29 0 -81 50 31 8 13 27 91 -16 100 -5 91 vhcurveto
          -5 75 11 77 -11 75 rrcurveto
          23 -3 -23 12 -21 hhcurveto
          -16 -6 -3 -15 -11 hvcurveto
          -15 63 rmoveto
          27 -51 67 84 21 26 11 16 23 17 -16 24 -15 23 -17 6 -20 -16 -36 -59 -53 -1 8 -69 rrcurveto
          endchar
        </CharString>
        <CharString name="Ibreve">
          -269 23 505 rmoveto
          -62 vlineto
          -32 17 -269 -32 vvcurveto
          -29 0 -81 50 31 8 13 27 91 -16 100 -5 91 vhcurveto
          -5 75 11 77 -11 75 rrcurveto
          23 -3 -23 12 -21 hhcurveto
          -16 -6 -3 -15 -11 hvcurveto
          63 44 rmoveto
          97 -8 18 80 -11 60 -16 -85 -138 -29 -27 105 -15 -15 -39 -97 131 -11 rrcurveto
          endchar
        </CharString>
        <CharString name="Icircumflex">
          -269 23 505 rmoveto
          -62 vlineto
          -32 17 -269 -32 vvcurveto
          -29 0 -81 50 31 8 13 27 91 -16 100 -5 91 vhcurveto
          -5 75 11 77 -11 75 rrcurveto
          23 -3 -23 12 -21 hhcurveto
          -16 -6 -3 -15 -11 hvcurveto
          -82 109 rmoveto
          -18 -10 40 -13 16 hhcurveto
          4 15 5 3 3 hvcurveto
          61 95 4 22 8 10 4 3 rcurveline
          67 -99 rlineto
          -11 7 15 -8 17 hhcurveto
          20 13 4 15 7 0 1 -4 7 hvcurveto
          -8 11 -34 54 -8 10 rrcurveto
          1 -6 7 -1 1 vhcurveto
          -8 11 -44 62 -8 13 rrcurveto
          8 -8 -7 1 -11 hhcurveto
          -13 -17 0 -11 -5 hvcurveto
          -19 -45 rlineto
          endchar
        </CharString>
        <CharString name="Idieresis">
          -269 23 505 rmoveto
          -62 vlineto
          -32 17 -269 -32 vvcurveto
          -29 0 -81 50 31 8 13 27 91 -16 100 -5 91 vhcurveto
          -5 75 11 77 -11 75 rrcurveto
          23 -3 -23 12 -21 hhcurveto
          -16 -6 -3 -15 -11 hvcurveto
          -51 144 rmoveto
          -19 24 -19 17 25 17 21 23 vhcurveto
          3 vlineto
          15 -13 -12 14 -23 hhcurveto
          -19 -16 -19 -19 hvcurveto
          129 hmoveto
          -19 24 -19 17 25 17 21 23 vhcurveto
          3 vlineto
          15 -13 -12 14 -23 hhcurveto
          -19 -16 -19 -19 hvcurveto
          endchar
        </CharString>
        <CharString name="Idotaccent">
          -269 23 505 rmoveto
          -62 vlineto
          -32 17 -269 -32 vvcurveto
          -29 0 -81 50 31 8 13 27 91 -16 100 -5 91 vhcurveto
          -5 75 11 77 -11 75 rrcurveto
          23 -3 -23 12 -21 hhcurveto
          -16 -6 -3 -15 -11 hvcurveto
          -13 137 rmoveto
          -29 35 -35 27 39 24 37 37 vhcurveto
          5 vlineto
          25 -19 -20 24 -33 hhcurveto
          -27 -26 -35 -29 hvcurveto
          endchar
        </CharString>
        <CharString name="Igrave">
          -269 23 505 rmoveto
          -62 vlineto
          -32 17 -269 -32 vvcurveto
          -29 0 -81 50 31 8 13 27 91 -16 100 -5 91 vhcurveto
          -5 75 11 77 -11 75 rrcurveto
          23 -3 -23 12 -21 hhcurveto
          -16 -6 -3 -15 -11 hvcurveto
          131 42 rmoveto
          8 63 -56 3 -39 54 -21 15 -19 -7 -15 -20 -15 -21 20 -18 14 -14 22 -25 72 -77 29 47 rrcurveto
          endchar
        </CharString>
        <CharString name="Iogonek">
          -269 -11 -133 rmoveto
          -68 37 -45 65 vhcurveto
          119 12 -21 183 -64 -89 -11 -29 -29 -15 -19 19 -7 25 0 27 7 30 6 25 11 27 15 31 11 1 7 4 5 5 rrcurveto
          5 7 3 10 13 vvcurveto
          91 -16 100 -5 91 vhcurveto
          -1 19 -1 18 19 vvcurveto
          1 57 1 39 0 38 -5 37 rlinecurve
          23 -3 -23 12 -21 hhcurveto
          -16 -6 -3 -15 -11 hvcurveto
          -123 vlineto
          -32 17 -269 -32 vvcurveto
          -15 1 -27 5 -24 vhcurveto
          3 -9 -7 -2 -7 -3 -6 -5 rlinecurve
          -24 -19 -16 -46 -93 vvcurveto
          endchar
        </CharString>
        <CharString name="Itilde">
          -269 23 505 rmoveto
          -62 vlineto
          -32 17 -269 -32 vvcurveto
          -29 0 -81 50 31 8 13 27 91 -16 100 -5 91 vhcurveto
          -5 75 11 77 -11 75 rrcurveto
          23 -3 -23 12 -21 hhcurveto
          -16 -6 -3 -15 -11 hvcurveto
          -78 57 rmoveto
          -16 17 -10 9 vhcurveto
          20 17 88 27 hhcurveto
          35 -30 38 -58 47 3 rrcurveto
          39 41 74 57 19 -3 13 -15 -26 -7 -40 -24 -16 hvcurveto
          -7 -4 -9 -20 -9 hhcurveto
          -13 -5 12 7 -11 hvcurveto
          -57 72 rlineto
          11 -8 -8 0 -9 hhcurveto
          -49 -16 -21 -63 -18 -55 rrcurveto
          -1 -7 -1 -3 -7 vvcurveto
          endchar
        </CharString>
        <CharString name="J">
          -100 10 255 rmoveto
          -19 2 -12 16 -17 vhcurveto
          165 -185 3 -5 23 -14 7 -3 rlinecurve
          1 6 -1 3 hhcurveto
          65 -7 124 40 165 -12 159 3 167 hvcurveto
          20 -5 -21 7 -19 hhcurveto
          -17 -14 -8 -19 -4 hvcurveto
          -141 vlineto
          -115 5 -111 -115 -19 -1 -48 -4 vvcurveto
          -4 -4 -12 13 -5 10 -86 105 -19 16 rlinecurve
          13 -13 -6 38 -24 hhcurveto
          -21 -9 -20 -17 hvcurveto
          endchar
        </CharString>
        <CharString name="Jcircumflex">
          -100 10 255 rmoveto
          -19 2 -12 16 -17 vhcurveto
          165 -185 3 -5 23 -14 7 -3 rlinecurve
          1 6 -1 3 hhcurveto
          65 -7 124 40 165 -12 159 3 167 hvcurveto
          20 -5 -21 7 -19 hhcurveto
          -17 -14 -8 -19 -4 hvcurveto
          -141 vlineto
          -115 5 -111 -115 -19 -1 -48 -4 vvcurveto
          -4 -4 -12 13 -5 10 -86 105 -19 16 rlinecurve
          13 -13 -6 38 -24 hhcurveto
          -21 -9 -20 -17 hvcurveto
          87 489 rmoveto
          -18 -10 40 -13 16 hhcurveto
          4 15 5 3 3 hvcurveto
          61 95 4 22 8 10 4 3 rcurveline
          67 -99 rlineto
          -11 7 15 -8 17 hhcurveto
          20 13 4 15 7 0 1 -4 7 hvcurveto
          -8 11 -34 54 -8 10 rrcurveto
          1 -6 7 -1 1 vhcurveto
          -8 11 -44 62 -8 13 rrcurveto
          8 -8 -7 1 -11 hhcurveto
          -13 -17 0 -11 -5 hvcurveto
          -19 -45 rlineto
          endchar
        </CharString>
        <CharString name="K">
          169 92 38 rmoveto
          -16 4 23 -22 16 hhcurveto
          31 12 24 27 hvcurveto
          29 -13 28 29 vvcurveto
          6 vlineto
          148 30 72 2 39 1 46 0 28 1 rlinecurve
          13 hlineto
          6 38 7 2 7 hvcurveto
          13 7 13 19 -5 15 rrcurveto
          19 -5 -22 3 -15 hhcurveto
          -9 hlineto
          -5 -29 -4 -4 hhcurveto
          -119 -3 -91 6 -115 -29 rrcurveto
          -4 hlineto
          13 26 92 109 4 15 19 12 7 11 rlinecurve
          40 67 27 46 21 74 rrcurveto
          8 vlineto
          1 1 3 7 1 vvcurveto
          10 -5 31 -19 vhcurveto
          -46 hlineto
          -8 -1 -6 -35 -1 vvcurveto
          -2 -7 -10 -31 -5 vvcurveto
          -33 -89 -52 -70 -68 -68 -2 -1 rcurveline
          -9 -6 110 30 -3 hvcurveto
          -3 41 5 51 -11 39 -1 4 -9 18 -3 3 rrcurveto
          8 -8 -27 9 -7 hhcurveto
          -17 3 -16 -23 -16 vvcurveto
          -2 vlineto
          29 -282 rlineto
          -4 -32 12 -30 -31 -19 -17 -10 -19 vvcurveto
          -15 15 -16 15 -7 vhcurveto
          endchar
        </CharString>
        <CharString name="Kcommaaccent">
          169 92 38 rmoveto
          -16 4 23 -22 16 hhcurveto
          31 12 24 27 hvcurveto
          29 -13 28 29 vvcurveto
          6 vlineto
          148 30 72 2 39 1 46 0 28 1 rlinecurve
          13 hlineto
          6 38 7 2 7 hvcurveto
          13 7 13 19 -5 15 rrcurveto
          19 -5 -22 3 -15 hhcurveto
          -9 hlineto
          -5 -29 -4 -4 hhcurveto
          -119 -3 -91 6 -115 -29 rrcurveto
          -4 hlineto
          13 26 92 109 4 15 19 12 7 11 rlinecurve
          40 67 27 46 21 74 rrcurveto
          8 vlineto
          1 1 3 7 1 vvcurveto
          10 -5 31 -19 vhcurveto
          -46 hlineto
          -8 -1 -6 -35 -1 vvcurveto
          -2 -7 -10 -31 -5 vvcurveto
          -33 -89 -52 -70 -68 -68 -2 -1 rcurveline
          -9 -6 110 30 -3 hvcurveto
          -3 41 5 51 -11 39 -1 4 -9 18 -3 3 rrcurveto
          8 -8 -27 9 -7 hhcurveto
          -17 3 -16 -23 -16 vvcurveto
          -2 vlineto
          29 -282 rlineto
          -4 -32 12 -30 -31 -19 -17 -10 -19 vvcurveto
          -15 15 -16 15 -7 vhcurveto
          222 -324 rmoveto
          50 -8 -4 50 5 66 rrcurveto
          1 1 0 9 4 vvcurveto
          27 -17 10 -25 -33 -36 -25 -22 38 vhcurveto
          57 -22 -74 -61 38 -29 rrcurveto
          endchar
        </CharString>
        <CharString name="L">
          24 32 155 rmoveto
          -45 -14 -110 73 vhcurveto
          9 hlineto
          60 28 52 39 64 17 5 4 rcurveline
          47 12 45 20 43 23 rrcurveto
          17 11 8 14 15 vvcurveto
          23 -34 1 -13 -11 -6 1 -9 -11 vhcurveto
          -237 -94 rlineto
          -8 hlineto
          -1 -3 15 7 hvcurveto
          42 vlineto
          88 4 84 87 vvcurveto
          33 vlineto
          11 -4 87 11 vvcurveto
          48 6 58 -64 -19 -12 -15 -19 vhcurveto
          -60 9 -60 -60 -104 -5 -100 -103 vvcurveto
          endchar
        </CharString>
        <CharString name="Lacute">
          24 32 155 rmoveto
          -45 -14 -110 73 vhcurveto
          9 hlineto
          60 28 52 39 64 17 5 4 rcurveline
          47 12 45 20 43 23 rrcurveto
          17 11 8 14 15 vvcurveto
          23 -34 1 -13 -11 -6 1 -9 -11 vhcurveto
          -237 -94 rlineto
          -8 hlineto
          -1 -3 15 7 hvcurveto
          42 vlineto
          88 4 84 87 vvcurveto
          33 vlineto
          11 -4 87 11 vvcurveto
          48 6 58 -64 -19 -12 -15 -19 vhcurveto
          -60 9 -60 -60 -104 -5 -100 -103 vvcurveto
          78 638 rmoveto
          27 -51 67 84 21 26 11 16 23 17 -16 24 -15 23 -17 6 -20 -16 -36 -59 -53 -1 8 -69 rrcurveto
          endchar
        </CharString>
        <CharString name="Lcommaaccent">
          24 32 155 rmoveto
          -45 -14 -110 73 vhcurveto
          9 hlineto
          60 28 52 39 64 17 5 4 rcurveline
          47 12 45 20 43 23 rrcurveto
          17 11 8 14 15 vvcurveto
          23 -34 1 -13 -11 -6 1 -9 -11 vhcurveto
          -237 -94 rlineto
          -8 hlineto
          -1 -3 15 7 hvcurveto
          42 vlineto
          88 4 84 87 vvcurveto
          33 vlineto
          11 -4 87 11 vvcurveto
          48 6 58 -64 -19 -12 -15 -19 vhcurveto
          -60 9 -60 -60 -104 -5 -100 -103 vvcurveto
          194 -336 rmoveto
          50 -8 -4 50 5 66 rrcurveto
          1 1 0 9 4 vvcurveto
          27 -17 10 -25 -33 -36 -25 -22 38 vhcurveto
          57 -22 -74 -61 38 -29 rrcurveto
          endchar
        </CharString>
        <CharString name="Ldot">
          24 32 155 rmoveto
          -45 -14 -110 73 vhcurveto
          9 hlineto
          60 28 52 39 64 17 5 4 rcurveline
          47 12 45 20 43 23 rrcurveto
          17 11 8 14 15 vvcurveto
          23 -34 1 -13 -11 -6 1 -9 -11 vhcurveto
          -237 -94 rlineto
          -8 hlineto
          -1 -3 15 7 hvcurveto
          42 vlineto
          88 4 84 87 vvcurveto
          33 vlineto
          11 -4 87 11 vvcurveto
          48 6 58 -64 -19 -12 -15 -19 vhcurveto
          -60 9 -60 -60 -104 -5 -100 -103 vvcurveto
          150 129 rmoveto
          -19 24 -19 17 25 17 21 23 vhcurveto
          3 vlineto
          15 -13 -12 14 -23 hhcurveto
          -19 -16 -19 -19 hvcurveto
          endchar
        </CharString>
        <CharString name="Lslash">
          24 -48 287 rmoveto
          -19 21 -12 17 vhcurveto
          43 4 rlineto
          -1 -35 0 -35 -35 vvcurveto
          -45 -14 -110 73 vhcurveto
          9 hlineto
          60 28 52 39 64 17 5 4 rcurveline
          47 12 45 20 43 23 rrcurveto
          17 11 8 14 15 vvcurveto
          23 -34 1 -13 -11 -6 1 -9 -11 vhcurveto
          -237 -94 rlineto
          -8 hlineto
          -1 -3 15 7 hvcurveto
          42 vlineto
          34 0 34 1 33 vhcurveto
          119 13 rlineto
          11 -6 40 27 11 vvcurveto
          27 -24 5 -23 vhcurveto
          -121 -12 rlineto
          1 31 0 31 31 vvcurveto
          33 vlineto
          11 -4 87 11 vvcurveto
          37 vlineto
          36 -11 33 -47 -19 -12 -15 -19 vhcurveto
          -60 9 -60 -60 vvcurveto
          -46 -1 -45 -1 -45 vhcurveto
          -45 -4 rlineto
          -19 -4 -19 -8 -23 vvcurveto
          endchar
        </CharString>
        <CharString name="M">
          162 34 30 rmoveto
          -23 9 13 -7 25 hhcurveto
          19 9 14 16 5 hvcurveto
          13 1 62 13 81 -5 77 81 vvcurveto
          86 vlineto
          21 -42 127 -202 3 -16 29 -20 14 2 rlinecurve
          40 3 -1 45 3 28 72 290 rcurveline
          5 6 16 -48 -7 -66 3 -47 rlinecurve
          -9 vlineto
          30 -228 16 -55 1 -4 16 -14 4 -3 rlinecurve
          1 11 -1 4 hhcurveto
          33 6 17 31 5 hvcurveto
          -5 11 -14 49 -2 12 -5 21 -14 104 -3 23 rrcurveto
          4 vlineto
          25 -17 211 26 vvcurveto
          48 -3 13 95 -73 hhcurveto
          -8 hlineto
          -45 -27 6 -58 -24 -38 -85 -299 rcurveline
          -4 -9 rlineto
          1 -4 2 -1 1 vhcurveto
          -4 5 -11 18 -1 3 -144 278 rcurveline
          19 -11 -17 16 -23 hhcurveto
          -23 -9 -14 -21 -5 hvcurveto
          -20 -1 -101 -22 vvcurveto
          -148 6 -147 3 -148 vhcurveto
          endchar
        </CharString>
        <CharString name="N">
          22 23 38 rmoveto
          -23 11 13 -15 27 hhcurveto
          15 16 14 16 3 hvcurveto
          -4 128 5 129 7 127 5 -4 rcurveline
          -3 42 -57 16 -24 vhcurveto
          -3 1 2 -6 1 hhcurveto
          161 -229 rlineto
          -5 5 21 -15 8 hhcurveto
          29 17 19 28 12 -15 27 -1 11 hvcurveto
          -34 223 rlineto
          18 vlineto
          -16 271 -6 7 4 vvcurveto
          35 -3 10 54 -51 hhcurveto
          -13 -9 -4 -9 -5 hvcurveto
          -50 vlineto
          -144 12 -150 17 -141 vhcurveto
          -2 hlineto
          -2 -2 1 3 -3 hvcurveto
          -58 84 -4 5 rlineto
          0 -40 61 -16 24 vhcurveto
          -1 -3 7 1 hvcurveto
          -17 28 -25 27 -16 29 rrcurveto
          44 -3 3 45 -56 hhcurveto
          -15 -11 -7 -15 -4 hvcurveto
          5 -163 -17 -165 -163 vvcurveto
          endchar
        </CharString>
        <CharString name="Nacute">
          22 23 38 rmoveto
          -23 11 13 -15 27 hhcurveto
          15 16 14 16 3 hvcurveto
          -4 128 5 129 7 127 5 -4 rcurveline
          -3 42 -57 16 -24 vhcurveto
          -3 1 2 -6 1 hhcurveto
          161 -229 rlineto
          -5 5 21 -15 8 hhcurveto
          29 17 19 28 12 -15 27 -1 11 hvcurveto
          -34 223 rlineto
          18 vlineto
          -16 271 -6 7 4 vvcurveto
          35 -3 10 54 -51 hhcurveto
          -13 -9 -4 -9 -5 hvcurveto
          -50 vlineto
          -144 12 -150 17 -141 vhcurveto
          -2 hlineto
          -2 -2 1 3 -3 hvcurveto
          -58 84 -4 5 rlineto
          0 -40 61 -16 24 vhcurveto
          -1 -3 7 1 hvcurveto
          -17 28 -25 27 -16 29 rrcurveto
          44 -3 3 45 -56 hhcurveto
          -15 -11 -7 -15 -4 hvcurveto
          5 -163 -17 -165 -163 vvcurveto
          94 637 rmoveto
          27 -51 67 84 21 26 11 16 23 17 -16 24 -15 23 -17 6 -20 -16 -36 -59 -53 -1 8 -69 rrcurveto
          endchar
        </CharString>
        <CharString name="Ncaron">
          22 23 38 rmoveto
          -23 11 13 -15 27 hhcurveto
          15 16 14 16 3 hvcurveto
          -4 128 5 129 7 127 5 -4 rcurveline
          -3 42 -57 16 -24 vhcurveto
          -3 1 2 -6 1 hhcurveto
          161 -229 rlineto
          -5 5 21 -15 8 hhcurveto
          29 17 19 28 12 -15 27 -1 11 hvcurveto
          -34 223 rlineto
          18 vlineto
          -16 271 -6 7 4 vvcurveto
          35 -3 10 54 -51 hhcurveto
          -13 -9 -4 -9 -5 hvcurveto
          -50 vlineto
          -144 12 -150 17 -141 vhcurveto
          -2 hlineto
          -2 -2 1 3 -3 hvcurveto
          -58 84 -4 5 rlineto
          0 -40 61 -16 24 vhcurveto
          -1 -3 7 1 hvcurveto
          -17 28 -25 27 -16 29 rrcurveto
          44 -3 3 45 -56 hhcurveto
          -15 -11 -7 -15 -4 hvcurveto
          5 -163 -17 -165 -163 vvcurveto
          111 654 rmoveto
          3 -4 11 -20 3 -5 rrcurveto
          -7 5 16 0 12 hhcurveto
          11 5 1 5 7 hvcurveto
          56 55 rlineto
          1 5 5 1 hvcurveto
          7 5 35 36 4 6 rrcurveto
          4 5 0 1 4 vvcurveto
          11 -11 1 -19 -17 -12 -4 -8 -7 vhcurveto
          -62 -63 -4 2 -7 7 -4 13 -56 61 rlinecurve
          3 -3 -14 2 -3 hhcurveto
          -15 -37 -8 -12 9 hvcurveto
          endchar
        </CharString>
        <CharString name="Ncommaaccent">
          22 23 38 rmoveto
          -23 11 13 -15 27 hhcurveto
          15 16 14 16 3 hvcurveto
          -4 128 5 129 7 127 5 -4 rcurveline
          -3 42 -57 16 -24 vhcurveto
          -3 1 2 -6 1 hhcurveto
          161 -229 rlineto
          -5 5 21 -15 8 hhcurveto
          29 17 19 28 12 -15 27 -1 11 hvcurveto
          -34 223 rlineto
          18 vlineto
          -16 271 -6 7 4 vvcurveto
          35 -3 10 54 -51 hhcurveto
          -13 -9 -4 -9 -5 hvcurveto
          -50 vlineto
          -144 12 -150 17 -141 vhcurveto
          -2 hlineto
          -2 -2 1 3 -3 hvcurveto
          -58 84 -4 5 rlineto
          0 -40 61 -16 24 vhcurveto
          -1 -3 7 1 hvcurveto
          -17 28 -25 27 -16 29 rrcurveto
          44 -3 3 45 -56 hhcurveto
          -15 -11 -7 -15 -4 hvcurveto
          5 -163 -17 -165 -163 vvcurveto
          202 -306 rmoveto
          50 -8 -4 50 5 66 rrcurveto
          1 1 0 9 4 vvcurveto
          27 -17 10 -25 -33 -36 -25 -22 38 vhcurveto
          57 -22 -74 -61 38 -29 rrcurveto
          endchar
        </CharString>
        <CharString name="Ntilde">
          22 23 38 rmoveto
          -23 11 13 -15 27 hhcurveto
          15 16 14 16 3 hvcurveto
          -4 128 5 129 7 127 5 -4 rcurveline
          -3 42 -57 16 -24 vhcurveto
          -3 1 2 -6 1 hhcurveto
          161 -229 rlineto
          -5 5 21 -15 8 hhcurveto
          29 17 19 28 12 -15 27 -1 11 hvcurveto
          -34 223 rlineto
          18 vlineto
          -16 271 -6 7 4 vvcurveto
          35 -3 10 54 -51 hhcurveto
          -13 -9 -4 -9 -5 hvcurveto
          -50 vlineto
          -144 12 -150 17 -141 vhcurveto
          -2 hlineto
          -2 -2 1 3 -3 hvcurveto
          -58 84 -4 5 rlineto
          0 -40 61 -16 24 vhcurveto
          -1 -3 7 1 hvcurveto
          -17 28 -25 27 -16 29 rrcurveto
          44 -3 3 45 -56 hhcurveto
          -15 -11 -7 -15 -4 hvcurveto
          5 -163 -17 -165 -163 vvcurveto
          -28 656 rmoveto
          -16 17 -10 9 vhcurveto
          20 17 88 27 hhcurveto
          35 -30 38 -58 47 3 rrcurveto
          39 41 74 57 19 -3 13 -15 -26 -7 -40 -24 -16 hvcurveto
          -7 -4 -9 -20 -9 hhcurveto
          -13 -5 12 7 -11 hvcurveto
          -57 72 rlineto
          11 -8 -8 0 -9 hhcurveto
          -49 -16 -21 -63 -18 -55 rrcurveto
          -1 -7 -1 -3 -7 vvcurveto
          endchar
        </CharString>
        <CharString name="O">
          -93 22 177 rmoveto
          -75 49 -102 88 105 41 158 81 56 2 178 -19 53 vhcurveto
          5 vlineto
          52 -22 -26 84 -72 hhcurveto
          -56 -3 -30 -11 -8 -36 -69 -129 21 -286 -4 -25 rrcurveto
          97 -67 rmoveto
          -45 235 42 177 55 68 rrcurveto
          1 3 6 1 1 vhcurveto
          43 -35 11 -244 -51 vvcurveto
          -73 -12 -68 -56 -51 vhcurveto
          -8 hlineto
          -17 -14 19 15 -3 hvcurveto
          endchar
        </CharString>
        <CharString name="OE">
          215 293 25 rmoveto
          -17 13 5 -6 20 hhcurveto
          82 65 124 59 38 hvcurveto
          24 32 78 80 32 vvcurveto
          11 -14 14 -7 3 vhcurveto
          -5 3 -17 1 -4 -4 rrcurveto
          -3 -13 -15 -5 -5 hvcurveto
          -125 -155 -30 -41 -5 -7 rrcurveto
          -7 -5 -15 -14 -1 hhcurveto
          -4 hlineto
          48 -10 47 48 vvcurveto
          10 vlineto
          9 1 8 7 vvcurveto
          5 vlineto
          156 139 rlineto
          15 11 6 23 16 vvcurveto
          16 -14 18 -15 -2 -117 -97 -21 -29 vhcurveto
          -1 -1 rlineto
          -1 hlineto
          -3 -11 110 20 7 0 13 8 3 hvcurveto
          110 47 4 4 131 63 rlineto
          15 7 2 15 13 vvcurveto
          15 -5 6 -16 3 vhcurveto
          -16 8 -10 -5 -223 -96 rrcurveto
          -3 -10 -3 -1 -4 hvcurveto
          -4 hlineto
          -8 -5 12 -9 hhcurveto
          -22 -15 -4 -9 -9 hvcurveto
          -6 -7 -9 13 -10 11 -12 9 rlinecurve
          9 -13 -15 5 -18 hhcurveto
          -56 -3 -30 -11 -8 -36 -69 -129 21 -286 -4 -25 rrcurveto
          -75 49 -102 88 52 37 40 49 23 vhcurveto
          6 13 1 -2 3 -23 5 -25 7 -27 rlinecurve
          -174 85 rmoveto
          -45 235 42 177 55 68 rrcurveto
          1 3 6 1 1 vhcurveto
          43 -35 11 -244 -51 vvcurveto
          -73 -12 -68 -56 -51 vhcurveto
          -8 hlineto
          -17 -14 19 15 -3 hvcurveto
          endchar
        </CharString>
        <CharString name="Oacute">
          -93 22 177 rmoveto
          -75 49 -102 88 105 41 158 81 56 2 178 -19 53 vhcurveto
          5 vlineto
          52 -22 -26 84 -72 hhcurveto
          -56 -3 -30 -11 -8 -36 -69 -129 21 -286 -4 -25 rrcurveto
          97 -67 rmoveto
          -45 235 42 177 55 68 rrcurveto
          1 3 6 1 1 vhcurveto
          43 -35 11 -244 -51 vvcurveto
          -73 -12 -68 -56 -51 vhcurveto
          -8 hlineto
          -17 -14 19 15 -3 hvcurveto
          -59 605 rmoveto
          27 -51 67 84 21 26 11 16 23 17 -16 24 -15 23 -17 6 -20 -16 -36 -59 -53 -1 8 -69 rrcurveto
          endchar
        </CharString>
        <CharString name="Obreve">
          -93 22 177 rmoveto
          -75 49 -102 88 105 41 158 81 56 2 178 -19 53 vhcurveto
          5 vlineto
          52 -22 -26 84 -72 hhcurveto
          -56 -3 -30 -11 -8 -36 -69 -129 21 -286 -4 -25 rrcurveto
          97 -67 rmoveto
          -45 235 42 177 55 68 rrcurveto
          1 3 6 1 1 vhcurveto
          43 -35 11 -244 -51 vvcurveto
          -73 -12 -68 -56 -51 vhcurveto
          -8 hlineto
          -17 -14 19 15 -3 hvcurveto
          27 592 rmoveto
          97 -8 18 80 -11 60 -16 -85 -138 -29 -27 105 -15 -15 -39 -97 131 -11 rrcurveto
          endchar
        </CharString>
        <CharString name="Ocircumflex">
          -93 22 177 rmoveto
          -75 49 -102 88 105 41 158 81 56 2 178 -19 53 vhcurveto
          5 vlineto
          52 -22 -26 84 -72 hhcurveto
          -56 -3 -30 -11 -8 -36 -69 -129 21 -286 -4 -25 rrcurveto
          97 -67 rmoveto
          -45 235 42 177 55 68 rrcurveto
          1 3 6 1 1 vhcurveto
          43 -35 11 -244 -51 vvcurveto
          -73 -12 -68 -56 -51 vhcurveto
          -8 hlineto
          -17 -14 19 15 -3 hvcurveto
          -111 631 rmoveto
          -18 -10 40 -13 16 hhcurveto
          4 15 5 3 3 hvcurveto
          61 95 4 22 8 10 4 3 rcurveline
          67 -99 rlineto
          -11 7 15 -8 17 hhcurveto
          20 13 4 15 7 0 1 -4 7 hvcurveto
          -8 11 -34 54 -8 10 rrcurveto
          1 -6 7 -1 1 vhcurveto
          -8 11 -44 62 -8 13 rrcurveto
          8 -8 -7 1 -11 hhcurveto
          -13 -17 0 -11 -5 hvcurveto
          -19 -45 rlineto
          endchar
        </CharString>
        <CharString name="Odieresis">
          -93 22 177 rmoveto
          -75 49 -102 88 105 41 158 81 56 2 178 -19 53 vhcurveto
          5 vlineto
          52 -22 -26 84 -72 hhcurveto
          -56 -3 -30 -11 -8 -36 -69 -129 21 -286 -4 -25 rrcurveto
          97 -67 rmoveto
          -45 235 42 177 55 68 rrcurveto
          1 3 6 1 1 vhcurveto
          43 -35 11 -244 -51 vvcurveto
          -73 -12 -68 -56 -51 vhcurveto
          -8 hlineto
          -17 -14 19 15 -3 hvcurveto
          -72 649 rmoveto
          -19 24 -19 17 25 17 21 23 vhcurveto
          3 vlineto
          15 -13 -12 14 -23 hhcurveto
          -19 -16 -19 -19 hvcurveto
          129 hmoveto
          -19 24 -19 17 25 17 21 23 vhcurveto
          3 vlineto
          15 -13 -12 14 -23 hhcurveto
          -19 -16 -19 -19 hvcurveto
          endchar
        </CharString>
        <CharString name="Ograve">
          -93 22 177 rmoveto
          -75 49 -102 88 105 41 158 81 56 2 178 -19 53 vhcurveto
          5 vlineto
          52 -22 -26 84 -72 hhcurveto
          -56 -3 -30 -11 -8 -36 -69 -129 21 -286 -4 -25 rrcurveto
          97 -67 rmoveto
          -45 235 42 177 55 68 rrcurveto
          1 3 6 1 1 vhcurveto
          43 -35 11 -244 -51 vvcurveto
          -73 -12 -68 -56 -51 vhcurveto
          -8 hlineto
          -17 -14 19 15 -3 hvcurveto
          104 610 rmoveto
          8 63 -56 3 -39 54 -21 15 -19 -7 -15 -20 -15 -21 20 -18 14 -14 22 -25 72 -77 29 47 rrcurveto
          endchar
        </CharString>
        <CharString name="Ohungarumlaut">
          -93 22 177 rmoveto
          -75 49 -102 88 105 41 158 81 56 2 178 -19 53 vhcurveto
          5 vlineto
          52 -22 -26 84 -72 hhcurveto
          -56 -3 -30 -11 -8 -36 -69 -129 21 -286 -4 -25 rrcurveto
          97 -67 rmoveto
          -45 235 42 177 55 68 rrcurveto
          1 3 6 1 1 vhcurveto
          43 -35 11 -244 -51 vvcurveto
          -73 -12 -68 -56 -51 vhcurveto
          -8 hlineto
          -17 -14 19 15 -3 hvcurveto
          -81 645 rmoveto
          27 -51 67 84 21 26 11 16 23 17 -16 24 -15 23 -17 6 -20 -16 -36 -59 -53 -1 8 -69 rrcurveto
          136 -19 rmoveto
          27 -51 67 84 21 26 11 16 23 17 -16 24 -15 23 -17 6 -20 -16 -36 -59 -53 -1 8 -69 rrcurveto
          endchar
        </CharString>
        <CharString name="Omacron">
          -93 22 177 rmoveto
          -75 49 -102 88 105 41 158 81 56 2 178 -19 53 vhcurveto
          5 vlineto
          52 -22 -26 84 -72 hhcurveto
          -56 -3 -30 -11 -8 -36 -69 -129 21 -286 -4 -25 rrcurveto
          97 -67 rmoveto
          -45 235 42 177 55 68 rrcurveto
          1 3 6 1 1 vhcurveto
          43 -35 11 -244 -51 vvcurveto
          -73 -12 -68 -56 -51 vhcurveto
          -8 hlineto
          -17 -14 19 15 -3 hvcurveto
          -121 604 rmoveto
          -19 21 -12 17 vhcurveto
          247 27 rlineto
          11 -6 40 27 11 vvcurveto
          27 -24 5 -23 vhcurveto
          -251 -25 rlineto
          -19 -4 -19 -8 -23 vvcurveto
          endchar
        </CharString>
        <CharString name="Oslash">
          -93 51 -61 rmoveto
          -15 16 -9 13 15 13 5 15 3 vhcurveto
          12 70 rlineto
          -3 11 12 -2 13 hhcurveto
          105 41 158 81 hvcurveto
          61 vlineto
          76 -3 110 -14 40 vhcurveto
          5 vlineto
          -18 43 -5 11 -5 11 -6 10 rlinecurve
          5 vlineto
          3 5 12 54 2 5 rrcurveto
          3 13 5 15 15 vvcurveto
          23 -4 2 -24 11 vhcurveto
          -2 hlineto
          -21 -10 -6 -19 -3 hvcurveto
          -15 -68 rlineto
          4 -10 -11 2 -11 hhcurveto
          -56 -3 -30 -11 -8 -36 -69 -129 21 -286 -4 -25 rrcurveto
          -37 12 -44 23 -36 vhcurveto
          12 -16 -6 -26 -5 -24 -4 -26 -3 -27 rlinecurve
          102 135 rmoveto
          -5 -5 1 2 -5 hvcurveto
          9 48 70 316 rlineto
          1 -1 0 -2 -1 vvcurveto
          8 -72 3 -73 -26 vvcurveto
          -73 -12 -68 -56 -51 vhcurveto
          14 522 rmoveto
          3 -3 3 -3 3 -5 -81 -372 rcurveline
          -3 59 -2 154 30 109 43 53 rlinecurve
          1 3 6 1 1 vhcurveto
          endchar
        </CharString>
        <CharString name="Oslashacute">
          -93 63 -37 rmoveto
          -13 16 -9 13 13 14 6 12 3 vhcurveto
          3 15 2 15 2 14 rrcurveto
          -2 9 10 -1 11 hhcurveto
          105 41 158 81 hvcurveto
          61 vlineto
          76 -3 110 -14 40 vhcurveto
          5 vlineto
          -18 43 -9 19 rlineto
          4 vlineto
          3 6 12 49 2 6 rrcurveto
          3 12 4 15 13 vvcurveto
          21 -4 2 -23 11 vhcurveto
          -2 hlineto
          -21 -8 -5 -19 -4 hvcurveto
          -12 -53 rlineto
          8 -12 -14 4 -17 hhcurveto
          -56 -3 -30 -11 -8 -36 -69 -129 21 -286 -4 -25 rrcurveto
          -37 12 -44 23 -36 vhcurveto
          5 -8 6 -8 7 -7 -5 -23 -4 -23 -3 -25 rrcurveto
          112 632 rmoveto
          7 -5 5 -10 5 -13 -85 -382 rcurveline
          -4 30 -2 29 -1 27 -2 154 30 109 43 53 rrcurveto
          1 3 6 1 1 vhcurveto
          -22 -522 rmoveto
          -3 -2 0 1 -3 hvcurveto
          12 64 63 276 4 -49 rlineto
          4 -44 1 -39 -17 vvcurveto
          -73 -12 -68 -56 -51 vhcurveto
          -86 674 rmoveto
          27 -51 67 84 21 26 11 16 23 17 -16 24 -15 23 -17 6 -20 -16 -36 -59 -53 -1 8 -69 rrcurveto
          endchar
        </CharString>
        <CharString name="Otilde">
          -93 22 177 rmoveto
          -75 49 -102 88 105 41 158 81 56 2 178 -19 53 vhcurveto
          5 vlineto
          52 -22 -26 84 -72 hhcurveto
          -56 -3 -30 -11 -8 -36 -69 -129 21 -286 -4 -25 rrcurveto
          97 -67 rmoveto
          -45 235 42 177 55 68 rrcurveto
          1 3 6 1 1 vhcurveto
          43 -35 11 -244 -51 vvcurveto
          -73 -12 -68 -56 -51 vhcurveto
          -8 hlineto
          -17 -14 19 15 -3 hvcurveto
          -81 602 rmoveto
          -16 17 -10 9 vhcurveto
          20 17 88 27 hhcurveto
          35 -30 38 -58 47 3 rrcurveto
          39 41 74 57 19 -3 13 -15 -26 -7 -40 -24 -16 hvcurveto
          -7 -4 -9 -20 -9 hhcurveto
          -13 -5 12 7 -11 hvcurveto
          -57 72 rlineto
          11 -8 -8 0 -9 hhcurveto
          -49 -16 -21 -63 -18 -55 rrcurveto
          -1 -7 -1 -3 -7 vvcurveto
          endchar
        </CharString>
        <CharString name="P">
          103 162 38 rmoveto
          -20 3 25 -18 19 hhcurveto
          25 9 20 21 hvcurveto
          78 -22 77 76 vvcurveto
          4 -2 19 7 5 vhcurveto
          97 67 4 5 60 43 44 39 56 53 rlinecurve
          43 43 25 56 60 vvcurveto
          67 -104 15 -51 -59 -43 -16 -31 -51 vhcurveto
          -7 -11 -10 -10 -13 -15 -14 13 -17 hhcurveto
          -11 -21 -8 -13 hvcurveto
          -55 vlineto
          -112 -98 -1 -1 0 -2 -1 -2 rlinecurve
          -1 -3 -2 -3 -1 vvcurveto
          -2 vlineto
          -24 24 -16 21 29 21 27 19 16 vhcurveto
          4 -193 hlineto
          1 -1 -1 -2 -2 hvcurveto
          -2 -2 rlineto
          -1 4 -7 -1 vvcurveto
          -3 3 -19 1 -7 vhcurveto
          3 -27 2 -26 -1 -27 rrcurveto
          76 198 rmoveto
          190 vlineto
          8 29 15 6 6 vhcurveto
          31 45 49 33 60 hhcurveto
          18 51 2 -28 -42 -41 -57 -31 -24 hvcurveto
          -182 -139 rlineto
          endchar
        </CharString>
        <CharString name="Q">
          96 515 -119 rmoveto
          -7 7 14 -1 11 hhcurveto
          20 17 17 23 hvcurveto
          -1 1 0 0 1 vvcurveto
          1 vlineto
          -3 4 -5 11 -1 1 -206 215 rcurveline
          -1 3 -2 5 -3 1 -28 29 rcurveline
          8 -7 -15 18 1 hhcurveto
          21 97 rlineto
          -3 25 7 50 24 vvcurveto
          50 -5 100 -72 -19 -20 -1 -7 -19 vhcurveto
          -8 9 7 -4 -3 11 rrcurveto
          23 -5 -27 8 -20 hhcurveto
          -19 3 -11 -11 -13 hvcurveto
          -5 -15 -27 -71 -2 -15 -54 -233 rcurveline
          1 -19 -5 -18 -20 vvcurveto
          -64 31 -103 80 vhcurveto
          82 51 107 11 hhcurveto
          2 -1 15 -12 11 -15 13 -15 rlinecurve
          -183 278 rmoveto
          -3 9 8 14 3 7 rrcurveto
          40 19 32 66 54 hhcurveto
          6 hlineto
          13 -32 -1 -46 -30 vvcurveto
          -21 -11 -97 -14 -11 vhcurveto
          -18 -13 -33 15 -40 -17 17 -8 -17 vvcurveto
          -27 -50 -58 -24 -7 -4 17 5 -3 vhcurveto
          -11 27 -9 27 7 31 rrcurveto
          endchar
        </CharString>
        <CharString name="R">
          345 92 34 rmoveto
          -20 3 32 -15 15 hhcurveto
          24 8 30 19 hvcurveto
          48 -13 48 51 vvcurveto
          3 3 5 1 373 84 -26 -8 79 vhcurveto
          17 hlineto
          17 hlineto
          11 13 14 0 25 vvcurveto
          46 -74 -7 -28 3 vhcurveto
          -480 30 156 119 77 56 7 15 rlinecurve
          35 35 28 66 52 vvcurveto
          48 -70 15 -36 -57 -52 -17 -31 -47 vhcurveto
          -4 hlineto
          -72 -63 rlineto
          3 -11 13 53 -57 hhcurveto
          -22 0 -6 -24 -11 hvcurveto
          -2 vlineto
          -2 vlineto
          -14 4 -66 -14 -32 -34 -9 -32 vvcurveto
          -35 35 2 3 -8 vhcurveto
          3 -31 2 -23 -29 -12 -5 -9 -12 vvcurveto
          -15 5 -8 8 -17 vhcurveto
          67 237 rmoveto
          125 130 59 18 39 hhcurveto
          9 17 3 -13 -34 -48 -80 -32 -19 hvcurveto
          -109 -160 -3 -2 -4 hhcurveto
          -3 hlineto
          -3 35 -1 27 33 vvcurveto
          endchar
        </CharString>
        <CharString name="Racute">
          345 92 34 rmoveto
          -20 3 32 -15 15 hhcurveto
          24 8 30 19 hvcurveto
          48 -13 48 51 vvcurveto
          3 3 5 1 373 84 -26 -8 79 vhcurveto
          17 hlineto
          17 hlineto
          11 13 14 0 25 vvcurveto
          46 -74 -7 -28 3 vhcurveto
          -480 30 156 119 77 56 7 15 rlinecurve
          35 35 28 66 52 vvcurveto
          48 -70 15 -36 -57 -52 -17 -31 -47 vhcurveto
          -4 hlineto
          -72 -63 rlineto
          3 -11 13 53 -57 hhcurveto
          -22 0 -6 -24 -11 hvcurveto
          -2 vlineto
          -2 vlineto
          -14 4 -66 -14 -32 -34 -9 -32 vvcurveto
          -35 35 2 3 -8 vhcurveto
          3 -31 2 -23 -29 -12 -5 -9 -12 vvcurveto
          -15 5 -8 8 -17 vhcurveto
          67 237 rmoveto
          125 130 59 18 39 hhcurveto
          9 17 3 -13 -34 -48 -80 -32 -19 hvcurveto
          -109 -160 -3 -2 -4 hhcurveto
          -3 hlineto
          -3 35 -1 27 33 vvcurveto
          78 271 rmoveto
          27 -51 67 84 21 26 11 16 23 17 -16 24 -15 23 -17 6 -20 -16 -36 -59 -53 -1 8 -69 rrcurveto
          endchar
        </CharString>
        <CharString name="Rcaron">
          345 92 34 rmoveto
          -20 3 32 -15 15 hhcurveto
          24 8 30 19 hvcurveto
          48 -13 48 51 vvcurveto
          3 3 5 1 373 84 -26 -8 79 vhcurveto
          17 hlineto
          17 hlineto
          11 13 14 0 25 vvcurveto
          46 -74 -7 -28 3 vhcurveto
          -480 30 156 119 77 56 7 15 rlinecurve
          35 35 28 66 52 vvcurveto
          48 -70 15 -36 -57 -52 -17 -31 -47 vhcurveto
          -4 hlineto
          -72 -63 rlineto
          3 -11 13 53 -57 hhcurveto
          -22 0 -6 -24 -11 hvcurveto
          -2 vlineto
          -2 vlineto
          -14 4 -66 -14 -32 -34 -9 -32 vvcurveto
          -35 35 2 3 -8 vhcurveto
          3 -31 2 -23 -29 -12 -5 -9 -12 vvcurveto
          -15 5 -8 8 -17 vhcurveto
          67 237 rmoveto
          125 130 59 18 39 hhcurveto
          9 17 3 -13 -34 -48 -80 -32 -19 hvcurveto
          -109 -160 -3 -2 -4 hhcurveto
          -3 hlineto
          -3 35 -1 27 33 vvcurveto
          74 286 rmoveto
          3 -4 11 -20 3 -5 rrcurveto
          -7 5 16 0 12 hhcurveto
          11 5 1 5 7 hvcurveto
          56 55 rlineto
          1 5 5 1 hvcurveto
          7 5 35 36 4 6 rrcurveto
          4 5 0 1 4 vvcurveto
          11 -11 1 -19 -17 -12 -4 -8 -7 vhcurveto
          -62 -63 -4 2 -7 7 -4 13 -56 61 rlinecurve
          3 -3 -14 2 -3 hhcurveto
          -15 -37 -8 -12 9 hvcurveto
          endchar
        </CharString>
        <CharString name="Rcommaaccent">
          345 92 34 rmoveto
          -20 3 32 -15 15 hhcurveto
          24 8 30 19 hvcurveto
          48 -13 48 51 vvcurveto
          3 3 5 1 373 84 -26 -8 79 vhcurveto
          17 hlineto
          17 hlineto
          11 13 14 0 25 vvcurveto
          46 -74 -7 -28 3 vhcurveto
          -480 30 156 119 77 56 7 15 rlinecurve
          35 35 28 66 52 vvcurveto
          48 -70 15 -36 -57 -52 -17 -31 -47 vhcurveto
          -4 hlineto
          -72 -63 rlineto
          3 -11 13 53 -57 hhcurveto
          -22 0 -6 -24 -11 hvcurveto
          -2 vlineto
          -2 vlineto
          -14 4 -66 -14 -32 -34 -9 -32 vvcurveto
          -35 35 2 3 -8 vhcurveto
          3 -31 2 -23 -29 -12 -5 -9 -12 vvcurveto
          -15 5 -8 8 -17 vhcurveto
          67 237 rmoveto
          125 130 59 18 39 hhcurveto
          9 17 3 -13 -34 -48 -80 -32 -19 hvcurveto
          -109 -160 -3 -2 -4 hhcurveto
          -3 hlineto
          -3 35 -1 27 33 vvcurveto
          243 -634 rmoveto
          50 -8 -4 50 5 66 rrcurveto
          1 1 0 9 4 vvcurveto
          27 -17 10 -25 -33 -36 -25 -22 38 vhcurveto
          57 -22 -74 -61 38 -29 rrcurveto
          endchar
        </CharString>
        <CharString name="S">
          126 173 36 rmoveto
          -20 19 -16 19 vhcurveto
          109 8 124 94 67 75 rrcurveto
          11 11 6 23 15 vvcurveto
          -4 116 -383 -41 -40 56 rrcurveto
          1 vlineto
          -3 44 69 24 83 35 5 3 62 16 21 5 rrcurveto
          35 8 38 0 43 vvcurveto
          16 -13 18 -19 vhcurveto
          -37 -5 -39 -21 -37 -3 -67 -19 -104 -28 -43 -54 rrcurveto
          -13 -15 -23 -43 -26 vvcurveto
          -69 55 -15 344 -40 vhcurveto
          3 -1 19 -5 7 -3 2 -2 rcurveline
          -1 1 0 1 1 0 0 -1 -26 -90 -55 -29 -16 vhcurveto
          -52 -39 -62 13 -43 -60 rrcurveto
          endchar
        </CharString>
        <CharString name="Sacute">
          126 173 36 rmoveto
          -20 19 -16 19 vhcurveto
          109 8 124 94 67 75 rrcurveto
          11 11 6 23 15 vvcurveto
          -4 116 -383 -41 -40 56 rrcurveto
          1 vlineto
          -3 44 69 24 83 35 5 3 62 16 21 5 rrcurveto
          35 8 38 0 43 vvcurveto
          16 -13 18 -19 vhcurveto
          -37 -5 -39 -21 -37 -3 -67 -19 -104 -28 -43 -54 rrcurveto
          -13 -15 -23 -43 -26 vvcurveto
          -69 55 -15 344 -40 vhcurveto
          3 -1 19 -5 7 -3 2 -2 rcurveline
          -1 1 0 1 1 0 0 -1 -26 -90 -55 -29 -16 vhcurveto
          -52 -39 -62 13 -43 -60 rrcurveto
          31 593 rmoveto
          27 -51 67 84 21 26 11 16 23 17 -16 24 -15 23 -17 6 -20 -16 -36 -59 -53 -1 8 -69 rrcurveto
          endchar
        </CharString>
        <CharString name="Scaron">
          126 173 36 rmoveto
          -20 19 -16 19 vhcurveto
          109 8 124 94 67 75 rrcurveto
          11 11 6 23 15 vvcurveto
          -4 116 -383 -41 -40 56 rrcurveto
          1 vlineto
          -3 44 69 24 83 35 5 3 62 16 21 5 rrcurveto
          35 8 38 0 43 vvcurveto
          16 -13 18 -19 vhcurveto
          -37 -5 -39 -21 -37 -3 -67 -19 -104 -28 -43 -54 rrcurveto
          -13 -15 -23 -43 -26 vvcurveto
          -69 55 -15 344 -40 vhcurveto
          3 -1 19 -5 7 -3 2 -2 rcurveline
          -1 1 0 1 1 0 0 -1 -26 -90 -55 -29 -16 vhcurveto
          -52 -39 -62 13 -43 -60 rrcurveto
          52 628 rmoveto
          3 -4 11 -20 3 -5 rrcurveto
          -7 5 16 0 12 hhcurveto
          11 5 1 5 7 hvcurveto
          56 55 rlineto
          1 5 5 1 hvcurveto
          7 5 35 36 4 6 rrcurveto
          4 5 0 1 4 vvcurveto
          11 -11 1 -19 -17 -12 -4 -8 -7 vhcurveto
          -62 -63 -4 2 -7 7 -4 13 -56 61 rlinecurve
          3 -3 -14 2 -3 hhcurveto
          -15 -37 -8 -12 9 hvcurveto
          endchar
        </CharString>
        <CharString name="Scedilla">
          126 283 -227 rmoveto
          -20 24 -19 19 7 12 1 4 3 vhcurveto
          143 51 83 -11 -24 114 -42 98 -108 -39 -70 14 rrcurveto
          1 vlineto
          3 16 22 8 9 vhcurveto
          6 21 2 18 -1 13 16 10 rcurveline
          53 35 48 42 33 37 rrcurveto
          11 11 6 23 15 vvcurveto
          -4 116 -383 -41 -40 56 rrcurveto
          1 vlineto
          -3 44 69 24 83 35 4 2 36 10 26 6 22 6 rcurveline
          35 8 38 0 43 vvcurveto
          16 -13 18 -19 vhcurveto
          -37 -5 -39 -21 -37 -3 -67 -19 -104 -28 -43 -54 rrcurveto
          -13 -15 -23 -43 -26 vvcurveto
          -69 55 -15 344 -40 vhcurveto
          3 -1 19 -5 7 -3 2 -2 rcurveline
          -1 1 0 1 vhcurveto
          1 -1 rlineto
          -26 -90 -55 -29 -16 vhcurveto
          -52 -39 -62 13 -43 -60 rrcurveto
          -20 19 -16 19 vhcurveto
          11 1 10 1 11 2 -7 -16 -6 -17 -3 -19 rrcurveto
          -53 84 -8 37 vhcurveto
          18 3 95 11 -21 -48 -21 -55 -98 29 -33 -41 rrcurveto
          -5 -5 0 -5 -7 vvcurveto
          endchar
        </CharString>
        <CharString name="Scircumflex">
          126 173 36 rmoveto
          -20 19 -16 19 vhcurveto
          109 8 124 94 67 75 rrcurveto
          11 11 6 23 15 vvcurveto
          -4 116 -383 -41 -40 56 rrcurveto
          1 vlineto
          -3 44 69 24 83 35 5 3 62 16 21 5 rrcurveto
          35 8 38 0 43 vvcurveto
          16 -13 18 -19 vhcurveto
          -37 -5 -39 -21 -37 -3 -67 -19 -104 -28 -43 -54 rrcurveto
          -13 -15 -23 -43 -26 vvcurveto
          -69 55 -15 344 -40 vhcurveto
          3 -1 19 -5 7 -3 2 -2 rcurveline
          -1 1 0 1 1 0 0 -1 -26 -90 -55 -29 -16 vhcurveto
          -52 -39 -62 13 -43 -60 rrcurveto
          -36 639 rmoveto
          -18 -10 40 -13 16 hhcurveto
          4 15 5 3 3 hvcurveto
          61 95 4 22 8 10 4 3 rcurveline
          67 -99 rlineto
          -11 7 15 -8 17 hhcurveto
          20 13 4 15 7 0 1 -4 7 hvcurveto
          -8 11 -34 54 -8 10 rrcurveto
          1 -6 7 -1 1 vhcurveto
          -8 11 -44 62 -8 13 rrcurveto
          8 -8 -7 1 -11 hhcurveto
          -13 -17 0 -11 -5 hvcurveto
          -19 -45 rlineto
          endchar
        </CharString>
        <CharString name="Scommaaccent">
          126 386 -181 rmoveto
          50 -8 -4 50 5 66 rrcurveto
          1 1 0 9 4 vvcurveto
          27 -17 10 -25 -33 -36 -25 -22 38 vhcurveto
          57 -22 -74 -61 38 -29 rrcurveto
          -213 217 rmoveto
          -20 19 -16 19 vhcurveto
          109 8 124 94 67 75 rrcurveto
          11 11 6 23 15 vvcurveto
          -4 116 -383 -41 -40 56 rrcurveto
          1 vlineto
          -3 44 69 24 83 35 5 3 62 16 21 5 rrcurveto
          35 8 38 0 43 vvcurveto
          16 -13 18 -19 vhcurveto
          -37 -5 -39 -21 -37 -3 -67 -19 -104 -28 -43 -54 rrcurveto
          -13 -15 -23 -43 -26 vvcurveto
          -69 55 -15 344 -40 vhcurveto
          3 -1 19 -5 7 -3 2 -2 rcurveline
          -1 1 0 1 1 0 0 -1 -26 -90 -55 -29 -16 vhcurveto
          -52 -39 -62 13 -43 -60 rrcurveto
          endchar
        </CharString>
        <CharString name="T">
          26 218 431 rmoveto
          38 -397 rlineto
          -19 1 23 -15 16 hhcurveto
          42 -2 38 32 hvcurveto
          22 vlineto
          -34 309 rlineto
          3 40 -12 40 41 vvcurveto
          9 vlineto
          190 48 rlineto
          17 4 14 14 17 vvcurveto
          27 -30 13 -23 -17 -4 -5 -3 -16 vhcurveto
          -21 -5 -104 -26 -23 -3 rrcurveto
          5 -16 -10 13 -19 hhcurveto
          -19 -11 -19 -15 -4 hvcurveto
          -161 -51 rlineto
          -15 -5 -11 -16 -15 vvcurveto
          -20 24 -20 19 8 19 -3 11 7 vhcurveto
          114 34 rlineto
          8 hlineto
          1 6 -51 3 -22 vhcurveto
          endchar
        </CharString>
        <CharString name="Tbar">
          26 102 404 rmoveto
          -19 21 -12 17 vhcurveto
          82 9 34 -348 rlineto
          -19 1 23 -15 16 hhcurveto
          42 -2 38 32 hvcurveto
          22 vlineto
          -33 299 84 9 rlineto
          11 -6 40 27 11 vvcurveto
          27 -24 5 -23 vhcurveto
          -92 -9 -1 6 rlineto
          -3 20 -2 20 21 vvcurveto
          9 vlineto
          190 48 rlineto
          17 4 14 14 17 vvcurveto
          27 -30 13 -23 -17 -4 -5 -3 -16 vhcurveto
          -21 -5 -104 -26 -23 -3 rrcurveto
          5 -16 -10 13 -19 hhcurveto
          -19 -11 -19 -15 -4 hvcurveto
          -161 -51 rlineto
          -15 -5 -11 -16 -15 vvcurveto
          -20 24 -20 19 vhcurveto
          17 hlineto
          8 6 3 5 3 hvcurveto
          114 34 rlineto
          8 hlineto
          1 -8 1 -11 3 -16 1 -17 rlinecurve
          2 -13 -77 -7 rlineto
          -19 -4 -19 -8 -23 vvcurveto
          endchar
        </CharString>
        <CharString name="Tcaron">
          26 218 431 rmoveto
          38 -397 rlineto
          -19 1 23 -15 16 hhcurveto
          42 -2 38 32 hvcurveto
          22 vlineto
          -34 309 rlineto
          3 40 -12 40 41 vvcurveto
          9 vlineto
          190 48 rlineto
          17 4 14 14 17 vvcurveto
          27 -30 13 -23 -17 -4 -5 -3 -16 vhcurveto
          -21 -5 -104 -26 -23 -3 rrcurveto
          5 -16 -10 13 -19 hhcurveto
          -19 -11 -19 -15 -4 hvcurveto
          -161 -51 rlineto
          -15 -5 -11 -16 -15 vvcurveto
          -20 24 -20 19 8 19 -3 11 7 vhcurveto
          114 34 rlineto
          8 hlineto
          1 6 -51 3 -22 vhcurveto
          -25 323 rmoveto
          3 -4 11 -20 3 -5 rrcurveto
          -7 5 16 0 12 hhcurveto
          11 5 1 5 7 hvcurveto
          56 55 rlineto
          1 5 5 1 hvcurveto
          7 5 35 36 4 6 rrcurveto
          4 5 0 1 4 vvcurveto
          11 -11 1 -19 -17 -12 -4 -8 -7 vhcurveto
          -62 -63 -4 2 -7 7 -4 13 -56 61 rlinecurve
          3 -3 -14 2 -3 hhcurveto
          -15 -37 -8 -12 9 hvcurveto
          endchar
        </CharString>
        <CharString name="Tcommaaccent">
          26 218 431 rmoveto
          38 -397 rlineto
          -19 1 23 -15 16 hhcurveto
          42 -2 38 32 hvcurveto
          22 vlineto
          -34 309 rlineto
          3 40 -12 40 41 vvcurveto
          9 vlineto
          190 48 rlineto
          17 4 14 14 17 vvcurveto
          27 -30 13 -23 -17 -4 -5 -3 -16 vhcurveto
          -21 -5 -104 -26 -23 -3 rrcurveto
          5 -16 -10 13 -19 hhcurveto
          -19 -11 -19 -15 -4 hvcurveto
          -161 -51 rlineto
          -15 -5 -11 -16 -15 vvcurveto
          -20 24 -20 19 8 19 -3 11 7 vhcurveto
          114 34 rlineto
          8 hlineto
          1 6 -51 3 -22 vhcurveto
          67 -639 rmoveto
          50 -8 -4 50 5 66 rrcurveto
          1 1 0 9 4 vvcurveto
          27 -17 10 -25 -33 -36 -25 -22 38 vhcurveto
          57 -22 -74 -61 38 -29 rrcurveto
          endchar
        </CharString>
        <CharString name="Thorn">
          -39 28 405 rmoveto
          -261 vlineto
          -3 -63 1 -65 8 -24 11 -37 30 0 13 26 10 18 -1 63 -3 34 171 183 235 289 -247 36 rrcurveto
          -35 -43 -3 -23 -29 hvcurveto
          -11 -8 -6 -5 -2 -2 rrcurveto
          -1 hlineto
          -1 -1 -13 -4 -28 40 72 164 -114 -20 rlinecurve
          -13 -15 -9 -17 hvcurveto
          6 -63 rlineto
          3 -28 1 -20 -28 vvcurveto
          -113 vlineto
          -8 -8 -9 -12 -11 vvcurveto
          -2 vlineto
          105 -77 rmoveto
          14 1 62 3 13 vhcurveto
          40 19 70 54 47 hhcurveto
          29 -18 -15 -53 -11 -27 -24 -53 -83 -154 -31 -6 rrcurveto
          10 vlineto
          11 -1 12 9 vvcurveto
          11 vlineto
          8 -4 59 8 vvcurveto
          endchar
        </CharString>
        <CharString name="U">
          297 141 rmoveto
          20 -45 -10 -237 70 8 rrcurveto
          26 2 13 13 24 vvcurveto
          12 vlineto
          -2 10 -15 84 12 vvcurveto
          -9 60 -4 61 -9 60 rrcurveto
          295 vlineto
          16 -37 19 -11 -13 -14 -9 -13 -5 vhcurveto
          -4 -88 -3 -90 3 -88 -1 -4 -4 -14 -3 -4 -86 -151 -27 -17 -31 13 -13 13 -19 39 37 286 rrcurveto
          38 vlineto
          12 -38 13 -8 -29 -21 -32 -27 11 vhcurveto
          -4 -31 -14 -145 -4 -31 rrcurveto
          -26 vlineto
          -68 10 -122 91 71 57 97 55 29 vhcurveto
          endchar
        </CharString>
        <CharString name="Uacute">
          297 141 rmoveto
          20 -45 -10 -237 70 8 rrcurveto
          26 2 13 13 24 vvcurveto
          12 vlineto
          -2 10 -15 84 12 vvcurveto
          -9 60 -4 61 -9 60 rrcurveto
          295 vlineto
          16 -37 19 -11 -13 -14 -9 -13 -5 vhcurveto
          -4 -88 -3 -90 3 -88 -1 -4 -4 -14 -3 -4 -86 -151 -27 -17 -31 13 -13 13 -19 39 37 286 rrcurveto
          38 vlineto
          12 -38 13 -8 -29 -21 -32 -27 11 vhcurveto
          -4 -31 -14 -145 -4 -31 rrcurveto
          -26 vlineto
          -68 10 -122 91 71 57 97 55 29 vhcurveto
          -157 488 rmoveto
          27 -51 67 84 21 26 11 16 23 17 -16 24 -15 23 -17 6 -20 -16 -36 -59 -53 -1 8 -69 rrcurveto
          endchar
        </CharString>
        <CharString name="Ubreve">
          297 141 rmoveto
          20 -45 -10 -237 70 8 rrcurveto
          26 2 13 13 24 vvcurveto
          12 vlineto
          -2 10 -15 84 12 vvcurveto
          -9 60 -4 61 -9 60 rrcurveto
          295 vlineto
          16 -37 19 -11 -13 -14 -9 -13 -5 vhcurveto
          -4 -88 -3 -90 3 -88 -1 -4 -4 -14 -3 -4 -86 -151 -27 -17 -31 13 -13 13 -19 39 37 286 rrcurveto
          38 vlineto
          12 -38 13 -8 -29 -21 -32 -27 11 vhcurveto
          -4 -31 -14 -145 -4 -31 rrcurveto
          -26 vlineto
          -68 10 -122 91 71 57 97 55 29 vhcurveto
          -79 469 rmoveto
          97 -8 18 80 -11 60 -16 -85 -138 -29 -27 105 -15 -15 -39 -97 131 -11 rrcurveto
          endchar
        </CharString>
        <CharString name="Ucircumflex">
          297 141 rmoveto
          20 -45 -10 -237 70 8 rrcurveto
          26 2 13 13 24 vvcurveto
          12 vlineto
          -2 10 -15 84 12 vvcurveto
          -9 60 -4 61 -9 60 rrcurveto
          295 vlineto
          16 -37 19 -11 -13 -14 -9 -13 -5 vhcurveto
          -4 -88 -3 -90 3 -88 -1 -4 -4 -14 -3 -4 -86 -151 -27 -17 -31 13 -13 13 -19 39 37 286 rrcurveto
          38 vlineto
          12 -38 13 -8 -29 -21 -32 -27 11 vhcurveto
          -4 -31 -14 -145 -4 -31 rrcurveto
          -26 vlineto
          -68 10 -122 91 71 57 97 55 29 vhcurveto
          -223 534 rmoveto
          -18 -10 40 -13 16 hhcurveto
          4 15 5 3 3 hvcurveto
          61 95 4 22 8 10 4 3 rcurveline
          67 -99 rlineto
          -11 7 15 -8 17 hhcurveto
          20 13 4 15 7 0 1 -4 7 hvcurveto
          -8 11 -34 54 -8 10 rrcurveto
          1 -6 7 -1 1 vhcurveto
          -8 11 -44 62 -8 13 rrcurveto
          8 -8 -7 1 -11 hhcurveto
          -13 -17 0 -11 -5 hvcurveto
          -19 -45 rlineto
          endchar
        </CharString>
        <CharString name="Udieresis">
          297 141 rmoveto
          20 -45 -10 -237 70 8 rrcurveto
          26 2 13 13 24 vvcurveto
          12 vlineto
          -2 10 -15 84 12 vvcurveto
          -9 60 -4 61 -9 60 rrcurveto
          295 vlineto
          16 -37 19 -11 -13 -14 -9 -13 -5 vhcurveto
          -4 -88 -3 -90 3 -88 -1 -4 -4 -14 -3 -4 -86 -151 -27 -17 -31 13 -13 13 -19 39 37 286 rrcurveto
          38 vlineto
          12 -38 13 -8 -29 -21 -32 -27 11 vhcurveto
          -4 -31 -14 -145 -4 -31 rrcurveto
          -26 vlineto
          -68 10 -122 91 71 57 97 55 29 vhcurveto
          -192 569 rmoveto
          -19 24 -19 17 25 17 21 23 vhcurveto
          3 vlineto
          15 -13 -12 14 -23 hhcurveto
          -19 -16 -19 -19 hvcurveto
          129 hmoveto
          -19 24 -19 17 25 17 21 23 vhcurveto
          3 vlineto
          15 -13 -12 14 -23 hhcurveto
          -19 -16 -19 -19 hvcurveto
          endchar
        </CharString>
        <CharString name="Ugrave">
          297 141 rmoveto
          20 -45 -10 -237 70 8 rrcurveto
          26 2 13 13 24 vvcurveto
          12 vlineto
          -2 10 -15 84 12 vvcurveto
          -9 60 -4 61 -9 60 rrcurveto
          295 vlineto
          16 -37 19 -11 -13 -14 -9 -13 -5 vhcurveto
          -4 -88 -3 -90 3 -88 -1 -4 -4 -14 -3 -4 -86 -151 -27 -17 -31 13 -13 13 -19 39 37 286 rrcurveto
          38 vlineto
          12 -38 13 -8 -29 -21 -32 -27 11 vhcurveto
          -4 -31 -14 -145 -4 -31 rrcurveto
          -26 vlineto
          -68 10 -122 91 71 57 97 55 29 vhcurveto
          -11 467 rmoveto
          8 63 -56 3 -39 54 -21 15 -19 -7 -15 -20 -15 -21 20 -18 14 -14 22 -25 72 -77 29 47 rrcurveto
          endchar
        </CharString>
        <CharString name="Uhungarumlaut">
          297 141 rmoveto
          20 -45 -10 -237 70 8 rrcurveto
          26 2 13 13 24 vvcurveto
          12 vlineto
          -2 10 -15 84 12 vvcurveto
          -9 60 -4 61 -9 60 rrcurveto
          295 vlineto
          16 -37 19 -11 -13 -14 -9 -13 -5 vhcurveto
          -4 -88 -3 -90 3 -88 -1 -4 -4 -14 -3 -4 -86 -151 -27 -17 -31 13 -13 13 -19 39 37 286 rrcurveto
          38 vlineto
          12 -38 13 -8 -29 -21 -32 -27 11 vhcurveto
          -4 -31 -14 -145 -4 -31 rrcurveto
          -26 vlineto
          -68 10 -122 91 71 57 97 55 29 vhcurveto
          -225 507 rmoveto
          27 -51 67 84 21 26 11 16 23 17 -16 24 -15 23 -17 6 -20 -16 -36 -59 -53 -1 8 -69 rrcurveto
          136 -19 rmoveto
          27 -51 67 84 21 26 11 16 23 17 -16 24 -15 23 -17 6 -20 -16 -36 -59 -53 -1 8 -69 rrcurveto
          endchar
        </CharString>
        <CharString name="Umacron">
          297 141 rmoveto
          20 -45 -10 -237 70 8 rrcurveto
          26 2 13 13 24 vvcurveto
          12 vlineto
          -2 10 -15 84 12 vvcurveto
          -9 60 -4 61 -9 60 rrcurveto
          295 vlineto
          16 -37 19 -11 -13 -14 -9 -13 -5 vhcurveto
          -4 -88 -3 -90 3 -88 -1 -4 -4 -14 -3 -4 -86 -151 -27 -17 -31 13 -13 13 -19 39 37 286 rrcurveto
          38 vlineto
          12 -38 13 -8 -29 -21 -32 -27 11 vhcurveto
          -4 -31 -14 -145 -4 -31 rrcurveto
          -26 vlineto
          -68 10 -122 91 71 57 97 55 29 vhcurveto
          -246 490 rmoveto
          -19 21 -12 17 vhcurveto
          247 27 rlineto
          11 -6 40 27 11 vvcurveto
          27 -24 5 -23 vhcurveto
          -251 -25 rlineto
          -19 -4 -19 -8 -23 vvcurveto
          endchar
        </CharString>
        <CharString name="Uogonek">
          246 -212 rmoveto
          -68 37 -45 65 vhcurveto
          119 12 -21 183 -64 -89 -11 -29 -29 -15 -19 19 -7 25 0 27 7 30 4 17 6 18 9 20 6 -11 rcurveline
          8 -11 10 -5 11 1 rrcurveto
          26 2 13 13 24 vvcurveto
          12 vlineto
          -4 19 -5 33 rlineto
          -4 24 -4 23 7 vvcurveto
          -9 60 -4 61 -9 60 rrcurveto
          295 vlineto
          16 -37 19 -11 -13 -14 -9 -13 -5 vhcurveto
          -4 -88 -3 -90 3 -88 -1 -4 -4 -14 -3 -4 -86 -151 -27 -17 -31 13 -13 13 -19 39 37 286 rrcurveto
          38 vlineto
          12 -38 13 -8 -29 -21 -32 -27 11 vhcurveto
          -4 -31 -14 -145 -4 -31 rrcurveto
          -26 vlineto
          -68 10 -122 91 71 57 97 55 29 vhcurveto
          10 -22 3 -72 8 -63 4 -26 rcurveline
          -13 1 -12 -4 -11 -9 rrcurveto
          -24 -19 -16 -46 -93 vvcurveto
          endchar
        </CharString>
        <CharString name="Uring">
          297 141 rmoveto
          20 -45 -10 -237 70 8 rrcurveto
          26 2 13 13 24 vvcurveto
          12 vlineto
          -2 10 -15 84 12 vvcurveto
          -9 60 -4 61 -9 60 rrcurveto
          295 vlineto
          16 -37 19 -11 -13 -14 -9 -13 -5 vhcurveto
          -4 -88 -3 -90 3 -88 -1 -4 -4 -14 -3 -4 -86 -151 -27 -17 -31 13 -13 13 -19 39 37 286 rrcurveto
          38 vlineto
          12 -38 13 -8 -29 -21 -32 -27 11 vhcurveto
          -4 -31 -14 -145 -4 -31 rrcurveto
          -26 vlineto
          -68 10 -122 91 71 57 97 55 29 vhcurveto
          -63 606 rmoveto
          -155 -112 84 -58 61 -3 rrcurveto
          59 60 59 35 29 -21 54 -57 hvcurveto
          -12 -7 -4 -11 hhcurveto
          50 -77 rmoveto
          3 -33 -71 -27 -13 40 3 45 75 42 3 -67 rrcurveto
          endchar
        </CharString>
        <CharString name="Utilde">
          297 141 rmoveto
          20 -45 -10 -237 70 8 rrcurveto
          26 2 13 13 24 vvcurveto
          12 vlineto
          -2 10 -15 84 12 vvcurveto
          -9 60 -4 61 -9 60 rrcurveto
          295 vlineto
          16 -37 19 -11 -13 -14 -9 -13 -5 vhcurveto
          -4 -88 -3 -90 3 -88 -1 -4 -4 -14 -3 -4 -86 -151 -27 -17 -31 13 -13 13 -19 39 37 286 rrcurveto
          38 vlineto
          12 -38 13 -8 -29 -21 -32 -27 11 vhcurveto
          -4 -31 -14 -145 -4 -31 rrcurveto
          -26 vlineto
          -68 10 -122 91 71 57 97 55 29 vhcurveto
          -240 442 rmoveto
          -16 17 -10 9 vhcurveto
          20 17 88 27 hhcurveto
          35 -30 38 -58 47 3 rrcurveto
          39 41 74 57 19 -3 13 -15 -26 -7 -40 -24 -16 hvcurveto
          -7 -4 -9 -20 -9 hhcurveto
          -13 -5 12 7 -11 hvcurveto
          -57 72 rlineto
          11 -8 -8 0 -9 hhcurveto
          -49 -16 -21 -63 -18 -55 rrcurveto
          -1 -7 -1 -3 -7 vvcurveto
          endchar
        </CharString>
        <CharString name="V">
          99 257 118 rmoveto
          -38 25 -13 -80 65 hhcurveto
          37 -3 35 24 3 hvcurveto
          3 18 10 56 6 vvcurveto
          114 427 rlineto
          4 vlineto
          25 -29 17 -23 -23 -17 -22 -24 4 vhcurveto
          -39 -139 -4 -9 -55 -207 -4 -8 -3 4 -14 19 -4 11 rlinecurve
          268 -188 12 61 -63 hhcurveto
          -17 -20 -11 -20 -19 16 -28 15 -11 hvcurveto
          endchar
        </CharString>
        <CharString name="W">
          94 370 17 rmoveto
          -12 5 32 -5 9 hhcurveto
          16 398 53 326 8 -40 rrcurveto
          11 -5 7 -5 12 vhcurveto
          -16 4 rlineto
          1 -1 -7 3 -1 hhcurveto
          -24 -22 -3 -27 -4 hvcurveto
          -40 -272 0 -22 -16 -132 -8 22 rcurveline
          -68 286 rlineto
          19 -4 -10 3 -17 hhcurveto
          -19 -14 -4 -13 -11 hvcurveto
          -35 -162 -4 -39 -2 vvcurveto
          -3 -1 -16 -7 -3 vhcurveto
          -55 199 rlineto
          21 -7 -15 10 -25 hhcurveto
          -15 -23 -12 -19 -10 15 -33 3 -3 hvcurveto
          46 -181 63 -221 rlineto
          -14 3 34 -7 12 hhcurveto
          17 15 14 16 4 hvcurveto
          20 4 95 20 vvcurveto
          1 33 0 32 8 32 4 -4 rcurveline
          endchar
        </CharString>
        <CharString name="Wacute">
          94 370 17 rmoveto
          -12 5 32 -5 9 hhcurveto
          16 398 53 326 8 -40 rrcurveto
          11 -5 7 -5 12 vhcurveto
          -16 4 rlineto
          1 -1 -7 3 -1 hhcurveto
          -24 -22 -3 -27 -4 hvcurveto
          -40 -272 0 -22 -16 -132 -8 22 rcurveline
          -68 286 rlineto
          19 -4 -10 3 -17 hhcurveto
          -19 -14 -4 -13 -11 hvcurveto
          -35 -162 -4 -39 -2 vvcurveto
          -3 -1 -16 -7 -3 vhcurveto
          -55 199 rlineto
          21 -7 -15 10 -25 hhcurveto
          -15 -23 -12 -19 -10 15 -33 3 -3 hvcurveto
          46 -181 63 -221 rlineto
          -14 3 34 -7 12 hhcurveto
          17 15 14 16 4 hvcurveto
          20 4 95 20 vvcurveto
          1 33 0 32 8 32 4 -4 rcurveline
          -55 328 rmoveto
          27 -51 67 84 21 26 11 16 23 17 -16 24 -15 23 -17 6 -20 -16 -36 -59 -53 -1 8 -69 rrcurveto
          endchar
        </CharString>
        <CharString name="Wcircumflex">
          94 370 17 rmoveto
          -12 5 32 -5 9 hhcurveto
          16 398 53 326 8 -40 rrcurveto
          11 -5 7 -5 12 vhcurveto
          -16 4 rlineto
          1 -1 -7 3 -1 hhcurveto
          -24 -22 -3 -27 -4 hvcurveto
          -40 -272 0 -22 -16 -132 -8 22 rcurveline
          -68 286 rlineto
          19 -4 -10 3 -17 hhcurveto
          -19 -14 -4 -13 -11 hvcurveto
          -35 -162 -4 -39 -2 vvcurveto
          -3 -1 -16 -7 -3 vhcurveto
          -55 199 rlineto
          21 -7 -15 10 -25 hhcurveto
          -15 -23 -12 -19 -10 15 -33 3 -3 hvcurveto
          46 -181 63 -221 rlineto
          -14 3 34 -7 12 hhcurveto
          17 15 14 16 4 hvcurveto
          20 4 95 20 vvcurveto
          1 33 0 32 8 32 4 -4 rcurveline
          -177 399 rmoveto
          -18 -10 40 -13 16 hhcurveto
          4 15 5 3 3 hvcurveto
          61 95 4 22 8 10 4 3 rcurveline
          67 -99 rlineto
          -11 7 15 -8 17 hhcurveto
          20 13 4 15 7 0 1 -4 7 hvcurveto
          -8 11 -34 54 -8 10 rrcurveto
          1 -6 7 -1 1 vhcurveto
          -8 11 -44 62 -8 13 rrcurveto
          8 -8 -7 1 -11 hhcurveto
          -13 -17 0 -11 -5 hvcurveto
          -19 -45 rlineto
          endchar
        </CharString>
        <CharString name="Wdieresis">
          94 370 17 rmoveto
          -12 5 32 -5 9 hhcurveto
          16 398 53 326 8 -40 rrcurveto
          11 -5 7 -5 12 vhcurveto
          -16 4 rlineto
          1 -1 -7 3 -1 hhcurveto
          -24 -22 -3 -27 -4 hvcurveto
          -40 -272 0 -22 -16 -132 -8 22 rcurveline
          -68 286 rlineto
          19 -4 -10 3 -17 hhcurveto
          -19 -14 -4 -13 -11 hvcurveto
          -35 -162 -4 -39 -2 vvcurveto
          -3 -1 -16 -7 -3 vhcurveto
          -55 199 rlineto
          21 -7 -15 10 -25 hhcurveto
          -15 -23 -12 -19 -10 15 -33 3 -3 hvcurveto
          46 -181 63 -221 rlineto
          -14 3 34 -7 12 hhcurveto
          17 15 14 16 4 hvcurveto
          20 4 95 20 vvcurveto
          1 33 0 32 8 32 4 -4 rcurveline
          -91 368 rmoveto
          -19 24 -19 17 25 17 21 23 vhcurveto
          3 vlineto
          15 -13 -12 14 -23 hhcurveto
          -19 -16 -19 -19 hvcurveto
          129 hmoveto
          -19 24 -19 17 25 17 21 23 vhcurveto
          3 vlineto
          15 -13 -12 14 -23 hhcurveto
          -19 -16 -19 -19 hvcurveto
          endchar
        </CharString>
        <CharString name="Wgrave">
          94 370 17 rmoveto
          -12 5 32 -5 9 hhcurveto
          16 398 53 326 8 -40 rrcurveto
          11 -5 7 -5 12 vhcurveto
          -16 4 rlineto
          1 -1 -7 3 -1 hhcurveto
          -24 -22 -3 -27 -4 hvcurveto
          -40 -272 0 -22 -16 -132 -8 22 rcurveline
          -68 286 rlineto
          19 -4 -10 3 -17 hhcurveto
          -19 -14 -4 -13 -11 hvcurveto
          -35 -162 -4 -39 -2 vvcurveto
          -3 -1 -16 -7 -3 vhcurveto
          -55 199 rlineto
          21 -7 -15 10 -25 hhcurveto
          -15 -23 -12 -19 -10 15 -33 3 -3 hvcurveto
          46 -181 63 -221 rlineto
          -14 3 34 -7 12 hhcurveto
          17 15 14 16 4 hvcurveto
          20 4 95 20 vvcurveto
          1 33 0 32 8 32 4 -4 rcurveline
          54 329 rmoveto
          8 63 -56 3 -39 54 -21 15 -19 -7 -15 -20 -15 -21 20 -18 14 -14 22 -25 72 -77 29 47 rrcurveto
          endchar
        </CharString>
        <CharString name="X">
          44 211 169 rmoveto
          143 -143 rlineto
          -15 15 22 -11 19 hhcurveto
          20 14 14 21 9 -1 7 -8 8 hvcurveto
          -194 194 rlineto
          9 vlineto
          16 32 61 204 4 58 -3 41 -2 -5 -37 8 rrcurveto
          -4 hlineto
          -11 -17 -14 -12 -3 hvcurveto
          -43 -168 -6 -49 -17 -19 rrcurveto
          -1 hlineto
          -29 44 -21 43 -23 48 rrcurveto
          19 -9 -12 7 -23 hhcurveto
          -32 -25 -33 -27 22 hvcurveto
          10 -21 54 -97 54 -76 rrcurveto
          -1 vlineto
          -3 vlineto
          -5 -14 -63 -130 rlineto
          -17 -13 -11 -19 vvcurveto
          -20 30 -14 17 47 12 102 29 21 vhcurveto
          3 4 9 15 1 3 rrcurveto
          endchar
        </CharString>
        <CharString name="Y">
          1 226 -6 rmoveto
          -24 8 21 -14 25 hhcurveto
          42 -1 49 27 -3 hvcurveto
          24 164 37 340 12 49 rrcurveto
          3 8 24 2 vvcurveto
          2 vlineto
          39 -18 15 -35 -12 -17 -2 -15 -3 vhcurveto
          -42 -270 -4 -13 -65 40 -65 60 -51 56 rlinecurve
          11 -11 -16 2 -13 hhcurveto
          -20 -21 -9 -23 -15 11 -14 11 -11 hvcurveto
          14 -14 63 -59 16 -11 27 -24 85 -61 11 -5 16 -8 rcurveline
          -15 vlineto
          -60 -13 -59 -7 -60 vhcurveto
          -2 -15 -9 -68 -3 -14 rrcurveto
          endchar
        </CharString>
        <CharString name="Yacute">
          1 226 -6 rmoveto
          -24 8 21 -14 25 hhcurveto
          42 -1 49 27 -3 hvcurveto
          24 164 37 340 12 49 rrcurveto
          3 8 24 2 vvcurveto
          2 vlineto
          39 -18 15 -35 -12 -17 -2 -15 -3 vhcurveto
          -42 -270 -4 -13 -65 40 -65 60 -51 56 rlinecurve
          11 -11 -16 2 -13 hhcurveto
          -20 -21 -9 -23 -15 11 -14 11 -11 hvcurveto
          14 -14 63 -59 16 -11 27 -24 85 -61 11 -5 16 -8 rcurveline
          -15 vlineto
          -60 -13 -59 -7 -60 vhcurveto
          -2 -15 -9 -68 -3 -14 rrcurveto
          -85 635 rmoveto
          27 -51 67 84 21 26 11 16 23 17 -16 24 -15 23 -17 6 -20 -16 -36 -59 -53 -1 8 -69 rrcurveto
          endchar
        </CharString>
        <CharString name="Ycircumflex">
          1 226 -6 rmoveto
          -24 8 21 -14 25 hhcurveto
          42 -1 49 27 -3 hvcurveto
          24 164 37 340 12 49 rrcurveto
          3 8 24 2 vvcurveto
          2 vlineto
          39 -18 15 -35 -12 -17 -2 -15 -3 vhcurveto
          -42 -270 -4 -13 -65 40 -65 60 -51 56 rlinecurve
          11 -11 -16 2 -13 hhcurveto
          -20 -21 -9 -23 -15 11 -14 11 -11 hvcurveto
          14 -14 63 -59 16 -11 27 -24 85 -61 11 -5 16 -8 rcurveline
          -15 vlineto
          -60 -13 -59 -7 -60 vhcurveto
          -2 -15 -9 -68 -3 -14 rrcurveto
          -174 707 rmoveto
          -18 -10 40 -13 16 hhcurveto
          4 15 5 3 3 hvcurveto
          61 95 4 22 8 10 4 3 rcurveline
          67 -99 rlineto
          -11 7 15 -8 17 hhcurveto
          20 13 4 15 7 0 1 -4 7 hvcurveto
          -8 11 -34 54 -8 10 rrcurveto
          1 -6 7 -1 1 vhcurveto
          -8 11 -44 62 -8 13 rrcurveto
          8 -8 -7 1 -11 hhcurveto
          -13 -17 0 -11 -5 hvcurveto
          -19 -45 rlineto
          endchar
        </CharString>
        <CharString name="Ydieresis">
          1 226 -6 rmoveto
          -24 8 21 -14 25 hhcurveto
          42 -1 49 27 -3 hvcurveto
          24 164 37 340 12 49 rrcurveto
          3 8 24 2 vvcurveto
          2 vlineto
          39 -18 15 -35 -12 -17 -2 -15 -3 vhcurveto
          -42 -270 -4 -13 -65 40 -65 60 -51 56 rlinecurve
          11 -11 -16 2 -13 hhcurveto
          -20 -21 -9 -23 -15 11 -14 11 -11 hvcurveto
          14 -14 63 -59 16 -11 27 -24 85 -61 11 -5 16 -8 rcurveline
          -15 vlineto
          -60 -13 -59 -7 -60 vhcurveto
          -2 -15 -9 -68 -3 -14 rrcurveto
          -155 716 rmoveto
          -19 24 -19 17 25 17 21 23 vhcurveto
          3 vlineto
          15 -13 -12 14 -23 hhcurveto
          -19 -16 -19 -19 hvcurveto
          129 hmoveto
          -19 24 -19 17 25 17 21 23 vhcurveto
          3 vlineto
          15 -13 -12 14 -23 hhcurveto
          -19 -16 -19 -19 hvcurveto
          endchar
        </CharString>
        <CharString name="Ygrave">
          1 226 -6 rmoveto
          -24 8 21 -14 25 hhcurveto
          42 -1 49 27 -3 hvcurveto
          24 164 37 340 12 49 rrcurveto
          3 8 24 2 vvcurveto
          2 vlineto
          39 -18 15 -35 -12 -17 -2 -15 -3 vhcurveto
          -42 -270 -4 -13 -65 40 -65 60 -51 56 rlinecurve
          11 -11 -16 2 -13 hhcurveto
          -20 -21 -9 -23 -15 11 -14 11 -11 hvcurveto
          14 -14 63 -59 16 -11 27 -24 85 -61 11 -5 16 -8 rcurveline
          -15 vlineto
          -60 -13 -59 -7 -60 vhcurveto
          -2 -15 -9 -68 -3 -14 rrcurveto
          18 663 rmoveto
          8 63 -56 3 -39 54 -21 15 -19 -7 -15 -20 -15 -21 20 -18 14 -14 22 -25 72 -77 29 47 rrcurveto
          endchar
        </CharString>
        <CharString name="Z">
          325 74 36 rmoveto
          -28 40 -9 20 vhcurveto
          9 hlineto
          3 2 0 1 2 hvcurveto
          67 334 153 5 70 hhcurveto
          17 12 8 11 20 vvcurveto
          23 -29 10 -17 vhcurveto
          -469 -64 rlineto
          -6 hlineto
          -4 -4 0 4 -3 hvcurveto
          15 19 8 33 20 13 165 265 rcurveline
          9 7 11 14 13 vvcurveto
          48 -48 -5 -36 vhcurveto
          -7 -22 -1 -1 hhcurveto
          -215 -29 rlineto
          -27 -49 3 -40 -20 37 -20 20 hvcurveto
          10 hlineto
          195 30 rlineto
          28 hlineto
          -175 -279 -49 -69 -11 -19 rrcurveto
          -1 -3 -3 -7 -3 vvcurveto
          endchar
        </CharString>
        <CharString name="Zacute">
          325 74 36 rmoveto
          -28 40 -9 20 vhcurveto
          9 hlineto
          3 2 0 1 2 hvcurveto
          67 334 153 5 70 hhcurveto
          17 12 8 11 20 vvcurveto
          23 -29 10 -17 vhcurveto
          -469 -64 rlineto
          -6 hlineto
          -4 -4 0 4 -3 hvcurveto
          15 19 8 33 20 13 165 265 rcurveline
          9 7 11 14 13 vvcurveto
          48 -48 -5 -36 vhcurveto
          -7 -22 -1 -1 hhcurveto
          -215 -29 rlineto
          -27 -49 3 -40 -20 37 -20 20 hvcurveto
          10 hlineto
          195 30 rlineto
          28 hlineto
          -175 -279 -49 -69 -11 -19 rrcurveto
          -1 -3 -3 -7 -3 vvcurveto
          229 591 rmoveto
          27 -51 67 84 21 26 11 16 23 17 -16 24 -15 23 -17 6 -20 -16 -36 -59 -53 -1 8 -69 rrcurveto
          endchar
        </CharString>
        <CharString name="Zcaron">
          325 74 36 rmoveto
          -28 40 -9 20 vhcurveto
          9 hlineto
          3 2 0 1 2 hvcurveto
          67 334 153 5 70 hhcurveto
          17 12 8 11 20 vvcurveto
          23 -29 10 -17 vhcurveto
          -469 -64 rlineto
          -6 hlineto
          -4 -4 0 4 -3 hvcurveto
          15 19 8 33 20 13 165 265 rcurveline
          9 7 11 14 13 vvcurveto
          48 -48 -5 -36 vhcurveto
          -7 -22 -1 -1 hhcurveto
          -215 -29 rlineto
          -27 -49 3 -40 -20 37 -20 20 hvcurveto
          10 hlineto
          195 30 rlineto
          28 hlineto
          -175 -279 -49 -69 -11 -19 rrcurveto
          -1 -3 -3 -7 -3 vvcurveto
          250 626 rmoveto
          3 -4 11 -20 3 -5 rrcurveto
          -7 5 16 0 12 hhcurveto
          11 5 1 5 7 hvcurveto
          56 55 rlineto
          1 5 5 1 hvcurveto
          7 5 35 36 4 6 rrcurveto
          4 5 0 1 4 vvcurveto
          11 -11 1 -19 -17 -12 -4 -8 -7 vhcurveto
          -62 -63 -4 2 -7 7 -4 13 -56 61 rlinecurve
          3 -3 -14 2 -3 hhcurveto
          -15 -37 -8 -12 9 hvcurveto
          endchar
        </CharString>
        <CharString name="Zdotaccent">
          325 74 36 rmoveto
          -28 40 -9 20 vhcurveto
          9 hlineto
          3 2 0 1 2 hvcurveto
          67 334 153 5 70 hhcurveto
          17 12 8 11 20 vvcurveto
          23 -29 10 -17 vhcurveto
          -469 -64 rlineto
          -6 hlineto
          -4 -4 0 4 -3 hvcurveto
          15 19 8 33 20 13 165 265 rcurveline
          9 7 11 14 13 vvcurveto
          48 -48 -5 -36 vhcurveto
          -7 -22 -1 -1 hhcurveto
          -215 -29 rlineto
          -27 -49 3 -40 -20 37 -20 20 hvcurveto
          10 hlineto
          195 30 rlineto
          28 hlineto
          -175 -279 -49 -69 -11 -19 rrcurveto
          -1 -3 -3 -7 -3 vvcurveto
          168 585 rmoveto
          -29 35 -35 27 39 24 37 37 vhcurveto
          5 vlineto
          25 -19 -20 24 -33 hhcurveto
          -27 -26 -35 -29 hvcurveto
          endchar
        </CharString>
        <CharString name="a">
          -24 260 274 rmoveto
          3 -34 3 -19 -1 -22 3 -13 rlinecurve
          -4 vlineto
          3 -34 10 -85 -4 vvcurveto
          -36 5 13 -23 39 hhcurveto
          19 13 10 20 15 0 8 -4 15 hvcurveto
          -21 360 18 150 -80 -3 rrcurveto
          -3 -9 -1 -3 hhcurveto
          -179 -48 -68 -179 -3 -271 rrcurveto
          -28 41 -6 20 vhcurveto
          75 12 67 162 35 63 rrcurveto
          -22 198 rmoveto
          -5 -111 -29 -91 -83 -80 rrcurveto
          -1 -1 -3 -4 -1 hhcurveto
          17 18 109 14 41 vhcurveto
          15 43 39 50 36 27 rrcurveto
          endchar
        </CharString>
        <CharString name="aacute">
          -24 260 274 rmoveto
          3 -34 3 -19 -1 -22 3 -13 rlinecurve
          -4 vlineto
          3 -34 10 -85 -4 vvcurveto
          -36 5 13 -23 39 hhcurveto
          19 13 10 20 15 0 8 -4 15 hvcurveto
          -21 360 18 150 -80 -3 rrcurveto
          -3 -9 -1 -3 hhcurveto
          -179 -48 -68 -179 -3 -271 rrcurveto
          -28 41 -6 20 vhcurveto
          75 12 67 162 35 63 rrcurveto
          -22 198 rmoveto
          -5 -111 -29 -91 -83 -80 rrcurveto
          -1 -1 -3 -4 -1 hhcurveto
          17 18 109 14 41 vhcurveto
          15 43 39 50 36 27 rrcurveto
          -105 152 rmoveto
          27 -51 67 84 21 26 11 16 23 17 -16 24 -15 23 -17 6 -20 -16 -36 -59 -53 -1 8 -69 rrcurveto
          endchar
        </CharString>
        <CharString name="abreve">
          -24 260 274 rmoveto
          3 -34 3 -19 -1 -22 3 -13 rlinecurve
          -4 vlineto
          3 -34 10 -85 -4 vvcurveto
          -36 5 13 -23 39 hhcurveto
          19 13 10 20 15 0 8 -4 15 hvcurveto
          -21 360 18 150 -80 -3 rrcurveto
          -3 -9 -1 -3 hhcurveto
          -179 -48 -68 -179 -3 -271 rrcurveto
          -28 41 -6 20 vhcurveto
          75 12 67 162 35 63 rrcurveto
          -22 198 rmoveto
          -5 -111 -29 -91 -83 -80 rrcurveto
          -1 -1 -3 -4 -1 hhcurveto
          17 18 109 14 41 vhcurveto
          15 43 39 50 36 27 rrcurveto
          -27 133 rmoveto
          97 -8 18 80 -11 60 -16 -85 -138 -29 -27 105 -15 -15 -39 -97 131 -11 rrcurveto
          endchar
        </CharString>
        <CharString name="acircumflex">
          -24 260 274 rmoveto
          3 -34 3 -19 -1 -22 3 -13 rlinecurve
          -4 vlineto
          3 -34 10 -85 -4 vvcurveto
          -36 5 13 -23 39 hhcurveto
          19 13 10 20 15 0 8 -4 15 hvcurveto
          -21 360 18 150 -80 -3 rrcurveto
          -3 -9 -1 -3 hhcurveto
          -179 -48 -68 -179 -3 -271 rrcurveto
          -28 41 -6 20 vhcurveto
          75 12 67 162 35 63 rrcurveto
          -22 198 rmoveto
          -5 -111 -29 -91 -83 -80 rrcurveto
          -1 -1 -3 -4 -1 hhcurveto
          17 18 109 14 41 vhcurveto
          15 43 39 50 36 27 rrcurveto
          -172 198 rmoveto
          -18 -10 40 -13 16 hhcurveto
          4 15 5 3 3 hvcurveto
          61 95 4 22 8 10 4 3 rcurveline
          67 -99 rlineto
          -11 7 15 -8 17 hhcurveto
          20 13 4 15 7 0 1 -4 7 hvcurveto
          -8 11 -34 54 -8 10 rrcurveto
          1 -6 7 -1 1 vhcurveto
          -8 11 -44 62 -8 13 rrcurveto
          8 -8 -7 1 -11 hhcurveto
          -13 -17 0 -11 -5 hvcurveto
          -19 -45 rlineto
          endchar
        </CharString>
        <CharString name="acute">
          -173 87 629 rmoveto
          27 -51 67 84 21 26 11 16 23 17 -16 24 -15 23 -17 6 -20 -16 -36 -59 -53 -1 8 -69 rrcurveto
          endchar
        </CharString>
        <CharString name="adieresis">
          -24 260 274 rmoveto
          3 -34 3 -19 -1 -22 3 -13 rlinecurve
          -4 vlineto
          3 -34 10 -85 -4 vvcurveto
          -36 5 13 -23 39 hhcurveto
          19 13 10 20 15 0 8 -4 15 hvcurveto
          -21 360 18 150 -80 -3 rrcurveto
          -3 -9 -1 -3 hhcurveto
          -179 -48 -68 -179 -3 -271 rrcurveto
          -28 41 -6 20 vhcurveto
          75 12 67 162 35 63 rrcurveto
          -22 198 rmoveto
          -5 -111 -29 -91 -83 -80 rrcurveto
          -1 -1 -3 -4 -1 hhcurveto
          17 18 109 14 41 vhcurveto
          15 43 39 50 36 27 rrcurveto
          -141 233 rmoveto
          -19 24 -19 17 25 17 21 23 vhcurveto
          3 vlineto
          15 -13 -12 14 -23 hhcurveto
          -19 -16 -19 -19 hvcurveto
          129 hmoveto
          -19 24 -19 17 25 17 21 23 vhcurveto
          3 vlineto
          15 -13 -12 14 -23 hhcurveto
          -19 -16 -19 -19 hvcurveto
          endchar
        </CharString>
        <CharString name="ae">
          299 708 330 rmoveto
          77 -73 -33 -14 -20 vhcurveto
          -41 -63 -160 -148 rlineto
          -4 -11 -8 -13 -11 hhcurveto
          -1 -1 1 1 -1 hvcurveto
          -1 1 0 0 1 vvcurveto
          29 8 73 4 9 vhcurveto
          4 8 8 5 45 34 7 7 rlinecurve
          12 13 12 12 rlineto
          1 3 5 4 1 hhcurveto
          27 21 42 26 40 vvcurveto
          32 -68 67 -33 -56 -24 -53 -45 -19 vhcurveto
          -8 -22 -4 -11 -1 29 -2 26 -3 22 rlinecurve
          -8 83 -15 36 -40 -1 rrcurveto
          -3 -9 -1 -3 hhcurveto
          -179 -48 -68 -179 -3 -271 rrcurveto
          -28 41 -6 20 vhcurveto
          75 12 67 162 35 63 4 -5 rcurveline
          3 -34 3 -19 -1 -22 3 -13 rlinecurve
          -4 vlineto
          3 -34 10 -85 -4 vvcurveto
          -36 5 13 -23 39 hhcurveto
          19 13 10 20 7 0 7 -1 5 hvcurveto
          1 15 vlineto
          59 47 47 41 43 hvcurveto
          161 161 6 -41 8 72 rrcurveto
          -474 147 rmoveto
          -5 -111 -29 -91 -83 -80 rrcurveto
          -1 -1 -3 -4 -1 hhcurveto
          17 18 109 14 41 vhcurveto
          15 43 39 50 36 27 rrcurveto
          188 -112 rmoveto
          -7 -5 39 63 8 11 16 24 24 -39 -14 -11 rrcurveto
          endchar
        </CharString>
        <CharString name="aeacute">
          299 708 330 rmoveto
          77 -73 -33 -14 -20 vhcurveto
          -41 -63 -160 -148 rlineto
          -4 -11 -8 -13 -11 hhcurveto
          -1 -1 1 1 -1 hvcurveto
          -1 1 0 0 1 vvcurveto
          29 8 73 4 9 vhcurveto
          4 8 8 5 45 34 7 7 rlinecurve
          12 13 12 12 rlineto
          1 3 5 4 1 hhcurveto
          27 21 42 26 40 vvcurveto
          32 -68 67 -33 -56 -24 -53 -45 -19 vhcurveto
          -8 -22 -4 -11 -1 29 -2 26 -3 22 rlinecurve
          -8 83 -15 36 -40 -1 rrcurveto
          -3 -9 -1 -3 hhcurveto
          -179 -48 -68 -179 -3 -271 rrcurveto
          -28 41 -6 20 vhcurveto
          75 12 67 162 35 63 4 -5 rcurveline
          3 -34 3 -19 -1 -22 3 -13 rlinecurve
          -4 vlineto
          3 -34 10 -85 -4 vvcurveto
          -36 5 13 -23 39 hhcurveto
          19 13 10 20 7 0 7 -1 5 hvcurveto
          1 15 vlineto
          59 47 47 41 43 hvcurveto
          161 161 6 -41 8 72 rrcurveto
          -474 147 rmoveto
          -5 -111 -29 -91 -83 -80 rrcurveto
          -1 -1 -3 -4 -1 hhcurveto
          17 18 109 14 41 vhcurveto
          15 43 39 50 36 27 rrcurveto
          188 -112 rmoveto
          -7 -5 39 63 8 11 16 24 24 -39 -14 -11 rrcurveto
          -198 221 rmoveto
          27 -51 67 84 21 26 11 16 23 17 -16 24 -15 23 -17 6 -20 -16 -36 -59 -53 -1 8 -69 rrcurveto
          endchar
        </CharString>
        <CharString name="agrave">
          -24 260 274 rmoveto
          3 -34 3 -19 -1 -22 3 -13 rlinecurve
          -4 vlineto
          3 -34 10 -85 -4 vvcurveto
          -36 5 13 -23 39 hhcurveto
          19 13 10 20 15 0 8 -4 15 hvcurveto
          -21 360 18 150 -80 -3 rrcurveto
          -3 -9 -1 -3 hhcurveto
          -179 -48 -68 -179 -3 -271 rrcurveto
          -28 41 -6 20 vhcurveto
          75 12 67 162 35 63 rrcurveto
          -22 198 rmoveto
          -5 -111 -29 -91 -83 -80 rrcurveto
          -1 -1 -3 -4 -1 hhcurveto
          17 18 109 14 41 vhcurveto
          15 43 39 50 36 27 rrcurveto
          41 131 rmoveto
          8 63 -56 3 -39 54 -21 15 -19 -7 -15 -20 -15 -21 20 -18 14 -14 22 -25 72 -77 29 47 rrcurveto
          endchar
        </CharString>
        <CharString name="amacron">
          -24 260 274 rmoveto
          3 -34 3 -19 -1 -22 3 -13 rlinecurve
          -4 vlineto
          3 -34 10 -85 -4 vvcurveto
          -36 5 13 -23 39 hhcurveto
          19 13 10 20 15 0 8 -4 15 hvcurveto
          -21 360 18 150 -80 -3 rrcurveto
          -3 -9 -1 -3 hhcurveto
          -179 -48 -68 -179 -3 -271 rrcurveto
          -28 41 -6 20 vhcurveto
          75 12 67 162 35 63 rrcurveto
          -22 198 rmoveto
          -5 -111 -29 -91 -83 -80 rrcurveto
          -1 -1 -3 -4 -1 hhcurveto
          17 18 109 14 41 vhcurveto
          15 43 39 50 36 27 rrcurveto
          -203 237 rmoveto
          -19 21 -12 17 vhcurveto
          247 27 rlineto
          11 -6 40 27 11 vvcurveto
          27 -24 5 -23 vhcurveto
          -251 -25 rlineto
          -19 -4 -19 -8 -23 vvcurveto
          endchar
        </CharString>
        <CharString name="ampersand">
          -75 309 220 rmoveto
          9 -7 -2 5 -13 hhcurveto
          -1 -1 -17 -2 -1 hhcurveto
          -15 -2 -10 0 -6 2 -43 11 -84 63 44 21 47 16 31 -11 48 16 15 4 3 16 -8 12 -21 29 -63 30 -40 32 6 3 rcurveline
          42 13 33 -19 34 13 13 5 16 12 -12 15 -24 88 -176 -47 -36 -32 -18 -5 -4 -12 11 -18 1 -1 2 -5 3 -3 36 -35 32 -15 23 -28 -15 -5 -39 -3 -10 -5 -40 -13 -16 -39 15 -39 rrcurveto
          1 -3 10 -20 4 -4 37 -61 55 -31 76 -13 20 -4 19 1 17 5 12 2 22 41 -7 12 rrcurveto
          -150 -237 rmoveto
          -30 6 11 3 42 hhcurveto
          36 -19 90 24 -5 hvcurveto
          -4 28 -17 20 -33 -5 -17 -4 -12 -13 -3 -17 7 -27 3 -42 5 -27 rrcurveto
          -40 684 rmoveto
          -27 7 13 -47 45 hhcurveto
          36 -13 90 26 -3 hvcurveto
          -7 27 -12 19 -35 -5 -17 -3 -14 -14 -1 -17 3 -26 -5 1 3 -24 rrcurveto
          endchar
        </CharString>
        <CharString name="aogonek">
          -24 229 -123 rmoveto
          -68 37 -45 65 vhcurveto
          119 12 -21 183 -64 -89 -11 -29 -29 -15 -19 19 -7 25 0 27 7 30 5 22 9 24 13 27 rrcurveto
          5 hlineto
          19 13 10 20 15 0 8 -4 15 hvcurveto
          -21 360 18 150 -80 -3 rrcurveto
          -3 -9 -1 -3 hhcurveto
          -179 -48 -68 -179 -3 -271 rrcurveto
          -28 41 -6 20 vhcurveto
          75 12 67 162 35 63 4 -5 rcurveline
          3 -34 3 -19 -1 -22 3 -13 rlinecurve
          -4 vlineto
          3 -34 10 -85 -4 vvcurveto
          3 -16 -5 -2 -5 -3 -5 -3 rlinecurve
          -24 -19 -16 -46 -93 vvcurveto
          5 600 rmoveto
          -5 -111 -29 -91 -83 -80 rrcurveto
          -1 -1 -3 -4 -1 hhcurveto
          17 18 109 14 41 vhcurveto
          15 43 39 50 36 27 rrcurveto
          endchar
        </CharString>
        <CharString name="aring">
          -24 222 716 rmoveto
          -115 -84 16 -55 43 -22 10 -5 10 -3 10 -3 -15 -9 -14 -10 -13 -11 -95 -85 -39 -149 -2 -204 rrcurveto
          -28 41 -6 20 vhcurveto
          75 12 67 162 35 63 4 -5 rcurveline
          3 -34 3 -19 -1 -22 3 -13 rlinecurve
          -4 vlineto
          3 -34 10 -85 -4 vvcurveto
          -36 5 13 -23 39 hhcurveto
          19 13 10 20 15 0 8 -4 15 hvcurveto
          -16 271 5 149 -29 59 -7 17 -12 9 -16 1 2 3 rcurveline
          23 19 15 24 17 vvcurveto
          29 -21 54 -57 vhcurveto
          -12 -7 -4 -11 hhcurveto
          11 -239 rmoveto
          -5 -111 -29 -91 -83 -80 rrcurveto
          -1 -1 -3 -4 -1 hhcurveto
          17 18 109 14 41 vhcurveto
          15 43 39 50 36 27 rrcurveto
          39 162 rmoveto
          3 -33 -71 -27 -13 40 3 45 75 42 3 -67 rrcurveto
          endchar
        </CharString>
        <CharString name="asciicircum">
          -69 32 675 rmoveto
          -18 -10 40 -13 16 hhcurveto
          4 15 5 3 3 hvcurveto
          61 95 4 22 8 10 4 3 rcurveline
          67 -99 rlineto
          -11 7 15 -8 17 hhcurveto
          20 13 4 15 7 0 1 -4 7 hvcurveto
          -8 11 -34 54 -8 10 rrcurveto
          1 -6 7 -1 1 vhcurveto
          -8 11 -44 62 -8 13 rrcurveto
          8 -8 -7 1 -11 hhcurveto
          -13 -17 0 -11 -5 hvcurveto
          -19 -45 rlineto
          endchar
        </CharString>
        <CharString name="asciitilde">
          -15 39 502 rmoveto
          -16 17 -10 9 vhcurveto
          20 17 88 27 hhcurveto
          35 -30 38 -58 47 3 rrcurveto
          39 41 74 57 19 -3 13 -15 -26 -7 -40 -24 -16 hvcurveto
          -7 -4 -9 -20 -9 hhcurveto
          -13 -5 12 7 -11 hvcurveto
          -57 72 rlineto
          11 -8 -8 0 -9 hhcurveto
          -49 -16 -21 -63 -18 -55 rrcurveto
          -1 -7 -1 -3 -7 vvcurveto
          endchar
        </CharString>
        <CharString name="asterisk">
          14 55 157 rmoveto
          3 -3 15 -20 25 -4 20 15 rlinecurve
          20 17 19 19 19 19 5 -32 -1 -33 -1 -31 22 -21 rcurveline
          3 hlineto
          24 20 17 25 23 -4 24 -4 24 hvcurveto
          51 -39 29 -11 15 -29 32 -3 rlinecurve
          1 1 0 0 1 hhcurveto
          21 17 -11 13 -8 19 -97 87 rcurveline
          70 17 26 18 31 -7 23 23 rlinecurve
          3 vlineto
          29 -17 -3 -20 5 vhcurveto
          -38 -6 7 4 5 4 7 5 rlinecurve
          4 3 20 16 4 4 5 5 1 7 -1 8 -1 1 -4 8 -3 3 -11 15 -5 5 -19 -11 -118 -77 rcurveline
          1 39 3 36 39 vvcurveto
          36 vlineto
          -4 7 -5 6 -5 4 rrcurveto
          -3 -9 1 -3 hhcurveto
          -19 -6 0 -23 -3 hvcurveto
          -13 -142 -15 12 -18 15 -9 11 rlinecurve
          -2 -18 24 1 hvcurveto
          -3 3 -13 13 -4 3 -8 -11 -10 0 -11 -7 -17 -15 -3 -16 13 -17 20 -27 32 -15 23 -23 -53 -12 rcurveline
          -34 hlineto
          -3 -18 -3 -1 -5 hvcurveto
          4 -12 -8 -8 -12 vvcurveto
          -23 11 -12 23 12 13 2 3 13 vhcurveto
          -27 -20 rlineto
          endchar
        </CharString>
        <CharString name="at">
          339 22 190 rmoveto
          -125 134 -65 108 64 51 15 19 60 vhcurveto
          17 5 13 12 16 4 24 11 104 48 20 13 rrcurveto
          3 46 32 10 15 hvcurveto
          16 11 35 25 23 vvcurveto
          21 -29 9 -17 -33 -24 -50 -13 -29 vhcurveto
          -240 -115 -4 -2 -61 -12 -19 -3 rlinecurve
          -20 hlineto
          -83 -84 36 95 24 1 8 8 27 hvcurveto
          8 21 39 95 8 19 rrcurveto
          69 32 107 135 76 hhcurveto
          76 -19 -15 -119 -5 -88 rrcurveto
          -32 3 -53 -29 -24 vhcurveto
          -11 7 -2 20 9 39 10 35 39 3 -1 18 4 vvcurveto
          21 -19 -16 21 -29 hhcurveto
          -23 -34 -19 -19 -19 hvcurveto
          -51 -53 -72 -73 -81 vvcurveto
          -27 24 -24 28 60 30 61 45 24 vhcurveto
          1 3 3 1 1 vhcurveto
          7 -12 -3 -2 5 -12 rrcurveto
          -43 16 19 -34 51 hhcurveto
          76 19 88 61 85 14 260 -127 -168 -204 -341 -148 hvcurveto
          211 120 rmoveto
          41 60 68 15 -80 -83 -27 -29 -21 -6 19 43 rrcurveto
          endchar
        </CharString>
        <CharString name="atilde">
          -24 260 274 rmoveto
          3 -34 3 -19 -1 -22 3 -13 rlinecurve
          -4 vlineto
          3 -34 10 -85 -4 vvcurveto
          -36 5 13 -23 39 hhcurveto
          19 13 10 20 15 0 8 -4 15 hvcurveto
          -21 360 18 150 -80 -3 rrcurveto
          -3 -9 -1 -3 hhcurveto
          -179 -48 -68 -179 -3 -271 rrcurveto
          -28 41 -6 20 vhcurveto
          75 12 67 162 35 63 rrcurveto
          -22 198 rmoveto
          -5 -111 -29 -91 -83 -80 rrcurveto
          -1 -1 -3 -4 -1 hhcurveto
          17 18 109 14 41 vhcurveto
          15 43 39 50 36 27 rrcurveto
          -140 143 rmoveto
          -16 17 -10 9 vhcurveto
          20 17 88 27 hhcurveto
          35 -30 38 -58 47 3 rrcurveto
          39 41 74 57 19 -3 13 -15 -26 -7 -40 -24 -16 hvcurveto
          -7 -4 -9 -20 -9 hhcurveto
          -13 -5 12 7 -11 hvcurveto
          -57 72 rlineto
          11 -8 -8 0 -9 hhcurveto
          -49 -16 -21 -63 -18 -55 rrcurveto
          -1 -7 -1 -3 -7 vvcurveto
          endchar
        </CharString>
        <CharString name="b">
          -39 47 308 rmoveto
          -261 vlineto
          -32 42 -16 24 vhcurveto
          171 183 235 289 -247 36 rrcurveto
          -35 -43 -3 -23 -29 hvcurveto
          -18 -14 -3 -1 2 0 -15 -5 rlinecurve
          -28 39 68 289 -113 -20 rrcurveto
          -13 -15 -9 -17 hvcurveto
          11 -112 2 -102 -111 vvcurveto
          -51 vlineto
          -8 -8 -9 -12 -11 vvcurveto
          -2 vlineto
          105 -77 rmoveto
          14 1 62 3 13 vhcurveto
          40 19 70 54 47 hhcurveto
          29 -18 -15 -53 -11 -27 -24 -53 -83 -154 -31 -6 rrcurveto
          10 vlineto
          11 -1 12 9 vvcurveto
          11 vlineto
          8 -4 59 8 vvcurveto
          endchar
        </CharString>
        <CharString name="backslash">
          140 467 22 rmoveto
          -16 8 23 -7 16 hhcurveto
          27 10 13 24 25 -6 11 -19 20 hvcurveto
          -427 795 rlineto
          19 -11 -12 10 -23 hhcurveto
          -19 -24 -13 -23 hvcurveto
          -1 vlineto
          endchar
        </CharString>
        <CharString name="bar">
          -258 22 910 rmoveto
          -93 13 -93 4 -95 vhcurveto
          5 -165 0 -162 3 -167 rrcurveto
          -76 vlineto
          -25 3 20 -34 29 hhcurveto
          23 22 15 27 7 2 7 -7 7 hvcurveto
          -17 104 8 109 -3 104 -4 175 -3 171 -15 173 rrcurveto
          27 -11 -9 12 -31 hhcurveto
          -23 -9 -1 -27 hvcurveto
          endchar
        </CharString>
        <CharString name="braceleft">
          -32 156 44 rmoveto
          -51 13 -77 67 49 53 61 47 19 0 -3 -17 15 vhcurveto
          -3 hlineto
          -29 -21 -49 -25 hhcurveto
          -4 74 38 327 -92 28 rrcurveto
          123 -43 127 77 109 vhcurveto
          49 78 115 -43 -12 54 rrcurveto
          36 -52 -3 -20 vhcurveto
          -194 -20 -32 -246 32 -152 rrcurveto
          -19 0 -27 -13 -17 vhcurveto
          -13 -16 -67 -28 -23 vvcurveto
          -27 25 -15 23 32 26 27 11 29 vhcurveto
          40 -103 -23 -112 -8 -105 rrcurveto
          endchar
        </CharString>
        <CharString name="braceright">
          -127 18 -76 rmoveto
          -26 37 -13 21 93 103 123 87 69 -44 21 -41 22 vhcurveto
          -19 11 -43 10 30 vvcurveto
          51 71 -4 5 37 vhcurveto
          29 -30 39 -30 -17 vhcurveto
          4 vlineto
          24 15 20 11 20 vhcurveto
          24 44 7 52 11 51 rrcurveto
          152 48 -82 67 -50 hhcurveto
          -170 24 72 -83 25 -12 rrcurveto
          83 -2 -63 -14 hvcurveto
          16 -110 -85 -90 -8 -99 rrcurveto
          -20 1 -13 9 -9 vhcurveto
          4 -4 rlineto
          -2 vlineto
          -8 -26 -31 -27 vvcurveto
          8 -110 141 18 -73 vvcurveto
          -51 -37 -45 -39 -31 vhcurveto
          -21 -16 -78 -2 -32 vvcurveto
          endchar
        </CharString>
        <CharString name="bracketleft">
          -11 47 -42 rmoveto
          -39 10 -32 43 vhcurveto
          8 hlineto
          2 2 0 1 2 hvcurveto
          270 110 rlineto
          9 4 0 15 8 vvcurveto
          24 -18 9 -23 -9 -9 -8 3 -8 vhcurveto
          -173 -77 rlineto
          -7 hlineto
          -7 hlineto
          -3 3 -2 11 1 4 7 225 -21 222 -15 224 rrcurveto
          20 vlineto
          14 vlineto
          4 4 144 64 rlineto
          19 8 36 15 27 vvcurveto
          17 -9 8 -18 -11 -18 3 -11 -4 vhcurveto
          -43 -23 -45 -20 -47 -20 -19 -8 -33 0 -19 -9 -5 -3 -15 -14 -1 -4 rrcurveto
          -7 vlineto
          -23 5 -20 3 -23 vhcurveto
          7 -61 2 -76 4 -65 3 -64 -2 -62 3 -64 rrcurveto
          3 -49 5 -50 -49 -55 -8 -52 -55 vvcurveto
          endchar
        </CharString>
        <CharString name="bracketright">
          -3 138 -57 rmoveto
          -5 8 25 -3 6 2 23 8 5 hhcurveto
          7 31 32 2 31 25 22 -5 25 hhcurveto
          19 9 17 19 hvcurveto
          3 -1 7 1 vvcurveto
          -64 639 -15 77 75 vvcurveto
          22 vlineto
          2 4 30 2 vvcurveto
          29 -8 -27 4 -25 hhcurveto
          -23 -28 -7 -1 -25 hvcurveto
          -12 -101 -9 -13 hhcurveto
          -24 -1 -27 -6 -31 vvcurveto
          -31 55 -7 21 3 8 3 1 1 vhcurveto
          131 13 5 -4 rlineto
          1 3 -32 -10 hvcurveto
          -46 vlineto
          51 -464 28 -158 3 -67 rrcurveto
          -8 vlineto
          -10 -70 2 -11 hhcurveto
          -16 -89 -4 -32 hvcurveto
          -2 vlineto
          3 -4 8 -21 1 -5 rrcurveto
          endchar
        </CharString>
        <CharString name="breve">
          -144 138 610 rmoveto
          97 -8 18 80 -11 60 -16 -85 -138 -29 -27 105 -15 -15 -39 -97 131 -11 rrcurveto
          endchar
        </CharString>
        <CharString name="brokenbar">
          -282 102 348 rmoveto
          5 68 7 69 7 68 -7 20 -11 16 -21 3 rrcurveto
          -45 3 7 -58 -26 vvcurveto
          -3 -55 -5 -53 -5 -55 rrcurveto
          6 -35 rmoveto
          -5 -48 -9 -15 -48 vvcurveto
          -60 -1 -43 5 -61 vhcurveto
          -20 7 10 -19 24 hhcurveto
          28 3 33 20 hvcurveto
          32 -5 32 32 vvcurveto
          66 -5 33 5 66 vhcurveto
          endchar
        </CharString>
        <CharString name="bullet">
          -158 51 294 rmoveto
          -38 48 -42 36 52 35 46 47 vhcurveto
          6 vlineto
          32 -27 -27 29 -45 hhcurveto
          -37 -35 -42 -38 hvcurveto
          endchar
        </CharString>
        <CharString name="c">
          -69 23 120 rmoveto
          -68 57 -53 65 67 124 139 62 23 -23 9 -21 -37 4 -15 -27 -16 vhcurveto
          -19 -31 -22 -27 -23 -27 rrcurveto
          -13 -11 -16 -20 -19 hhcurveto
          -50 79 43 125 44 78 rrcurveto
          1 1 3 3 1 hhcurveto
          -19 14 -50 -5 -8 vhcurveto
          -28 7 13 -4 23 hhcurveto
          17 12 15 15 4 hvcurveto
          3 -3 7 -1 3 vhcurveto
          103 -5 12 3 vvcurveto
          -102 110 -154 -279 28 -121 rrcurveto
          endchar
        </CharString>
        <CharString name="cacute">
          -69 23 120 rmoveto
          -68 57 -53 65 67 124 139 62 23 -23 9 -21 -37 4 -15 -27 -16 vhcurveto
          -19 -31 -22 -27 -23 -27 rrcurveto
          -13 -11 -16 -20 -19 hhcurveto
          -50 79 43 125 44 78 rrcurveto
          1 1 3 3 1 hhcurveto
          -19 14 -50 -5 -8 vhcurveto
          -28 7 13 -4 23 hhcurveto
          17 12 15 15 4 hvcurveto
          3 -3 7 -1 3 vhcurveto
          103 -5 12 3 vvcurveto
          -102 110 -154 -279 28 -121 rrcurveto
          83 509 rmoveto
          27 -51 67 84 21 26 11 16 23 17 -16 24 -15 23 -17 6 -20 -16 -36 -59 -53 -1 8 -69 rrcurveto
          endchar
        </CharString>
        <CharString name="caron">
          -69 134 664 rmoveto
          3 -4 11 -20 3 -5 rrcurveto
          -7 5 16 0 12 hhcurveto
          11 5 1 5 7 hvcurveto
          56 55 rlineto
          1 5 5 1 hvcurveto
          7 5 35 36 4 6 rrcurveto
          4 5 0 1 4 vvcurveto
          11 -11 1 -19 -17 -12 -4 -8 -7 vhcurveto
          -62 -63 -4 2 -7 7 -4 13 -56 61 rlinecurve
          3 -3 -14 2 -3 hhcurveto
          -15 -37 -8 -12 9 hvcurveto
          endchar
        </CharString>
        <CharString name="ccaron">
          -69 23 120 rmoveto
          -68 57 -53 65 67 124 139 62 23 -23 9 -21 -37 4 -15 -27 -16 vhcurveto
          -19 -31 -22 -27 -23 -27 rrcurveto
          -13 -11 -16 -20 -19 hhcurveto
          -50 79 43 125 44 78 rrcurveto
          1 1 3 3 1 hhcurveto
          -19 14 -50 -5 -8 vhcurveto
          -28 7 13 -4 23 hhcurveto
          17 12 15 15 4 hvcurveto
          3 -3 7 -1 3 vhcurveto
          103 -5 12 3 vvcurveto
          -102 110 -154 -279 28 -121 rrcurveto
          106 450 rmoveto
          3 -4 11 -20 3 -5 rrcurveto
          -7 5 16 0 12 hhcurveto
          11 5 1 5 7 hvcurveto
          56 55 rlineto
          1 5 5 1 hvcurveto
          7 5 35 36 4 6 rrcurveto
          4 5 0 1 4 vvcurveto
          11 -11 1 -19 -17 -12 -4 -8 -7 vhcurveto
          -62 -63 -4 2 -7 7 -4 13 -56 61 rlinecurve
          3 -3 -14 2 -3 hhcurveto
          -15 -37 -8 -12 9 hvcurveto
          endchar
        </CharString>
        <CharString name="ccedilla">
          -69 106 -278 rmoveto
          -20 24 -19 19 7 12 1 4 3 vhcurveto
          143 51 83 -11 -24 114 -42 98 -108 -39 -70 14 rrcurveto
          1 vlineto
          3 16 22 8 9 vhcurveto
          7 25 2 19 -3 13 rrcurveto
          1 0 0 -1 1 vhcurveto
          7 3 7 4 7 5 rrcurveto
          63 44 70 88 47 vvcurveto
          23 -23 9 -21 -37 4 -15 -27 -16 vhcurveto
          -19 -31 -22 -27 -23 -27 rrcurveto
          -13 -11 -16 -20 -19 hhcurveto
          -50 79 43 125 44 78 2 2 rcurveline
          1 1 1 1 1 hhcurveto
          -19 14 -50 -5 -8 vhcurveto
          -28 7 13 -4 23 hhcurveto
          17 12 15 15 4 hvcurveto
          3 -3 7 -1 3 vhcurveto
          103 -5 12 3 vvcurveto
          -102 110 -154 -279 28 -121 rrcurveto
          -52 32 -41 43 -19 vhcurveto
          -1 1 2 0 1 hhcurveto
          -1 -1 -23 -24 -20 -37 -8 -44 rlinecurve
          -53 84 -8 37 vhcurveto
          18 3 95 11 -21 -48 -21 -55 -98 29 -33 -41 rrcurveto
          -5 -5 0 -5 -7 vvcurveto
          endchar
        </CharString>
        <CharString name="ccircumflex">
          -69 23 120 rmoveto
          -68 57 -53 65 67 124 139 62 23 -23 9 -21 -37 4 -15 -27 -16 vhcurveto
          -19 -31 -22 -27 -23 -27 rrcurveto
          -13 -11 -16 -20 -19 hhcurveto
          -50 79 43 125 44 78 rrcurveto
          1 1 3 3 1 hhcurveto
          -19 14 -50 -5 -8 vhcurveto
          -28 7 13 -4 23 hhcurveto
          17 12 15 15 4 hvcurveto
          3 -3 7 -1 3 vhcurveto
          103 -5 12 3 vvcurveto
          -102 110 -154 -279 28 -121 rrcurveto
          17 418 rmoveto
          -18 -10 40 -13 16 hhcurveto
          4 15 5 3 3 hvcurveto
          61 95 4 22 8 10 4 3 rcurveline
          67 -99 rlineto
          -11 7 15 -8 17 hhcurveto
          20 13 4 15 7 0 1 -4 7 hvcurveto
          -8 11 -34 54 -8 10 rrcurveto
          1 -6 7 -1 1 vhcurveto
          -8 11 -44 62 -8 13 rrcurveto
          8 -8 -7 1 -11 hhcurveto
          -13 -17 0 -11 -5 hvcurveto
          -19 -45 rlineto
          endchar
        </CharString>
        <CharString name="cdotaccent">
          -69 23 120 rmoveto
          -68 57 -53 65 67 124 139 62 23 -23 9 -21 -37 4 -15 -27 -16 vhcurveto
          -19 -31 -22 -27 -23 -27 rrcurveto
          -13 -11 -16 -20 -19 hhcurveto
          -50 79 43 125 44 78 rrcurveto
          1 1 3 3 1 hhcurveto
          -19 14 -50 -5 -8 vhcurveto
          -28 7 13 -4 23 hhcurveto
          17 12 15 15 4 hvcurveto
          3 -3 7 -1 3 vhcurveto
          103 -5 12 3 vvcurveto
          -102 110 -154 -279 28 -121 rrcurveto
          91 457 rmoveto
          -29 35 -35 27 39 24 37 37 vhcurveto
          5 vlineto
          25 -19 -20 24 -33 hhcurveto
          -27 -26 -35 -29 hvcurveto
          endchar
        </CharString>
        <CharString name="cedilla">
          -9 113 -270 rmoveto
          -20 24 -19 19 7 12 1 4 3 vhcurveto
          143 51 83 -11 -24 114 -42 98 -108 -39 -70 14 rrcurveto
          1 vlineto
          3 16 22 8 9 vhcurveto
          40 149 -143 -65 -24 -133 rrcurveto
          -53 84 -8 37 vhcurveto
          18 3 95 11 -21 -48 -21 -55 -98 29 -33 -41 rrcurveto
          -5 -5 0 -5 -7 vvcurveto
          endchar
        </CharString>
        <CharString name="cent">
          -69 137 383 rmoveto
          -73 -67 -62 -115 21 -81 rrcurveto
          -68 57 -53 65 5 3 0 1 2 vhcurveto
          -31 11 16 -29 16 hhcurveto
          23 23 7 27 4 -2 28 -3 24 hvcurveto
          49 29 44 43 39 vvcurveto
          23 -23 9 -21 -37 4 -15 -27 -16 vhcurveto
          -7 -11 -5 -2 -7 -1 -11 60 3 74 5 93 12 -1 10 0 3 -3 rrcurveto
          15 -15 13 -33 -13 vvcurveto
          18 38 5 14 6 hvcurveto
          3 -3 7 -1 3 vhcurveto
          -8 111 -51 28 -55 -18 -5 77 21 20 -52 3 -38 8 2 -9 -5 -148 rrcurveto
          -4 -311 rmoveto
          -37 58 13 86 29 71 rrcurveto
          1 -61 1 -56 -35 -5 -1 -39 -19 vvcurveto
          endchar
        </CharString>
        <CharString name="circumflex">
          -69 32 675 rmoveto
          -18 -10 40 -13 16 hhcurveto
          4 15 5 3 3 hvcurveto
          61 95 4 22 8 10 4 3 rcurveline
          67 -99 rlineto
          -11 7 15 -8 17 hhcurveto
          20 13 4 15 7 0 1 -4 7 hvcurveto
          -8 11 -34 54 -8 10 rrcurveto
          1 -6 7 -1 1 vhcurveto
          -8 11 -44 62 -8 13 rrcurveto
          8 -8 -7 1 -11 hhcurveto
          -13 -17 0 -11 -5 hvcurveto
          -19 -45 rlineto
          endchar
        </CharString>
        <CharString name="colon">
          -288 22 154 rmoveto
          -27 25 -14 24 15 21 11 19 3 vhcurveto
          29 3 -35 23 -25 hhcurveto
          -19 -12 -22 -19 hvcurveto
          4 204 rmoveto
          -23 3 28 -10 19 hhcurveto
          16 23 14 19 -5 hvcurveto
          9 -24 29 -10 -21 -32 -11 -27 3 vhcurveto
          endchar
        </CharString>
        <CharString name="comma">
          -290 18 -31 rmoveto
          -19 7 -33 23 45 -21 57 24 19 vhcurveto
          3 14 11 71 3 16 rrcurveto
          1 1 0 9 4 vvcurveto
          27 -17 10 -25 -28 0 -27 -20 -3 vhcurveto
          -9 -16 -95 -2 -9 vhcurveto
          endchar
        </CharString>
        <CharString name="commaaccent">
          -13 195 -181 rmoveto
          50 -8 -4 50 5 66 rrcurveto
          1 1 0 9 4 vvcurveto
          27 -17 10 -25 -33 -36 -25 -22 38 vhcurveto
          57 -22 -74 -61 38 -29 rrcurveto
          endchar
        </CharString>
        <CharString name="copyright">
          293 201 220 rmoveto
          -68 57 -53 65 67 124 139 62 23 -23 9 -21 -37 4 -15 -27 -16 vhcurveto
          -19 -31 -22 -27 -23 -27 rrcurveto
          -13 -11 -16 -20 -19 hhcurveto
          -50 79 43 125 44 78 rrcurveto
          1 1 3 3 1 hhcurveto
          -19 14 -50 -5 -8 vhcurveto
          -28 7 13 -4 23 hhcurveto
          17 12 15 15 4 hvcurveto
          3 -3 7 -1 3 vhcurveto
          103 -5 12 3 vvcurveto
          -102 110 -154 -279 28 -121 rrcurveto
          -135 -19 rmoveto
          -257 56 271 58 41 hhcurveto
          105 101 152 81 56 -20 153 -19 53 hvcurveto
          -30 70 -53 99 -75 3 -366 69 -22 -486 11 -51 rrcurveto
          97 -67 rmoveto
          -119 334 268 163 134 -39 rrcurveto
          47 -4 71 -275 -49 vvcurveto
          -73 -72 -63 -56 -50 vhcurveto
          -8 hlineto
          4 -233 -20 76 -36 hvcurveto
          endchar
        </CharString>
        <CharString name="currency">
          75 46 70 rmoveto
          -5 -18 23 -22 16 -3 39 -1 30 41 27 47 rrcurveto
          -13 16 19 -8 27 hhcurveto
          37 38 23 35 31 hvcurveto
          16 -21 14 -17 15 -4 19 -5 21 6 7 21 rrcurveto
          2 vlineto
          1 -1 3 3 vvcurveto
          5 vlineto
          -47 68 rlineto
          19 32 10 34 28 vvcurveto
          37 -10 54 -23 40 vhcurveto
          60 99 rlineto
          1 1 4 1 hvcurveto
          7 23 -17 18 -19 5 -11 3 -17 3 -7 -11 -27 -39 -18 -29 -15 -24 rrcurveto
          3 -8 -7 1 -8 -19 -10 -9 -16 hhcurveto
          -1 hlineto
          -29 -25 -16 19 -12 49 -7 7 -8 5 -11 3 -19 5 -20 -8 -7 -20 rrcurveto
          -2 vlineto
          -1 -1 0 -1 0 vvcurveto
          11 -20 9 -23 12 -25 -29 -202 rcurveline
          -3 vlineto
          -17 1 -15 3 -13 vhcurveto
          -41 -60 -40 -54 -3 -15 rrcurveto
          154 172 rmoveto
          39 5 50 16 35 vhcurveto
          56 112 65 -76 -11 -91 rrcurveto
          -55 -54 -49 -34 -31 vhcurveto
          -36 -13 -2 49 -5 27 rrcurveto
          endchar
        </CharString>
        <CharString name="d">
          -11 274 158 rmoveto
          3 4 0 -4 hvcurveto
          37 -267 rlineto
          -20 4 28 -12 20 hhcurveto
          9 29 1 15 hvcurveto
          34 vlineto
          -76 526 -17 136 8 135 rrcurveto
          29 -4 -18 23 -31 hhcurveto
          -12 -11 -3 -15 -4 hvcurveto
          -173 9 -67 -70 vvcurveto
          -14 vlineto
          -119 32 -127 -229 8 -96 rrcurveto
          -63 44 -38 59 vhcurveto
          86 69 140 2 hhcurveto
          -176 -22 rmoveto
          79 43 65 57 51 vhcurveto
          143 33 -133 -278 -100 4 rrcurveto
          -15 5 38 8 hvcurveto
          endchar
        </CharString>
        <CharString name="dagger">
          -20 129 458 rmoveto
          8 -76 11 -265 8 -69 rrcurveto
          -36 3 24 -23 36 hhcurveto
          17 8 27 12 41 -19 213 -4 41 hvcurveto
          -7 47 -1 51 47 vvcurveto
          32 vlineto
          4 4 4 1 4 3 120 38 rcurveline
          15 7 16 6 17 vvcurveto
          24 -14 21 -27 -40 25 5 -13 -34 vhcurveto
          -12 -5 -58 -21 -11 -3 rrcurveto
          -3 35 -10 82 35 vvcurveto
          36 -3 8 70 -53 hhcurveto
          -23 -14 -5 -27 hvcurveto
          -96 14 -22 -98 vvcurveto
          -44 vlineto
          -26 -21 -73 -7 -40 vvcurveto
          -23 21 -2 10 -12 vhcurveto
          3 15 -1 3 20 12 14 19 hhcurveto
          endchar
        </CharString>
        <CharString name="daggerdbl">
          -20 39 337 rmoveto
          -19 21 -12 17 vhcurveto
          61 19 5 -104 8 -129 5 -44 rlinecurve
          -36 3 24 -23 36 hhcurveto
          17 8 27 12 41 -19 213 -4 41 hvcurveto
          -3 27 123 38 rlineto
          11 -6 40 27 11 vvcurveto
          27 -24 5 -23 vhcurveto
          -131 -39 rlineto
          -1 19 0 17 19 vvcurveto
          32 vlineto
          4 4 4 1 4 3 120 38 rcurveline
          15 7 16 6 17 vvcurveto
          24 -14 21 -27 -40 25 5 -13 -34 vhcurveto
          -12 -5 -58 -21 -11 -3 rrcurveto
          -3 35 -10 82 35 vvcurveto
          36 -3 8 70 -53 hhcurveto
          -23 -14 -5 -27 hvcurveto
          -96 14 -22 -98 vvcurveto
          -44 vlineto
          -26 -21 -73 -7 -40 vvcurveto
          -23 21 -2 10 -12 vhcurveto
          3 15 -1 3 20 12 14 19 hhcurveto
          4 hlineto
          1 -16 1 -24 3 -29 -57 -17 rcurveline
          -19 -4 -19 -8 -23 vvcurveto
          endchar
        </CharString>
        <CharString name="degree">
          -144 121 609 rmoveto
          -155 -112 84 -58 61 -3 rrcurveto
          59 60 59 35 29 -21 54 -57 hvcurveto
          -12 -7 -4 -11 hhcurveto
          50 -77 rmoveto
          3 -33 -71 -27 -13 40 3 45 75 42 3 -67 rrcurveto
          endchar
        </CharString>
        <CharString name="dieresis">
          -121 40 710 rmoveto
          -19 24 -19 17 25 17 21 23 vhcurveto
          3 vlineto
          15 -13 -12 14 -23 hhcurveto
          -19 -16 -19 -19 hvcurveto
          129 hmoveto
          -19 24 -19 17 25 17 21 23 vhcurveto
          3 vlineto
          15 -13 -12 14 -23 hhcurveto
          -19 -16 -19 -19 hvcurveto
          endchar
        </CharString>
        <CharString name="divide">
          -47 113 154 rmoveto
          -27 25 -14 24 15 21 11 19 3 vhcurveto
          29 3 -35 23 -25 hhcurveto
          -19 -12 -22 -19 hvcurveto
          4 204 rmoveto
          -23 3 28 -10 19 hhcurveto
          16 23 14 19 -5 hvcurveto
          9 -24 29 -10 -21 -32 -11 -27 3 vhcurveto
          -103 -106 rmoveto
          -19 21 -12 17 vhcurveto
          247 27 rlineto
          11 -6 40 27 11 vvcurveto
          27 -24 5 -23 vhcurveto
          -251 -25 rlineto
          -19 -4 -19 -8 -23 vvcurveto
          endchar
        </CharString>
        <CharString name="dollar">
          -81 179 22 rmoveto
          -19 11 13 -3 16 hhcurveto
          9 20 18 12 hvcurveto
          -30 185 rlineto
          30 vlineto
          40 35 66 54 58 vvcurveto
          4 0 19 -1 3 vhcurveto
          43 -11 -70 8 -33 hhcurveto
          -4 4 rlineto
          164 vlineto
          20 50 20 13 3 vhcurveto
          21 5 18 -10 31 vvcurveto
          20 -16 13 -21 vhcurveto
          -23 -16 -12 -21 hhcurveto
          47 12 46 47 vvcurveto
          24 vlineto
          13 -7 -11 12 -17 hhcurveto
          -19 -10 -25 -17 -4 hvcurveto
          -17 -139 rlineto
          -13 vlineto
          -9 -4 -37 -9 vvcurveto
          -13 -13 -52 -66 -11 -14 rrcurveto
          -23 -31 -24 -41 -40 vvcurveto
          -38 95 -23 28 5 vhcurveto
          11 -33 -3 -72 -30 vvcurveto
          -49 5 -25 -24 32 -19 rrcurveto
          -11 38 5 8 -8 vhcurveto
          18 -122 rlineto
          -5 vlineto
          46 286 rmoveto
          23 vlineto
          3 1 2 2 3 hhcurveto
          3 hlineto
          -3 6 33 -2 7 hhcurveto
          -4 vlineto
          -12 -11 -10 -5 -8 vhcurveto
          -9 -8 -21 -20 -1 hhcurveto
          -5 hlineto
          -1 -2 12 4 -1 hvcurveto
          -122 131 rmoveto
          19 31 55 15 vhcurveto
          -82 vlineto
          -7 -9 3 -3 -11 -23 -3 15 vhcurveto
          endchar
        </CharString>
        <CharString name="dotaccent">
          -250 22 577 rmoveto
          -29 35 -35 27 39 24 37 37 vhcurveto
          5 vlineto
          25 -19 -20 24 -33 hhcurveto
          -27 -26 -35 -29 hvcurveto
          endchar
        </CharString>
        <CharString name="e">
          22 441 284 rmoveto
          77 -73 -33 -14 -20 vhcurveto
          -41 -63 -160 -148 rlineto
          -4 -11 -8 -13 -11 hhcurveto
          -1 -1 1 1 -1 hvcurveto
          -1 1 0 0 1 vvcurveto
          29 8 73 4 9 vhcurveto
          4 8 8 5 45 34 7 7 rlinecurve
          24 25 rlineto
          1 3 5 4 1 hhcurveto
          27 21 42 26 40 vvcurveto
          32 -68 67 -33 -56 -24 -53 -45 -19 vhcurveto
          -38 -110 rlineto
          -8 -17 -35 15 -31 vvcurveto
          -17 12 -8 15 -13 vhcurveto
          -8 -36 -1 -17 -33 vvcurveto
          -51 26 -45 57 59 47 47 41 43 vhcurveto
          161 161 6 -41 8 72 rrcurveto
          -286 35 rmoveto
          -7 -5 39 63 8 11 16 24 24 -39 -14 -11 rrcurveto
          endchar
        </CharString>
        <CharString name="eacute">
          22 441 284 rmoveto
          77 -73 -33 -14 -20 vhcurveto
          -41 -63 -160 -148 rlineto
          -4 -11 -8 -13 -11 hhcurveto
          -1 -1 1 1 -1 hvcurveto
          -1 1 0 0 1 vvcurveto
          29 8 73 4 9 vhcurveto
          4 8 8 5 45 34 7 7 rlinecurve
          24 25 rlineto
          1 3 5 4 1 hhcurveto
          27 21 42 26 40 vvcurveto
          32 -68 67 -33 -56 -24 -53 -45 -19 vhcurveto
          -38 -110 rlineto
          -8 -17 -35 15 -31 vvcurveto
          -17 12 -8 15 -13 vhcurveto
          -8 -36 -1 -17 -33 vvcurveto
          -51 26 -45 57 59 47 47 41 43 vhcurveto
          161 161 6 -41 8 72 rrcurveto
          -286 35 rmoveto
          -7 -5 39 63 8 11 16 24 24 -39 -14 -11 rrcurveto
          -106 165 rmoveto
          27 -51 67 84 21 26 11 16 23 17 -16 24 -15 23 -17 6 -20 -16 -36 -59 -53 -1 8 -69 rrcurveto
          endchar
        </CharString>
        <CharString name="ebreve">
          22 441 284 rmoveto
          77 -73 -33 -14 -20 vhcurveto
          -41 -63 -160 -148 rlineto
          -4 -11 -8 -13 -11 hhcurveto
          -1 -1 1 1 -1 hvcurveto
          -1 1 0 0 1 vvcurveto
          29 8 73 4 9 vhcurveto
          4 8 8 5 45 34 7 7 rlinecurve
          24 25 rlineto
          1 3 5 4 1 hhcurveto
          27 21 42 26 40 vvcurveto
          32 -68 67 -33 -56 -24 -53 -45 -19 vhcurveto
          -38 -110 rlineto
          -8 -17 -35 15 -31 vvcurveto
          -17 12 -8 15 -13 vhcurveto
          -8 -36 -1 -17 -33 vvcurveto
          -51 26 -45 57 59 47 47 41 43 vhcurveto
          161 161 6 -41 8 72 rrcurveto
          -286 35 rmoveto
          -7 -5 39 63 8 11 16 24 24 -39 -14 -11 rrcurveto
          9 248 rmoveto
          97 -8 18 80 -11 60 -16 -85 -138 -29 -27 105 -15 -15 -39 -97 131 -11 rrcurveto
          endchar
        </CharString>
        <CharString name="ecaron">
          22 441 284 rmoveto
          77 -73 -33 -14 -20 vhcurveto
          -41 -63 -160 -148 rlineto
          -4 -11 -8 -13 -11 hhcurveto
          -1 -1 1 1 -1 hvcurveto
          -1 1 0 0 1 vvcurveto
          29 8 73 4 9 vhcurveto
          4 8 8 5 45 34 7 7 rlinecurve
          24 25 rlineto
          1 3 5 4 1 hhcurveto
          27 21 42 26 40 vvcurveto
          32 -68 67 -33 -56 -24 -53 -45 -19 vhcurveto
          -38 -110 rlineto
          -8 -17 -35 15 -31 vvcurveto
          -17 12 -8 15 -13 vhcurveto
          -8 -36 -1 -17 -33 vvcurveto
          -51 26 -45 57 59 47 47 41 43 vhcurveto
          161 161 6 -41 8 72 rrcurveto
          -286 35 rmoveto
          -7 -5 39 63 8 11 16 24 24 -39 -14 -11 rrcurveto
          -93 170 rmoveto
          3 -4 11 -20 3 -5 rrcurveto
          -7 5 16 0 12 hhcurveto
          11 5 1 5 7 hvcurveto
          56 55 rlineto
          1 5 5 1 hvcurveto
          7 5 35 36 4 6 rrcurveto
          4 5 0 1 4 vvcurveto
          11 -11 1 -19 -17 -12 -4 -8 -7 vhcurveto
          -62 -63 -4 2 -7 7 -4 13 -56 61 rlinecurve
          3 -3 -14 2 -3 hhcurveto
          -15 -37 -8 -12 9 hvcurveto
          endchar
        </CharString>
        <CharString name="ecircumflex">
          22 441 284 rmoveto
          77 -73 -33 -14 -20 vhcurveto
          -41 -63 -160 -148 rlineto
          -4 -11 -8 -13 -11 hhcurveto
          -1 -1 1 1 -1 hvcurveto
          -1 1 0 0 1 vvcurveto
          29 8 73 4 9 vhcurveto
          4 8 8 5 45 34 7 7 rlinecurve
          24 25 rlineto
          1 3 5 4 1 hhcurveto
          27 21 42 26 40 vvcurveto
          32 -68 67 -33 -56 -24 -53 -45 -19 vhcurveto
          -38 -110 rlineto
          -8 -17 -35 15 -31 vvcurveto
          -17 12 -8 15 -13 vhcurveto
          -8 -36 -1 -17 -33 vvcurveto
          -51 26 -45 57 59 47 47 41 43 vhcurveto
          161 161 6 -41 8 72 rrcurveto
          -286 35 rmoveto
          -7 -5 39 63 8 11 16 24 24 -39 -14 -11 rrcurveto
          -179 170 rmoveto
          -18 -10 40 -13 16 hhcurveto
          4 15 5 3 3 hvcurveto
          61 95 4 22 8 10 4 3 rcurveline
          67 -99 rlineto
          -11 7 15 -8 17 hhcurveto
          20 13 4 15 7 0 1 -4 7 hvcurveto
          -8 11 -34 54 -8 10 rrcurveto
          1 -6 7 -1 1 vhcurveto
          -8 11 -44 62 -8 13 rrcurveto
          8 -8 -7 1 -11 hhcurveto
          -13 -17 0 -11 -5 hvcurveto
          -19 -45 rlineto
          endchar
        </CharString>
        <CharString name="edieresis">
          22 441 284 rmoveto
          77 -73 -33 -14 -20 vhcurveto
          -41 -63 -160 -148 rlineto
          -4 -11 -8 -13 -11 hhcurveto
          -1 -1 1 1 -1 hvcurveto
          -1 1 0 0 1 vvcurveto
          29 8 73 4 9 vhcurveto
          4 8 8 5 45 34 7 7 rlinecurve
          24 25 rlineto
          1 3 5 4 1 hhcurveto
          27 21 42 26 40 vvcurveto
          32 -68 67 -33 -56 -24 -53 -45 -19 vhcurveto
          -38 -110 rlineto
          -8 -17 -35 15 -31 vvcurveto
          -17 12 -8 15 -13 vhcurveto
          -8 -36 -1 -17 -33 vvcurveto
          -51 26 -45 57 59 47 47 41 43 vhcurveto
          161 161 6 -41 8 72 rrcurveto
          -286 35 rmoveto
          -7 -5 39 63 8 11 16 24 24 -39 -14 -11 rrcurveto
          -154 202 rmoveto
          -19 24 -19 17 25 17 21 23 vhcurveto
          3 vlineto
          15 -13 -12 14 -23 hhcurveto
          -19 -16 -19 -19 hvcurveto
          129 hmoveto
          -19 24 -19 17 25 17 21 23 vhcurveto
          3 vlineto
          15 -13 -12 14 -23 hhcurveto
          -19 -16 -19 -19 hvcurveto
          endchar
        </CharString>
        <CharString name="edotaccent">
          22 441 284 rmoveto
          77 -73 -33 -14 -20 vhcurveto
          -41 -63 -160 -148 rlineto
          -4 -11 -8 -13 -11 hhcurveto
          -1 -1 1 1 -1 hvcurveto
          -1 1 0 0 1 vvcurveto
          29 8 73 4 9 vhcurveto
          4 8 8 5 45 34 7 7 rlinecurve
          24 25 rlineto
          1 3 5 4 1 hhcurveto
          27 21 42 26 40 vvcurveto
          32 -68 67 -33 -56 -24 -53 -45 -19 vhcurveto
          -38 -110 rlineto
          -8 -17 -35 15 -31 vvcurveto
          -17 12 -8 15 -13 vhcurveto
          -8 -36 -1 -17 -33 vvcurveto
          -51 26 -45 57 59 47 47 41 43 vhcurveto
          161 161 6 -41 8 72 rrcurveto
          -286 35 rmoveto
          -7 -5 39 63 8 11 16 24 24 -39 -14 -11 rrcurveto
          -61 215 rmoveto
          -29 35 -35 27 39 24 37 37 vhcurveto
          5 vlineto
          25 -19 -20 24 -33 hhcurveto
          -27 -26 -35 -29 hvcurveto
          endchar
        </CharString>
        <CharString name="egrave">
          22 441 284 rmoveto
          77 -73 -33 -14 -20 vhcurveto
          -41 -63 -160 -148 rlineto
          -4 -11 -8 -13 -11 hhcurveto
          -1 -1 1 1 -1 hvcurveto
          -1 1 0 0 1 vvcurveto
          29 8 73 4 9 vhcurveto
          4 8 8 5 45 34 7 7 rlinecurve
          24 25 rlineto
          1 3 5 4 1 hhcurveto
          27 21 42 26 40 vvcurveto
          32 -68 67 -33 -56 -24 -53 -45 -19 vhcurveto
          -38 -110 rlineto
          -8 -17 -35 15 -31 vvcurveto
          -17 12 -8 15 -13 vhcurveto
          -8 -36 -1 -17 -33 vvcurveto
          -51 26 -45 57 59 47 47 41 43 vhcurveto
          161 161 6 -41 8 72 rrcurveto
          -286 35 rmoveto
          -7 -5 39 63 8 11 16 24 24 -39 -14 -11 rrcurveto
          77 246 rmoveto
          8 63 -56 3 -39 54 -21 15 -19 -7 -15 -20 -15 -21 20 -18 14 -14 22 -25 72 -77 29 47 rrcurveto
          endchar
        </CharString>
        <CharString name="eight">
          -93 96 105 rmoveto
          -53 27 -52 61 60 61 60 60 67 -50 45 -40 51 vhcurveto
          6 vlineto
          11 0 -8 4 12 vhcurveto
          8 18 34 91 5 18 32 64 -47 60 -69 11 rrcurveto
          -68 -97 -79 -75 hvcurveto
          -2 vlineto
          1 -3 1 -16 3 -3 21 -47 49 -44 39 -31 rrcurveto
          -13 vlineto
          -19 -51 -16 -41 -56 vvcurveto
          61 4 rmoveto
          21 10 68 19 13 vhcurveto
          13 -8 33 -54 5 -18 rrcurveto
          -29 8 -36 -39 -27 hhcurveto
          -27 2 23 23 hvcurveto
          -69 311 rmoveto
          11 8 9 5 7 vhcurveto
          39 31 9 8 49 hhcurveto
          4 14 -4 -1 3 hvcurveto
          -8 vlineto
          -47 -23 -61 -23 -39 vhcurveto
          -2 hlineto
          -12 -63 66 20 hvcurveto
          endchar
        </CharString>
        <CharString name="ellipsis">
          -36 22 38 rmoveto
          -19 24 -19 17 25 17 21 23 vhcurveto
          3 vlineto
          15 -13 -12 14 -23 hhcurveto
          -19 -16 -19 -19 hvcurveto
          129 hmoveto
          -19 24 -19 17 25 17 21 23 vhcurveto
          3 vlineto
          15 -13 -12 14 -23 hhcurveto
          -19 -16 -19 -19 hvcurveto
          129 hmoveto
          -19 24 -19 17 25 17 21 23 vhcurveto
          3 vlineto
          15 -13 -12 14 -23 hhcurveto
          -19 -16 -19 -19 hvcurveto
          endchar
        </CharString>
        <CharString name="emacron">
          22 441 284 rmoveto
          77 -73 -33 -14 -20 vhcurveto
          -41 -63 -160 -148 rlineto
          -4 -11 -8 -13 -11 hhcurveto
          -1 -1 1 1 -1 hvcurveto
          -1 1 0 0 1 vvcurveto
          29 8 73 4 9 vhcurveto
          4 8 8 5 45 34 7 7 rlinecurve
          24 25 rlineto
          1 3 5 4 1 hhcurveto
          27 21 42 26 40 vvcurveto
          32 -68 67 -33 -56 -24 -53 -45 -19 vhcurveto
          -38 -110 rlineto
          -8 -17 -35 15 -31 vvcurveto
          -17 12 -8 15 -13 vhcurveto
          -8 -36 -1 -17 -33 vvcurveto
          -51 26 -45 57 59 47 47 41 43 vhcurveto
          161 161 6 -41 8 72 rrcurveto
          -286 35 rmoveto
          -7 -5 39 63 8 11 16 24 24 -39 -14 -11 rrcurveto
          -184 181 rmoveto
          -19 21 -12 17 vhcurveto
          247 27 rlineto
          11 -6 40 27 11 vvcurveto
          27 -24 5 -23 vhcurveto
          -251 -25 rlineto
          -19 -4 -19 -8 -23 vvcurveto
          endchar
        </CharString>
        <CharString name="emdash">
          198 54 253 rmoveto
          -19 21 -12 17 vhcurveto
          387 33 rlineto
          11 -6 40 27 11 vvcurveto
          27 -24 5 -23 vhcurveto
          -391 -31 rlineto
          -19 -4 -19 -8 -23 vvcurveto
          endchar
        </CharString>
        <CharString name="endash">
          -14 54 253 rmoveto
          -19 21 -12 17 vhcurveto
          247 27 rlineto
          11 -6 40 27 11 vvcurveto
          27 -24 5 -23 vhcurveto
          -251 -25 rlineto
          -19 -4 -19 -8 -23 vvcurveto
          endchar
        </CharString>
        <CharString name="eogonek">
          22 219 6 rmoveto
          -68 37 -45 65 vhcurveto
          119 12 -21 183 -64 -89 -11 -29 -29 -15 -19 19 -13 49 13 58 44 80 2 2 rcurveline
          1 1 1 1 1 hhcurveto
          -2 hlineto
          15 13 12 11 11 8 50 42 5 -4 5 49 rrcurveto
          77 -73 -33 -14 -20 vhcurveto
          -41 -63 -160 -148 rlineto
          -4 -11 -8 -13 -11 hhcurveto
          -1 -1 1 1 -1 hvcurveto
          -1 1 0 0 1 vvcurveto
          29 8 73 4 9 vhcurveto
          4 8 8 5 45 34 7 7 rlinecurve
          12 13 12 12 rlineto
          1 3 5 4 1 hhcurveto
          27 21 42 26 40 vvcurveto
          32 -68 67 -33 -56 -24 -53 -45 -19 vhcurveto
          -38 -110 rlineto
          -8 -17 -35 15 -31 vvcurveto
          -17 12 -8 15 -13 vhcurveto
          -8 -36 -1 -17 -33 vvcurveto
          -51 26 -45 57 29 27 12 16 24 vhcurveto
          8 5 8 6 7 6 rrcurveto
          -1 -13 0 -15 -15 vvcurveto
          -64 313 rmoveto
          -7 -5 39 63 8 11 16 24 24 -39 -14 -11 rrcurveto
          endchar
        </CharString>
        <CharString name="equal">
          -3 63 170 rmoveto
          -25 29 -15 23 vhcurveto
          85 8 83 63 85 13 5 3 13 8 3 3 3 3 8 21 1 5 rrcurveto
          20 -3 -27 5 -17 hhcurveto
          -23 -10 -3 -9 -29 hvcurveto
          -77 -37 -96 -5 -56 -58 rrcurveto
          -46 120 rmoveto
          -24 3 39 -10 20 hhcurveto
          96 32 93 14 96 35 rrcurveto
          15 7 10 17 17 vvcurveto
          11 -24 12 -10 vhcurveto
          -5 hlineto
          -184 -40 -56 -12 -59 -21 -19 -5 -18 -8 3 -25 rrcurveto
          endchar
        </CharString>
        <CharString name="eth">
          -52 201 1 rmoveto
          202 8 -87 212 -96 140 -6 8 77 11 -6 8 -33 52 rcurveline
          -61 -33 -45 122 -71 -57 56 -86 rlinecurve
          6 -4 -43 -9 2 -4 7 -11 1 -30 11 -16 56 21 rcurveline
          69 -200 -25 60 -55 42 -85 -3 rlinecurve
          -37 -9 -30 -24 -76 73 -82 99 -19 hvcurveto
          -26 128 rmoveto
          64 -61 -72 -11 -40 30 -68 49 57 77 59 -84 rrcurveto
          endchar
        </CharString>
        <CharString name="exclam">
          -302 18 34 rmoveto
          -16 21 -15 13 -3 vhcurveto
          20 -3 24 22 16 vvcurveto
          24 -17 9 -23 vhcurveto
          -16 hlineto
          -9 -8 -13 -13 -13 vvcurveto
          333 vmoveto
          -29 9 -17 29 28 8 22 24 3 vhcurveto
          23 4 82 13 11 -4 92 12 vvcurveto
          131 vlineto
          17 -7 -9 20 -23 hhcurveto
          -5 -28 -12 -8 hvcurveto
          -342 vlineto
          -5 -15 0 -9 -15 vvcurveto
          endchar
        </CharString>
        <CharString name="exclamdown">
          -302 26 667 rmoveto
          -12 14 -11 9 -7 vhcurveto
          16 hlineto
          24 17 8 21 15 -24 19 -21 -3 hvcurveto
          -13 -3 -22 -12 -15 vvcurveto
          -293 vmoveto
          -12 -1 -9 7 -13 vhcurveto
          -301 vlineto
          -6 28 -11 5 24 9 17 15 7 vhcurveto
          116 vlineto
          10 4 80 11 11 -4 73 19 vvcurveto
          21 -3 -8 20 -29 hhcurveto
          -29 -10 -14 -27 hvcurveto
          endchar
        </CharString>
        <CharString name="f">
          -130 70 208 rmoveto
          55 -181 rlineto
          -25 7 26 -13 24 hhcurveto
          21 22 18 24 -7 hvcurveto
          -47 143 -5 3 0 5 1 4 rlinecurve
          -26 85 rlineto
          10 vlineto
          1 1 41 32 18 12 118 72 rcurveline
          5 3 20 9 5 1 rrcurveto
          4 12 9 3 15 vvcurveto
          20 -25 9 -19 -19 -12 -13 -4 -19 vhcurveto
          -135 -80 rlineto
          -8 hlineto
          -8 58 -1 35 57 16 1 39 2 vvcurveto
          3 7 54 5 18 vhcurveto
          4 5 15 3 3 vhcurveto
          27 35 54 -34 49 vvcurveto
          33 -42 -3 -21 -125 2 -126 -96 vhcurveto
          -73 13 -72 -75 vvcurveto
          -18 vlineto
          -1 -1 -3 -3 -1 hhcurveto
          -3 -3 -19 -13 -4 -1 -11 -8 4 -63 59 11 rrcurveto
          endchar
        </CharString>
        <CharString name="fi">
          43 363 38 rmoveto
          -8 -10 26 -18 7 -2 5 -3 21 -4 4 -1 rrcurveto
          16 -3 18 21 16 vvcurveto
          -1 1 0 0 1 vvcurveto
          2 vlineto
          5 -8 32 5 vvcurveto
          -32 131 14 135 -24 131 rrcurveto
          21 -8 -28 5 -20 hhcurveto
          -13 -16 -11 -15 hvcurveto
          -7 vlineto
          -9 -1 -7 -2 -7 -4 -7 -5 -9 -3 -9 -2 -135 -80 rcurveline
          -8 hlineto
          -6 44 -3 30 37 vvcurveto
          54 vlineto
          13 1 13 8 vvcurveto
          8 vlineto
          3 7 54 5 18 vhcurveto
          4 5 15 3 3 vhcurveto
          27 35 54 -34 49 vvcurveto
          24 -24 6 -20 vhcurveto
          -19 hlineto
          -125 2 -126 -96 hvcurveto
          -73 13 -72 -75 vvcurveto
          -18 vlineto
          -3 -3 rlineto
          -1 -1 0 0 -1 hhcurveto
          -3 -3 -19 -13 -4 -1 -11 -8 4 -63 59 11 4 -8 rcurveline
          55 -181 rlineto
          -25 7 26 -13 24 hhcurveto
          21 22 18 24 -7 hvcurveto
          -47 143 -5 3 0 5 1 4 rlinecurve
          -26 85 rlineto
          10 vlineto
          7 5 14 12 25 18 14 10 rlinecurve
          118 72 6 3 3 -19 3 -24 3 -30 rlinecurve
          7 -64 9 -93 13 -133 rrcurveto
          -56 729 rmoveto
          -28 31 -17 24 23 3 6 23 23 -32 11 -20 -8 -21 -9 -9 vhcurveto
          endchar
        </CharString>
        <CharString name="five">
          4 115 35 rmoveto
          -17 16 -18 19 9 17 8 4 7 vhcurveto
          14 14 54 62 13 13 rrcurveto
          33 41 39 50 53 vvcurveto
          39 -48 12 -31 vhcurveto
          -59 -7 -47 -21 -48 -31 rrcurveto
          16 vlineto
          22 127 rlineto
          1 5 2 3 1 vhcurveto
          39 12 36 3 43 7 rrcurveto
          9 hlineto
          122 25 rlineto
          17 3 9 11 17 vvcurveto
          25 -15 12 -23 -3 -10 0 -1 -1 vhcurveto
          -135 -25 rlineto
          3 -24 -25 -11 -25 hhcurveto
          -6 hlineto
          16 -13 -7 8 -20 hhcurveto
          -51 21 -32 -35 -19 hvcurveto
          -25 -156 rlineto
          3 -24 -7 -26 -25 vvcurveto
          -24 6 -36 31 24 4 1 11 15 vhcurveto
          9 7 17 11 13 11 7 6 8 6 9 6 rrcurveto
          4 hlineto
          13 19 30 21 24 1 6 -1 1 hhcurveto
          -5 -20 -18 -23 -11 -15 -59 -73 rcurveline
          -16 -16 -27 -14 -27 vvcurveto
          endchar
        </CharString>
        <CharString name="fl">
          23 324 70 rmoveto
          -37 16 -26 39 -7 vhcurveto
          15 -3 16 14 8 11 rrcurveto
          77 vlineto
          191 -12 184 3 189 vhcurveto
          32 -1 -25 19 -31 hhcurveto
          -24 -12 -7 -25 hvcurveto
          7 -73 3 -71 -69 vvcurveto
          1 -3 -2 0 -3 hhcurveto
          -19 -12 -13 -4 -19 hvcurveto
          -135 -80 rlineto
          -8 hlineto
          -6 44 -3 30 37 vvcurveto
          54 vlineto
          13 1 13 8 vvcurveto
          8 vlineto
          3 7 54 5 18 vhcurveto
          4 5 15 3 3 vhcurveto
          27 35 54 -34 49 vvcurveto
          24 -24 6 -20 vhcurveto
          -19 hlineto
          -125 2 -126 -96 hvcurveto
          -73 13 -72 -75 vvcurveto
          -18 vlineto
          -3 -3 rlineto
          -1 -1 0 0 -1 hhcurveto
          -3 -3 -19 -13 -4 -1 -11 -8 4 -63 59 11 4 -8 rcurveline
          55 -181 rlineto
          -25 7 26 -13 24 hhcurveto
          21 22 18 24 -7 hvcurveto
          -47 143 -5 3 0 5 1 4 rlinecurve
          -26 85 rlineto
          10 vlineto
          7 5 14 12 25 18 14 10 rlinecurve
          118 72 6 3 3 -167 rlineto
          -56 -4 -52 -56 vvcurveto
          endchar
        </CharString>
        <CharString name="florin">
          -130 70 208 rmoveto
          36 -345 -3 5 -7 3 -12 -1 rlinecurve
          -61 -152 -91 291 hhcurveto
          21 22 18 24 -7 hvcurveto
          -57 450 rlineto
          10 vlineto
          7 5 14 12 25 18 14 10 rlinecurve
          118 72 5 3 20 9 5 1 rlinecurve
          4 12 9 3 15 vvcurveto
          20 -25 9 -19 -19 -12 -13 -4 -19 vhcurveto
          -135 -80 rlineto
          -8 hlineto
          -6 44 -3 30 37 vvcurveto
          54 vlineto
          13 1 13 8 vvcurveto
          8 vlineto
          3 7 54 5 18 vhcurveto
          4 5 15 3 3 vhcurveto
          27 35 54 -34 49 vvcurveto
          24 -24 6 -20 vhcurveto
          -19 hlineto
          -125 2 -126 -96 hvcurveto
          -73 13 -72 -75 vvcurveto
          -18 vlineto
          -3 -3 rlineto
          -1 -1 0 0 -1 hhcurveto
          -3 -3 -19 -13 -4 -1 -11 -8 4 -63 59 11 rrcurveto
          endchar
        </CharString>
        <CharString name="four">
          -13 236 34 rmoveto
          -8 vlineto
          -3 14 -14 7 -5 vhcurveto
          -4 7 7 0 8 hhcurveto
          23 10 22 21 hvcurveto
          72 -21 73 75 vvcurveto
          3 vlineto
          88 34 rlineto
          11 4 2 12 11 vvcurveto
          25 -12 12 -23 vhcurveto
          -25 -17 -19 -24 hhcurveto
          212 vlineto
          25 -29 10 -18 -11 -7 0 -9 -7 vhcurveto
          -50 -64 rlineto
          -1 -1 -3 -2 -1 vvcurveto
          -93 -161 rlineto
          -3 -1 -1 -3 hvcurveto
          -5 -5 -26 -48 -3 -5 -4 -7 -17 -11 -1 -8 -3 -20 18 -16 15 -11 rrcurveto
          4 hlineto
          56 53 26 56 hhcurveto
          4 hlineto
          -85 63 rmoveto
          81 145 4 -6 rlineto
          -125 vlineto
          -1 -3 -4 -1 vhcurveto
          -3 -1 -8 -3 -1 -1 rrcurveto
          -2 -11 -48 -10 -10 hhcurveto
          endchar
        </CharString>
        <CharString name="fraction">
          -13 84 -32 rmoveto
          -17 16 -11 15 15 14 7 16 4 vhcurveto
          11 76 15 75 12 76 113 566 rcurveline
          4 vlineto
          3 8 12 60 3 8 rrcurveto
          3 16 5 18 16 vvcurveto
          27 -5 3 -25 13 vhcurveto
          -2 hlineto
          -23 -9 -7 -23 -4 hvcurveto
          -143 -739 rlineto
          -8 vlineto
          -12 -64 -11 -53 -7 -64 rrcurveto
          endchar
        </CharString>
        <CharString name="g">
          -7 72 -349 rmoveto
          -4 -45 200 7 24 12 rrcurveto
          125 40 -2 91 107 vvcurveto
          -65 472 rlineto
          81 vlineto
          31 -70 20 -27 -99 -137 -281 -100 -44 35 -24 40 90 57 102 67 35 vhcurveto
          12 9 -2 -31 -7 vvcurveto
          48 -305 17 -101 -61 -50 -61 -21 -75 -14 -61 27 -19 -5 -5 -23 5 -15 rrcurveto
          156 727 rmoveto
          92 12 -132 -244 -84 -44 -43 16 126 215 41 45 rrcurveto
          endchar
        </CharString>
        <CharString name="gbreve">
          -7 72 -349 rmoveto
          -4 -45 200 7 24 12 rrcurveto
          125 40 -2 91 107 vvcurveto
          -65 472 rlineto
          81 vlineto
          31 -70 20 -27 -99 -137 -281 -100 -44 35 -24 40 90 57 102 67 35 vhcurveto
          12 9 -2 -31 -7 vvcurveto
          48 -305 17 -101 -61 -50 -61 -21 -75 -14 -61 27 -19 -5 -5 -23 5 -15 rrcurveto
          156 727 rmoveto
          92 12 -132 -244 -84 -44 -43 16 126 215 41 45 rrcurveto
          -13 232 rmoveto
          97 -8 18 80 -11 60 -16 -85 -138 -29 -27 105 -15 -15 -39 -97 131 -11 rrcurveto
          endchar
        </CharString>
        <CharString name="gcircumflex">
          -7 72 -349 rmoveto
          -4 -45 200 7 24 12 rrcurveto
          125 40 -2 91 107 vvcurveto
          -65 472 rlineto
          81 vlineto
          31 -70 20 -27 -99 -137 -281 -100 -44 35 -24 40 90 57 102 67 35 vhcurveto
          12 9 -2 -31 -7 vvcurveto
          48 -305 17 -101 -61 -50 -61 -21 -75 -14 -61 27 -19 -5 -5 -23 5 -15 rrcurveto
          156 727 rmoveto
          92 12 -132 -244 -84 -44 -43 16 126 215 41 45 rrcurveto
          -151 188 rmoveto
          -18 -10 40 -13 16 hhcurveto
          4 15 5 3 3 hvcurveto
          61 95 4 22 8 10 4 3 rcurveline
          67 -99 rlineto
          -11 7 15 -8 17 hhcurveto
          20 13 4 15 7 0 1 -4 7 hvcurveto
          -8 11 -34 54 -8 10 rrcurveto
          1 -6 7 -1 1 vhcurveto
          -8 11 -44 62 -8 13 rrcurveto
          8 -8 -7 1 -11 hhcurveto
          -13 -17 0 -11 -5 hvcurveto
          -19 -45 rlineto
          endchar
        </CharString>
        <CharString name="gcommaaccent">
          -7 72 -349 rmoveto
          -4 -45 200 7 24 12 rrcurveto
          125 40 -2 91 107 vvcurveto
          -65 472 rlineto
          81 vlineto
          31 -70 20 -27 -99 -137 -281 -100 -44 35 -24 40 90 57 102 67 35 vhcurveto
          12 9 -2 -31 -7 vvcurveto
          48 -305 17 -101 -61 -50 -61 -21 -75 -14 -61 27 -19 -5 -5 -23 5 -15 rrcurveto
          156 727 rmoveto
          92 12 -132 -244 -84 -44 -43 16 126 215 41 45 rrcurveto
          -62 192 rmoveto
          -28 7 -44 36 -5 vhcurveto
          30 -4 7 180 24 vvcurveto
          27 -11 18 -29 -17 -10 -8 -17 -5 vhcurveto
          -21 -8 -87 -19 vvcurveto
          endchar
        </CharString>
        <CharString name="gdotaccent">
          -7 72 -349 rmoveto
          -4 -45 200 7 24 12 rrcurveto
          125 40 -2 91 107 vvcurveto
          -65 472 rlineto
          81 vlineto
          31 -70 20 -27 -99 -137 -281 -100 -44 35 -24 40 90 57 102 67 35 vhcurveto
          12 9 -2 -31 -7 vvcurveto
          48 -305 17 -101 -61 -50 -61 -21 -75 -14 -61 27 -19 -5 -5 -23 5 -15 rrcurveto
          156 727 rmoveto
          92 12 -132 -244 -84 -44 -43 16 126 215 41 45 rrcurveto
          -83 199 rmoveto
          -29 35 -35 27 39 24 37 37 vhcurveto
          5 vlineto
          25 -19 -20 24 -33 hhcurveto
          -27 -26 -35 -29 hvcurveto
          endchar
        </CharString>
        <CharString name="germandbls">
          92 187 88 rmoveto
          -1 hlineto
          -21 174 -4 203 rlineto
          3 57 57 1 vhcurveto
          38 11 -12 -42 -8 -17 -16 -23 -15 -15 -17 -19 22 -119 rcurveline
          1 7 4 1 hhcurveto
          34 40 11 29 57 hhcurveto
          29 62 -6 -39 -61 -89 -71 -46 -38 hvcurveto
          -11 -7 -27 -23 -17 -15 7 -89 rcurveline
          183 158 3 3 36 49 11 16 rlinecurve
          16 24 13 32 31 vvcurveto
          57 -78 30 -44 8 vhcurveto
          -11 -54 8 -11 hhcurveto
          21 48 37 40 58 vvcurveto
          31 -61 33 -19 -13 vhcurveto
          9 9 -226 -51 -112 vvcurveto
          -20 4 -78 11 vhcurveto
          7 -57 2 -64 3 -56 rrcurveto
          -8 vlineto
          19 -260 rlineto
          -20 3 63 -7 18 hhcurveto
          endchar
        </CharString>
        <CharString name="grave">
          -173 234 608 rmoveto
          8 63 -56 3 -39 54 -21 15 -19 -7 -15 -20 -15 -21 20 -18 14 -14 22 -25 72 -77 29 47 rrcurveto
          endchar
        </CharString>
        <CharString name="greater">
          8 106 109 rmoveto
          -27 37 -16 21 5 vhcurveto
          5 3 17 10 3 4 83 83 40 75 64 91 rrcurveto
          15 21 23 16 27 vvcurveto
          11 -4 5 -9 12 vhcurveto
          -112 51 -119 19 -104 61 rrcurveto
          -9 -44 -8 -20 3 hvcurveto
          -5 18 -29 4 vhcurveto
          274 -105 rlineto
          -3 vlineto
          -3 -1 -4 -3 -4 vhcurveto
          -160 -224 rlineto
          -15 -8 -27 -20 -18 vvcurveto
          endchar
        </CharString>
        <CharString name="guillemotleft">
          417 224 223 rmoveto
          47 -23 45 -24 40 -32 15 -9 3 -12 16 -8 23 -11 20 6 11 23 rrcurveto
          12 26 -28 7 19 vvcurveto
          -75 45 -69 40 -79 37 14 27 56 10 24 21 199 124 rcurveline
          3 3 6 4 3 vvcurveto
          11 25 -8 31 -27 13 -32 16 -15 -38 -26 -15 -166 -104 rcurveline
          -11 -9 -12 0 -11 -11 -13 -8 -59 -29 -14 -6 -17 -9 -16 -1 -8 -17 -19 -38 35 -21 30 -14 5 -3 19 -9 3 -1 rrcurveto
          311 -39 rmoveto
          47 -23 45 -24 40 -32 15 -8 3 -13 16 -8 23 -11 20 6 11 23 rrcurveto
          12 26 -28 7 19 vvcurveto
          -75 47 -69 37 -79 39 14 28 56 7 24 22 199 124 rcurveline
          3 3 6 4 3 vvcurveto
          11 25 -7 31 -27 13 -34 16 -14 -37 -26 -16 -166 -104 rcurveline
          -11 -9 -12 0 -11 -11 -13 -8 -59 -29 -14 -6 -17 -9 -16 -1 -8 -17 -19 -38 35 -21 30 -14 5 -3 19 -9 3 -1 rrcurveto
          endchar
        </CharString>
        <CharString name="guillemotright">
          236 106 109 rmoveto
          -27 37 -16 21 5 vhcurveto
          5 3 17 10 3 4 83 83 40 75 64 91 rrcurveto
          15 21 23 16 27 vvcurveto
          11 -4 5 -9 12 vhcurveto
          -112 51 -119 19 -104 61 rrcurveto
          -9 -44 -8 -20 3 hvcurveto
          -5 18 -29 4 vhcurveto
          274 -105 rlineto
          -3 vlineto
          -3 -1 -4 -3 -4 vhcurveto
          -160 -224 rlineto
          -15 -8 -27 -20 -18 vvcurveto
          188 33 rmoveto
          -27 37 -16 21 5 vhcurveto
          5 3 17 10 3 4 83 83 40 75 64 91 rrcurveto
          15 21 23 16 27 vvcurveto
          11 -4 5 -9 12 vhcurveto
          -112 51 -119 19 -104 61 rrcurveto
          -9 -44 -8 -20 3 hvcurveto
          -5 18 -29 4 vhcurveto
          274 -105 rlineto
          -3 vlineto
          -3 -1 -4 -3 -4 vhcurveto
          -160 -224 rlineto
          -15 -8 -27 -20 -18 vvcurveto
          endchar
        </CharString>
        <CharString name="guilsinglleft">
          30 190 119 rmoveto
          52 50 -3 -11 51 hvcurveto
          -3 16 8 -9 19 hhcurveto
          27 14 13 27 27 -28 -4 -9 17 hvcurveto
          9 -87 -80 5 -87 hhcurveto
          30 47 33 13 29 vhcurveto
          126 198 3 3 2 7 -1 3 rlinecurve
          27 -3 -19 25 -29 hhcurveto
          -37 4 -40 -25 -17 hvcurveto
          -105 -165 -5 -13 -13 -7 -4 -13 rlinecurve
          -7 -12 -44 -53 -8 -11 rrcurveto
          -12 -15 -14 -8 -19 vvcurveto
          -42 41 -4 32 vhcurveto
          30 hlineto
          7 60 4 7 hhcurveto
          endchar
        </CharString>
        <CharString name="guilsinglright">
          8 106 109 rmoveto
          -27 37 -16 21 5 vhcurveto
          5 3 17 10 3 4 83 83 40 75 64 91 rrcurveto
          15 21 23 16 27 vvcurveto
          11 -4 5 -9 12 vhcurveto
          -112 51 -119 19 -104 61 rrcurveto
          -9 -44 -8 -20 3 hvcurveto
          -5 18 -29 4 vhcurveto
          274 -105 rlineto
          -3 vlineto
          -3 -1 -4 -3 -4 vhcurveto
          -160 -224 rlineto
          -15 -8 -27 -20 -18 vvcurveto
          endchar
        </CharString>
        <CharString name="h">
          -35 63 88 rmoveto
          -45 -5 10 -43 55 hhcurveto
          28 -1 27 20 3 hvcurveto
          -8 97 48 160 59 22 17 4 62 1 -32 -299 rrcurveto
          -20 3 39 5 19 hhcurveto
          52 495 -156 0 -121 -229 -17 145 4 141 -12 145 rrcurveto
          27 -3 -18 15 -27 hhcurveto
          -19 -17 -3 -25 -79 15 -80 -3 -80 hvcurveto
          endchar
        </CharString>
        <CharString name="hbar">
          -35 -36 513 rmoveto
          -19 21 -12 17 vhcurveto
          36 4 25 -398 rlineto
          -45 -5 10 -43 55 hhcurveto
          22 4 15 16 2 hvcurveto
          2 16 -8 97 48 160 59 22 rlinecurve
          17 4 62 1 -32 -299 rrcurveto
          -20 3 39 5 19 hhcurveto
          52 495 -156 0 -121 -229 -9 71 -5 71 -1 70 129 14 rcurveline
          11 -6 40 27 11 vvcurveto
          27 -24 5 -23 vhcurveto
          -134 -14 -2 51 -3 52 -4 52 rlinecurve
          27 -3 -18 15 -27 hhcurveto
          -19 -17 -3 -25 -39 2 -40 5 -40 hvcurveto
          2 -19 1 -20 1 -19 -35 -3 rcurveline
          -19 -4 -19 -8 -23 vvcurveto
          endchar
        </CharString>
        <CharString name="hcircumflex">
          -35 63 88 rmoveto
          -45 -5 10 -43 55 hhcurveto
          28 -1 27 20 3 hvcurveto
          -8 97 48 160 59 22 17 4 62 1 -32 -299 rrcurveto
          -20 3 39 5 19 hhcurveto
          52 495 -156 0 -121 -229 -17 145 4 141 -12 145 rrcurveto
          27 -3 -18 15 -27 hhcurveto
          -19 -17 -3 -25 -79 15 -80 -3 -80 hvcurveto
          99 172 rmoveto
          -18 -10 40 -13 16 hhcurveto
          4 15 5 3 3 hvcurveto
          61 95 4 22 8 10 4 3 rcurveline
          67 -99 rlineto
          -11 7 15 -8 17 hhcurveto
          20 13 4 15 7 0 1 -4 7 hvcurveto
          -8 11 -34 54 -8 10 rrcurveto
          1 -6 7 -1 1 vhcurveto
          -8 11 -44 62 -8 13 rrcurveto
          8 -8 -7 1 -11 hhcurveto
          -13 -17 0 -11 -5 hvcurveto
          -19 -45 rlineto
          endchar
        </CharString>
        <CharString name="hungarumlaut">
          -107 17 648 rmoveto
          27 -51 67 84 21 26 11 16 23 17 -16 24 -15 23 -17 6 -20 -16 -36 -59 -53 -1 8 -69 rrcurveto
          136 -19 rmoveto
          27 -51 67 84 21 26 11 16 23 17 -16 24 -15 23 -17 6 -20 -16 -36 -59 -53 -1 8 -69 rrcurveto
          endchar
        </CharString>
        <CharString name="hyphen">
          -14 54 253 rmoveto
          -19 21 -12 17 vhcurveto
          247 27 rlineto
          11 -6 40 27 11 vvcurveto
          27 -24 5 -23 vhcurveto
          -251 -25 rlineto
          -19 -4 -19 -8 -23 vvcurveto
          endchar
        </CharString>
        <CharString name="hyphen_">
          -14 54 253 rmoveto
          -19 21 -12 17 vhcurveto
          247 27 rlineto
          11 -6 40 27 11 vvcurveto
          27 -24 5 -23 vhcurveto
          -251 -25 rlineto
          -19 -4 -19 -8 -23 vvcurveto
          endchar
        </CharString>
        <CharString name="i">
          -250 70 38 rmoveto
          -8 -10 26 -18 7 -2 5 -3 21 -4 4 -1 rrcurveto
          16 -3 18 21 16 vvcurveto
          -1 1 0 0 1 vvcurveto
          2 vlineto
          5 -8 32 5 vvcurveto
          -32 131 14 135 -24 131 rrcurveto
          21 -8 -28 5 -20 hhcurveto
          -13 -16 -11 -15 hvcurveto
          -4 vlineto
          -4 7 -31 40 -400 vhcurveto
          -56 729 rmoveto
          -28 31 -17 24 23 3 6 23 23 -32 11 -20 -8 -21 -9 -9 vhcurveto
          endchar
        </CharString>
        <CharString name="iacute">
          -250 70 38 rmoveto
          -8 -10 26 -18 7 -2 5 -3 21 -4 4 -1 rrcurveto
          16 -3 18 21 16 vvcurveto
          -1 1 0 0 1 vvcurveto
          2 vlineto
          5 -8 32 5 vvcurveto
          -32 131 14 135 -24 131 rrcurveto
          21 -8 -28 5 -20 hhcurveto
          -13 -16 -11 -15 hvcurveto
          -4 vlineto
          -4 7 -31 40 -400 vhcurveto
          -54 591 rmoveto
          27 -51 67 84 21 26 11 16 23 17 -16 24 -15 23 -17 6 -20 -16 -36 -59 -53 -1 8 -69 rrcurveto
          endchar
        </CharString>
        <CharString name="ibreve">
          -250 94 610 rmoveto
          97 -8 18 80 -11 60 -16 -85 -138 -29 -27 105 -15 -15 -39 -97 131 -11 rrcurveto
          -24 -572 rmoveto
          -8 -10 26 -18 7 -2 5 -3 21 -4 4 -1 rrcurveto
          16 -3 18 21 16 vvcurveto
          -1 1 0 0 1 vvcurveto
          2 vlineto
          5 -8 32 5 vvcurveto
          -32 131 14 135 -24 131 rrcurveto
          21 -8 -28 5 -20 hhcurveto
          -13 -16 -11 -15 hvcurveto
          -4 vlineto
          -4 7 -31 40 -400 vhcurveto
          endchar
        </CharString>
        <CharString name="icircumflex">
          -250 70 38 rmoveto
          -8 -10 26 -18 7 -2 5 -3 21 -4 4 -1 rrcurveto
          16 -3 18 21 16 vvcurveto
          -1 1 0 0 1 vvcurveto
          2 vlineto
          5 -8 32 5 vvcurveto
          -32 131 14 135 -24 131 rrcurveto
          21 -8 -28 5 -20 hhcurveto
          -13 -16 -11 -15 hvcurveto
          -4 vlineto
          -4 7 -31 40 -400 vhcurveto
          -120 637 rmoveto
          -18 -10 40 -13 16 hhcurveto
          4 15 5 3 3 hvcurveto
          61 95 4 22 8 10 4 3 rcurveline
          67 -99 rlineto
          -11 7 15 -8 17 hhcurveto
          20 13 4 15 7 0 1 -4 7 hvcurveto
          -8 11 -34 54 -8 10 rrcurveto
          1 -6 7 -1 1 vhcurveto
          -8 11 -44 62 -8 13 rrcurveto
          8 -8 -7 1 -11 hhcurveto
          -13 -17 0 -11 -5 hvcurveto
          -19 -45 rlineto
          endchar
        </CharString>
        <CharString name="idieresis">
          -250 70 38 rmoveto
          -8 -10 26 -18 7 -2 5 -3 21 -4 4 -1 rrcurveto
          16 -3 18 21 16 vvcurveto
          -1 1 0 0 1 vvcurveto
          2 vlineto
          5 -8 32 5 vvcurveto
          -32 131 14 135 -24 131 rrcurveto
          21 -8 -28 5 -20 hhcurveto
          -13 -16 -11 -15 hvcurveto
          -4 vlineto
          -4 7 -31 40 -400 vhcurveto
          -89 672 rmoveto
          -19 24 -19 17 25 17 21 23 vhcurveto
          3 vlineto
          15 -13 -12 14 -23 hhcurveto
          -19 -16 -19 -19 hvcurveto
          129 hmoveto
          -19 24 -19 17 25 17 21 23 vhcurveto
          3 vlineto
          15 -13 -12 14 -23 hhcurveto
          -19 -16 -19 -19 hvcurveto
          endchar
        </CharString>
        <CharString name="igrave">
          -250 70 38 rmoveto
          -8 -10 26 -18 7 -2 5 -3 21 -4 4 -1 rrcurveto
          16 -3 18 21 16 vvcurveto
          -1 1 0 0 1 vvcurveto
          2 vlineto
          5 -8 32 5 vvcurveto
          -32 131 14 135 -24 131 rrcurveto
          21 -8 -28 5 -20 hhcurveto
          -13 -16 -11 -15 hvcurveto
          -4 vlineto
          -4 7 -31 40 -400 vhcurveto
          92 570 rmoveto
          8 63 -56 3 -39 54 -21 15 -19 -7 -15 -20 -15 -21 20 -18 14 -14 22 -25 72 -77 29 47 rrcurveto
          endchar
        </CharString>
        <CharString name="imacron">
          -250 70 38 rmoveto
          -8 -10 26 -18 7 -2 5 -3 21 -4 4 -1 rrcurveto
          16 -3 18 21 16 vvcurveto
          -1 1 0 0 1 vvcurveto
          2 vlineto
          5 -8 32 5 vvcurveto
          -32 131 14 135 -24 131 rrcurveto
          21 -8 -28 5 -20 hhcurveto
          -13 -16 -11 -15 hvcurveto
          -4 vlineto
          -4 7 -31 40 -400 vhcurveto
          -151 676 rmoveto
          -19 21 -12 17 vhcurveto
          247 27 rlineto
          11 -6 40 27 11 vvcurveto
          27 -24 5 -23 vhcurveto
          -251 -25 rlineto
          -19 -4 -19 -8 -23 vvcurveto
          endchar
        </CharString>
        <CharString name="iogonek">
          -250 12 -129 rmoveto
          -68 37 -45 65 vhcurveto
          119 12 -21 183 -64 -89 -11 -29 -29 -15 -19 19 -7 25 0 27 7 30 5 24 10 27 15 29 rrcurveto
          -1 3 2 0 1 hhcurveto
          16 -3 18 21 16 vvcurveto
          -1 1 0 0 1 vvcurveto
          2 vlineto
          5 -8 32 5 vvcurveto
          -32 131 14 135 -24 131 rrcurveto
          21 -8 -28 5 -20 hhcurveto
          -13 -16 -11 -15 hvcurveto
          -4 vlineto
          -4 7 -31 40 -400 vhcurveto
          -7 -2 -6 -3 -5 -4 rrcurveto
          -24 -19 -16 -46 -93 vvcurveto
          2 896 rmoveto
          -28 31 -17 24 23 3 6 23 23 -32 11 -20 -8 -21 -9 -9 vhcurveto
          endchar
        </CharString>
        <CharString name="itilde">
          -250 70 38 rmoveto
          -8 -10 26 -18 7 -2 5 -3 21 -4 4 -1 rrcurveto
          16 -3 18 21 16 vvcurveto
          -1 1 0 0 1 vvcurveto
          2 vlineto
          5 -8 32 5 vvcurveto
          -32 131 14 135 -24 131 rrcurveto
          21 -8 -28 5 -20 hhcurveto
          -13 -16 -11 -15 hvcurveto
          -4 vlineto
          -4 7 -31 40 -400 vhcurveto
          -134 530 rmoveto
          -16 17 -10 9 vhcurveto
          20 17 88 27 hhcurveto
          35 -30 38 -58 47 3 rrcurveto
          39 41 74 57 19 -3 13 -15 -26 -7 -40 -24 -16 hvcurveto
          -7 -4 -9 -20 -9 hhcurveto
          -13 -5 12 7 -11 hvcurveto
          -57 72 rlineto
          11 -8 -8 0 -9 hhcurveto
          -49 -16 -21 -63 -18 -55 rrcurveto
          -1 -7 -1 -3 -7 vvcurveto
          endchar
        </CharString>
        <CharString name="j">
          -222 -116 -165 rmoveto
          -49 22 78 -20 53 hhcurveto
          8 8 7 -3 8 hvcurveto
          97 30 26 109 87 vvcurveto
          -24 362 -15 66 47 vvcurveto
          25 -15 -15 5 -27 hhcurveto
          -21 -10 -15 -20 hvcurveto
          40 -431 -1 -21 -7 vvcurveto
          -54 -16 -120 -76 vhcurveto
          -50 8 -70 114 -120 vvcurveto
          126 893 rmoveto
          -21 34 -21 19 13 24 7 17 31 -28 14 -25 -16 -21 -6 -21 vhcurveto
          endchar
        </CharString>
        <CharString name="jcircumflex">
          -222 -116 -165 rmoveto
          -49 22 78 -20 53 hhcurveto
          8 8 7 -3 8 hvcurveto
          97 30 26 109 87 vvcurveto
          -24 362 -15 66 47 vvcurveto
          25 -15 -15 5 -27 hhcurveto
          -21 -10 -15 -20 hvcurveto
          40 -431 -1 -21 -7 vvcurveto
          -54 -16 -120 -76 vhcurveto
          -50 8 -70 114 -120 vvcurveto
          80 840 rmoveto
          -18 -10 40 -13 16 hhcurveto
          4 15 5 3 3 hvcurveto
          61 95 4 22 8 10 4 3 rcurveline
          67 -99 rlineto
          -11 7 15 -8 17 hhcurveto
          20 13 4 15 7 0 1 -4 7 hvcurveto
          -8 11 -34 54 -8 10 rrcurveto
          1 -6 7 -1 1 vhcurveto
          -8 11 -44 62 -8 13 rrcurveto
          8 -8 -7 1 -11 hhcurveto
          -13 -17 0 -11 -5 hvcurveto
          -19 -45 rlineto
          endchar
        </CharString>
        <CharString name="k">
          -24 37 -37 rmoveto
          -20 8 19 -18 24 hhcurveto
          32 6 14 27 hvcurveto
          -4 238 211 -32 10 12 3 -10 rlinecurve
          23 3 23 9 27 vvcurveto
          15 -17 20 -17 3 vhcurveto
          -194 20 -9 5 151 183 36 42 8 11 rlinecurve
          1 3 3 7 3 vvcurveto
          31 -23 8 -28 7 vhcurveto
          -36 -8 -11 -44 -19 -24 -115 -131 rcurveline
          -4 292 hlineto
          28 -39 13 -21 vhcurveto
          -15 3 -10 -19 -13 vvcurveto
          9 -5 -13 -503 4 -113 rrcurveto
          -12 4 -59 -13 vvcurveto
          endchar
        </CharString>
</ttFont>
